<?xml version="1.0" encoding="UTF-8"?>
<svg version="1.1" xmlns="http://www.w3.org/2000/svg" width="1920" height="1080">
<path d="M0 0 C7.12692964 3.56902405 13.19179522 8.66588697 19.26953125 13.7578125 C21.8500681 15.87687996 24.47885499 17.86097998 27.1875 19.8125 C28.52361328 20.77736328 28.52361328 20.77736328 29.88671875 21.76171875 C31.58720625 22.98427752 33.28863735 24.20554371 34.99462891 25.42041016 C37.17197702 26.97664784 39.33639658 28.5497257 41.5 30.125 C42.19504639 30.61589111 42.89009277 31.10678223 43.60620117 31.61254883 C47.70590209 34.61946619 50.21829874 37.07017997 52 42 C52.16907699 47.24138659 51.38224293 50.00503642 48.0625 54.0625 C44.69321379 57.57443744 41.01833374 60.27871002 36.98046875 62.97265625 C33.35927066 65.43583031 29.86982277 68.04941265 26.375 70.6875 C25.70267334 71.1935376 25.03034668 71.6995752 24.33764648 72.22094727 C22.22403891 73.81256574 20.11186368 75.4060685 18 77 C15.04312968 79.23111638 12.08454464 81.4599328 9.125 83.6875 C8.44099121 84.20465576 7.75698242 84.72181152 7.05224609 85.25463867 C1.78609425 89.21798393 -1.34207097 90.69140032 -8 90 C-11.50550868 88.59779653 -12.73256673 87.40576082 -14.8125 84.25 C-16.19317311 80.47131569 -16.49945097 77.99560775 -16 74 C-12.29422857 66.43405 -4.78966079 62.52219433 2 58 C-21.9923178 57.95318223 -45.98462871 57.91796336 -69.97698307 57.89637566 C-81.11821588 57.88608361 -92.25942023 57.87206305 -103.40063477 57.84912109 C-113.11660435 57.82912361 -122.83255332 57.81626852 -132.54854292 57.81182301 C-137.6882571 57.80922637 -142.8279123 57.80316669 -147.9676075 57.78853989 C-152.81599883 57.7748553 -157.66430749 57.7707991 -162.51271629 57.77378464 C-164.28184586 57.7732393 -166.05097852 57.76932719 -167.82009125 57.76158905 C-187.76699186 57.67870056 -207.67796201 59.1546771 -225 70 C-225.94101562 70.54011719 -226.88203125 71.08023438 -227.8515625 71.63671875 C-247.50990896 83.59252049 -258.68870392 102.68684795 -265.16015625 124.2890625 C-266.90391974 131.99406396 -267.1456085 139.62785825 -267.12749195 147.50286674 C-267.1299577 149.04210426 -267.1299577 149.04210426 -267.13247326 150.61243749 C-267.13678321 154.04916443 -267.13401464 157.48584886 -267.13130188 160.9225769 C-267.13300455 163.4123078 -267.13515448 165.90203842 -267.13771313 168.39176857 C-267.14230707 173.80427155 -267.14386117 179.21676217 -267.14274788 184.62926674 C-267.14113517 192.6784361 -267.14530636 200.72759516 -267.15082836 208.77676243 C-267.15947404 221.49218542 -267.16483948 234.20760704 -267.16802987 246.92303247 C-267.17317752 267.11710449 -267.1886518 287.31115888 -267.20760635 307.5052222 C-267.21162764 311.80579549 -267.21554863 316.10636887 -267.21947271 320.40694225 C-267.22025536 321.26421856 -267.22103802 322.12149488 -267.22184439 323.00474927 C-267.22342996 324.74193392 -267.22501479 326.47911857 -267.22659888 328.21630323 C-267.22819016 329.95991243 -267.22978441 331.70352163 -267.23138161 333.44713082 C-267.2502074 354.00446615 -267.26729524 374.56180265 -267.28295898 395.11914062 C-267.28399236 396.46816477 -267.28399236 396.46816477 -267.28504662 397.84444193 C-267.3072992 426.99508271 -267.31914488 456.14571837 -267.32662554 485.29636628 C-267.33439722 515.28452412 -267.35548237 545.27264706 -267.39216815 575.26078401 C-267.39734141 579.49974415 -267.40234883 583.73870448 -267.40724754 587.97766495 C-267.40869798 589.2289747 -267.40869798 589.2289747 -267.41017772 590.50556343 C-267.42529378 603.9067303 -267.42621871 617.30786208 -267.42159041 630.70903514 C-267.4171973 644.18999308 -267.4271692 657.67087937 -267.45167748 671.15181629 C-267.46577212 679.15079444 -267.46885688 687.14959661 -267.45583495 695.14857753 C-267.4473194 701.13646459 -267.45979845 707.12412113 -267.4801239 713.11198749 C-267.48509777 715.52320717 -267.48342966 717.93445237 -267.47419123 720.34565948 C-267.41244388 737.84707807 -268.4185308 754.8526325 -275.875 771 C-276.22522217 771.78777832 -276.57544434 772.57555664 -276.9362793 773.38720703 C-277.93428364 775.60321942 -278.96091627 777.80301949 -280 780 C-280.72509766 781.57394531 -280.72509766 781.57394531 -281.46484375 783.1796875 C-284.84525299 789.94050598 -289.44195033 795.442753 -294.41796875 801.0703125 C-296.30845012 803.21533675 -298.06811625 805.3675622 -299.8125 807.625 C-317.28278152 827.61218648 -346.20178956 838.77860808 -372 841 C-375.06777442 841.12703284 -378.12973191 841.13548306 -381.1998291 841.12698364 C-382.08069356 841.12854363 -382.96155803 841.13010362 -383.86911535 841.13171089 C-386.79622455 841.13567318 -389.72328112 841.13254994 -392.65039062 841.12939453 C-394.7584435 841.13075061 -396.86649614 841.13253171 -398.97454834 841.13470459 C-404.68051805 841.13925207 -410.38646963 841.137501 -416.09243965 841.1343255 C-422.06305108 841.1317907 -428.03366097 841.13414232 -434.00427246 841.13571167 C-444.02108031 841.13752896 -454.03788077 841.13513742 -464.0546875 841.13037109 C-475.6502054 841.12491744 -487.24570575 841.12670089 -498.84122324 841.1321975 C-508.79378107 841.13672702 -518.74633359 841.13738033 -528.69889212 841.13475883 C-534.64507428 841.1331967 -540.59124817 841.1330008 -546.53742981 841.13629532 C-552.11883625 841.1391721 -557.70021988 841.13720195 -563.28162384 841.13140106 C-565.33560905 841.13007293 -567.38959616 841.13046847 -569.44358063 841.13266373 C-572.23442682 841.13537285 -575.02519866 841.13199719 -577.81604004 841.12698364 C-578.63965106 841.12921436 -579.46326207 841.13144509 -580.311831 841.13374341 C-585.88584937 841.11415063 -585.88584937 841.11415063 -587 840 C-587.09932153 838.30441274 -587.13080007 836.60474253 -587.1328125 834.90625 C-587.13474609 833.36130859 -587.13474609 833.36130859 -587.13671875 831.78515625 C-587.13285156 830.70105469 -587.12898437 829.61695313 -587.125 828.5 C-587.12886719 827.41589844 -587.13273438 826.33179688 -587.13671875 825.21484375 C-587.13542969 824.18488281 -587.13414062 823.15492188 -587.1328125 822.09375 C-587.13168457 821.14177734 -587.13055664 820.18980469 -587.12939453 819.20898438 C-587 817 -587 817 -586 816 C-583.25434382 815.89636474 -580.53353666 815.85841988 -577.78721619 815.86196899 C-576.9156035 815.85914771 -576.04399082 815.85632643 -575.14596564 815.85341966 C-572.20138691 815.84503276 -569.25684558 815.84373187 -566.31225586 815.84228516 C-564.2100158 815.83761954 -562.10777675 815.8324764 -560.00553894 815.82688904 C-555.46402518 815.81558206 -550.92251809 815.80716009 -546.3809948 815.80076981 C-539.18923872 815.7901032 -531.99752994 815.76985813 -524.80580139 815.74765015 C-504.34964179 815.68569318 -483.89348379 815.6318248 -463.43725586 815.59863281 C-452.15008001 815.58023766 -440.86298227 815.55123286 -429.5758639 815.5106281 C-423.60503448 815.48962512 -417.63430328 815.47411051 -411.66343498 815.47182083 C-406.03358175 815.46965974 -400.40393233 815.45364247 -394.77414131 815.42743111 C-392.71841178 815.42028963 -390.66265742 815.41811182 -388.60691833 815.42153358 C-360.36479218 815.46099799 -337.68439575 809.36887107 -317 789 C-300.03161549 772.06292247 -292.94235005 749.99502604 -292.86401713 726.38757107 C-292.86683744 724.98357868 -292.86683744 724.98357868 -292.86971474 723.5512228 C-292.86777131 722.53091916 -292.86582788 721.51061552 -292.86382556 720.45939359 C-292.8585139 717.04261365 -292.8602662 713.62587429 -292.86196899 710.20909119 C-292.85955013 707.73372129 -292.85668761 705.2583518 -292.85341966 702.78298289 C-292.8472899 697.40193912 -292.84420377 692.02090646 -292.84379387 686.63986015 C-292.84314798 678.63762833 -292.83674772 670.63540836 -292.82904707 662.63318057 C-292.81697861 649.99253974 -292.80831269 637.35189946 -292.80200893 624.71125454 C-292.79196612 604.63949506 -292.77270737 584.56775251 -292.75046654 564.49600322 C-292.74193672 556.76908992 -292.73367013 549.04217633 -292.72536278 541.31526279 C-292.72443777 540.45681281 -292.72351276 539.59836282 -292.72255972 538.7138992 C-292.70057426 518.28428413 -292.68078114 497.85466718 -292.66210938 477.42504883 C-292.6612897 476.53128649 -292.66047002 475.63752415 -292.6596255 474.71667811 C-292.64054537 453.86938866 -292.62358239 433.02209931 -292.61126709 412.17480469 C-292.61073742 411.27846686 -292.61020775 410.38212903 -292.60966204 409.45862945 C-292.60541041 402.23370882 -292.60123413 395.00878814 -292.59707724 387.78386745 C-292.57986908 357.97736907 -292.5526445 328.17089389 -292.51391686 298.36441543 C-292.50845535 294.15260219 -292.50312233 289.9407888 -292.49787521 285.7289753 C-292.49684083 284.90009913 -292.49580645 284.07122296 -292.49474073 283.21722933 C-292.47843566 269.89358318 -292.47288823 256.56995331 -292.47157755 243.24629814 C-292.47007101 229.84829716 -292.45788449 216.45034027 -292.43482114 203.05235874 C-292.42146925 195.09943577 -292.41640604 187.14660919 -292.4233675 179.19367752 C-292.42765569 173.24542767 -292.41628052 167.29727302 -292.39897721 161.34904463 C-292.39441421 158.94999123 -292.39485487 156.55092173 -292.40092559 154.15187167 C-292.44008511 137.15389812 -291.34233946 121.8059306 -285.25 105.75 C-284.90074463 104.81325439 -284.55148926 103.87650879 -284.19165039 102.91137695 C-280.04198702 92.08392159 -274.44168088 82.90644612 -267 74 C-266.49210937 73.36964844 -265.98421875 72.73929687 -265.4609375 72.08984375 C-247.20806528 50.19538865 -221.36527533 36.27667967 -193 33 C-186.58803962 32.62445403 -180.15778344 32.68831517 -173.73730469 32.68115234 C-171.81437261 32.67183885 -169.89144453 32.66166809 -167.96852112 32.65071106 C-162.78138905 32.62355721 -157.59428393 32.60830526 -152.40709972 32.59528303 C-146.97386292 32.57958814 -141.54068061 32.55281837 -136.10748291 32.5272522 C-125.83373103 32.48057654 -115.55996878 32.44377833 -105.28616548 32.41057932 C-93.58353674 32.37227846 -81.88096287 32.32288929 -70.17838049 32.27259517 C-46.11896107 32.16944218 -22.05950635 32.08012796 2 32 C1.24799316 31.46093018 0.49598633 30.92186035 -0.27880859 30.36645508 C-1.26703613 29.65384521 -2.25526367 28.94123535 -3.2734375 28.20703125 C-4.25231934 27.50296143 -5.23120117 26.7988916 -6.23974609 26.07348633 C-14.33616519 19.99150442 -14.33616519 19.99150442 -16 15 C-16.36795288 10.03263608 -16.2446074 6.89352888 -13 3 C-8.59240082 0.09499145 -5.21938236 -0.85563645 0 0 Z " fill="#2C5AAE" transform="translate(1227,103)"/>
<path d="M0 0 C0.33 0 0.66 0 1 0 C1.08562408 57.0434088 1.16522296 114.0868239 1.2117157 171.13027954 C1.21240598 171.97504678 1.21309627 172.81981401 1.21380747 173.69018026 C1.22877332 192.05090888 1.24262404 210.41163819 1.25532665 228.77236851 C1.26156313 237.77695676 1.26804592 246.78154483 1.2746582 255.78613281 C1.275312 256.68217961 1.27596579 257.5782264 1.2766394 258.50142613 C1.29793183 287.52522367 1.33547767 316.54897242 1.3814861 345.57274042 C1.4286945 375.40779921 1.45943775 405.24283101 1.46957495 435.07792651 C1.47101564 439.29555892 1.47264383 443.51319123 1.47438622 447.73082352 C1.47472333 448.56088334 1.47506045 449.39094317 1.47540778 450.24615632 C1.48130772 463.58760576 1.50447461 476.92897157 1.53416017 490.27038695 C1.56366075 503.69528166 1.57482383 517.12009377 1.56750689 530.54501973 C1.56371487 538.51311873 1.57374456 546.48091451 1.60398772 554.44895854 C1.62506799 560.41242682 1.61974038 566.37557367 1.60449447 572.33907206 C1.60239088 574.74180728 1.60865507 577.1445685 1.62441591 579.54725294 C1.71055114 593.496068 0.75489477 605.82141841 -4 619 C-4.2466935 619.68400633 -4.493387 620.36801265 -4.74755605 621.07274644 C-6.09034106 624.74746146 -7.49979032 628.38672904 -9 632 C-9.66 632 -10.32 632 -11 632 C-11.24363281 632.70382812 -11.48726562 633.40765625 -11.73828125 634.1328125 C-19.61708633 652.03697018 -38.25702343 664.91764045 -55.890625 671.859375 C-56.91671875 672.23578125 -57.9428125 672.6121875 -59 673 C-59.81984375 673.31453125 -60.6396875 673.6290625 -61.484375 673.953125 C-74.09664024 678.51500817 -86.76383764 678.27648766 -99.98510742 678.22705078 C-102.10492955 678.22648596 -104.22475207 678.22680461 -106.34457397 678.22793579 C-112.07311338 678.22850753 -117.80156833 678.21678224 -123.53008819 678.20278788 C-129.52650886 678.19025061 -135.52293165 678.18910766 -141.5193634 678.18673706 C-152.86274999 678.18053109 -164.20609783 678.16413222 -175.54946738 678.14403808 C-188.46845555 678.12165159 -201.3874456 678.11067874 -214.30644834 678.10064721 C-240.87098773 678.07976521 -267.43549006 678.0442016 -294 678 C-294 684.27 -294 690.54 -294 697 C-266.35687905 696.91556977 -238.71381517 696.82080389 -211.07077694 696.71247292 C-198.23461527 696.66242694 -185.39845974 696.61598328 -172.56225586 696.578125 C-161.36959631 696.54510483 -150.17698548 696.50521869 -138.98437983 696.45720994 C-133.06221498 696.43204437 -127.14008203 696.41023409 -121.21787834 696.39665604 C-115.63403661 696.38374502 -110.05030486 696.36159472 -104.46652412 696.33261681 C-102.42650168 696.32361124 -100.38646155 696.3178674 -98.34642029 696.31578636 C-71.25751863 696.28322879 -44.701264 692.05877501 -23.1015625 674.37109375 C-22.40804688 673.91863281 -21.71453125 673.46617187 -21 673 C-20.01 673.33 -19.02 673.66 -18 674 C-32.50268914 690.43638102 -59.96454865 698.29632667 -81 700 C-88.10487836 700.33965734 -95.22065104 700.26414241 -102.33154297 700.24291992 C-104.44048115 700.24399501 -106.54941903 700.24593706 -108.65835571 700.24867249 C-114.33920131 700.25348355 -120.0199673 700.24591528 -125.70080328 700.23571944 C-131.65536238 700.22689082 -137.60991934 700.22869722 -143.56448364 700.2290802 C-153.54544395 700.22814661 -163.52637367 700.21949847 -173.50732422 700.20581055 C-185.0586622 700.19002793 -196.60996686 700.18481467 -208.16131485 700.1855461 C-219.28163165 700.18615518 -230.40193759 700.18106462 -241.52225113 700.17275429 C-246.25510874 700.16921758 -250.98796251 700.16739051 -255.72082138 700.16686058 C-261.27768814 700.1658601 -266.83452667 700.15978788 -272.39138412 700.14969444 C-274.43569771 700.14676176 -276.48001454 700.14554562 -278.52433014 700.14612198 C-281.3017222 700.14660895 -284.07903388 700.14099426 -286.85641479 700.13371277 C-288.08569224 700.13603567 -288.08569224 700.13603567 -289.33980358 700.1384055 C-294.88581983 700.11418017 -294.88581983 700.11418017 -296 699 C-296.09932153 697.30441274 -296.13080007 695.60474253 -296.1328125 693.90625 C-296.13474609 692.36130859 -296.13474609 692.36130859 -296.13671875 690.78515625 C-296.13285156 689.70105469 -296.12898437 688.61695313 -296.125 687.5 C-296.12886719 686.41589844 -296.13273438 685.33179688 -296.13671875 684.21484375 C-296.13542969 683.18488281 -296.13414062 682.15492188 -296.1328125 681.09375 C-296.13168457 680.14177734 -296.13055664 679.18980469 -296.12939453 678.20898438 C-296 676 -296 676 -295 675 C-292.25434382 674.89636474 -289.53353666 674.85841988 -286.78721619 674.86196899 C-285.9156035 674.85914771 -285.04399082 674.85632643 -284.14596564 674.85341966 C-281.20138691 674.84503276 -278.25684558 674.84373187 -275.31225586 674.84228516 C-273.2100158 674.83761954 -271.10777675 674.8324764 -269.00553894 674.82688904 C-264.46402518 674.81558206 -259.92251809 674.80716009 -255.3809948 674.80076981 C-248.18923872 674.7901032 -240.99752994 674.76985813 -233.80580139 674.74765015 C-213.34964179 674.68569318 -192.89348379 674.6318248 -172.43725586 674.59863281 C-161.15008001 674.58023766 -149.86298227 674.55123286 -138.5758639 674.5106281 C-132.60503448 674.48962512 -126.63430328 674.47411051 -120.66343498 674.47182083 C-115.03358175 674.46965974 -109.40393233 674.45364247 -103.77414131 674.42743111 C-101.71841178 674.42028963 -99.66265742 674.41811182 -97.60691833 674.42153358 C-69.36479218 674.46099799 -46.68439575 668.36887107 -26 648 C-10.8641652 632.89209109 -3.7845383 614.05755197 -2 593 C-1.34 593 -0.68 593 0 593 C0 397.31 0 201.62 0 0 Z " fill="#04399F" transform="translate(936,244)"/>
<path d="M0 0 C7.12692964 3.56902405 13.19179522 8.66588697 19.26953125 13.7578125 C21.8500681 15.87687996 24.47885499 17.86097998 27.1875 19.8125 C28.52361328 20.77736328 28.52361328 20.77736328 29.88671875 21.76171875 C31.58720625 22.98427752 33.28863735 24.20554371 34.99462891 25.42041016 C37.17197702 26.97664784 39.33639658 28.5497257 41.5 30.125 C42.19504639 30.61589111 42.89009277 31.10678223 43.60620117 31.61254883 C47.70590209 34.61946619 50.21829874 37.07017997 52 42 C52.16907699 47.24138659 51.38224293 50.00503642 48.0625 54.0625 C44.69321379 57.57443744 41.01833374 60.27871002 36.98046875 62.97265625 C33.35927066 65.43583031 29.86982277 68.04941265 26.375 70.6875 C25.70267334 71.1935376 25.03034668 71.6995752 24.33764648 72.22094727 C22.22403891 73.81256574 20.11186368 75.4060685 18 77 C15.04312968 79.23111638 12.08454464 81.4599328 9.125 83.6875 C8.44099121 84.20465576 7.75698242 84.72181152 7.05224609 85.25463867 C1.82218401 89.19082251 -1.36908908 90.76071636 -8 90 C-11 88.5 -11 88.5 -13 87 C-12.67 85.68 -12.34 84.36 -12 83 C-11.39091797 83.72896484 -11.39091797 83.72896484 -10.76953125 84.47265625 C-8.59166883 86.35244479 -7.53026429 86.43259022 -4.6875 86.4375 C-3.57955078 86.46650391 -3.57955078 86.46650391 -2.44921875 86.49609375 C0.96106675 85.80533417 3.27249499 84.05106901 6 82 C7.12281372 81.15876587 7.12281372 81.15876587 8.26831055 80.30053711 C10.91780816 78.29618358 13.55371297 76.27494728 16.1875 74.25 C27.47574322 65.60327355 27.47574322 65.60327355 33.1875 61.5 C34.3940625 60.61441406 34.3940625 60.61441406 35.625 59.7109375 C37.34811533 58.46961429 39.10282379 57.27177668 40.875 56.1015625 C45.90566572 52.64912662 45.90566572 52.64912662 48.90234375 47.51953125 C49.15038594 44.64311221 48.86908195 42.75120422 48 40 C46.4801573 38.14867681 46.4801573 38.14867681 44.48828125 36.60546875 C43.76479492 36.00839111 43.04130859 35.41131348 42.29589844 34.79614258 C38.60638997 31.90974171 34.8595862 29.11804423 31.0625 26.375 C23.79690987 21.08108877 16.61621199 15.69410357 9.51977539 10.17529297 C3.35037218 5.13303549 3.35037218 5.13303549 -4 2.5625 C-7.97833495 3.14267385 -9.45237312 3.8529315 -12 7 C-13.15869655 10.62580887 -13.19169245 13.37704215 -12 17 C-8.75879495 20.61741636 -4.99542778 23.26656186 -1 26 C0.56821587 27.11701846 2.13159649 28.24089439 3.6875 29.375 C4.65236328 30.03628906 4.65236328 30.03628906 5.63671875 30.7109375 C6.31154297 31.34902344 6.31154297 31.34902344 7 32 C7 32.99 7 33.98 7 35 C6.02007835 35.00331015 5.04015671 35.00662029 4.03054047 35.01003075 C-19.86743364 35.0912024 -43.76534476 35.18357143 -67.6632309 35.28752708 C-79.22029817 35.33754387 -90.77735873 35.38398763 -102.33447266 35.421875 C-112.41342745 35.45492579 -122.49232847 35.49482829 -132.57122374 35.54279006 C-137.90264853 35.56792554 -143.23403825 35.58974431 -148.56550598 35.60334396 C-153.59533296 35.61628281 -158.62503885 35.63846149 -163.65479851 35.66738319 C-165.48960488 35.67636745 -167.3244307 35.68212746 -169.15925789 35.68421364 C-183.65550029 35.70362781 -198.05792096 36.2302787 -212 40.625 C-212.83466797 40.88369873 -213.66933594 41.14239746 -214.52929688 41.40893555 C-226.85469622 45.3949772 -237.56289082 51.10781427 -247.64453125 59.21484375 C-250 61 -250 61 -253 62 C-253.33 62.99 -253.66 63.98 -254 65 C-255.10500414 66.13953552 -256.21677841 67.27303119 -257.35546875 68.37890625 C-268.83858703 79.69836964 -277.13704323 92.99928179 -283 108 C-283.66 107.01 -284.32 106.02 -285 105 C-284.17596613 102.33867578 -283.2816343 100.01410554 -282.125 97.5 C-281.80273438 96.78384521 -281.48046875 96.06769043 -281.1484375 95.32983398 C-278.17242888 88.94930012 -274.40343419 83.48681879 -270 78 C-269.11828125 76.81664062 -269.11828125 76.81664062 -268.21875 75.609375 C-250.44257207 51.85393723 -224.55765616 38.1957128 -195.68597698 33.37485027 C-188.10501357 32.31686421 -180.46740197 32.43061172 -172.82910156 32.45410156 C-170.90498532 32.44533746 -168.98087632 32.43484198 -167.05677795 32.42277527 C-161.90310844 32.39524165 -156.74968053 32.39150326 -151.59594822 32.39249516 C-146.18409049 32.38933759 -140.77233716 32.36366106 -135.36053467 32.34051514 C-125.14369544 32.30016733 -114.92691969 32.27966467 -104.71001315 32.26654124 C-93.06521619 32.25059879 -81.42052616 32.21215317 -69.77579165 32.17194796 C-45.85056379 32.08983983 -21.92533918 32.03556661 2 32 C0.87198975 31.19139526 0.87198975 31.19139526 -0.27880859 30.36645508 C-1.7611499 29.29754028 -1.7611499 29.29754028 -3.2734375 28.20703125 C-4.25231934 27.50296143 -5.23120117 26.7988916 -6.23974609 26.07348633 C-14.33616519 19.99150442 -14.33616519 19.99150442 -16 15 C-16.36795288 10.03263608 -16.2446074 6.89352888 -13 3 C-8.59240082 0.09499145 -5.21938236 -0.85563645 0 0 Z " fill="#002B99" transform="translate(1227,103)"/>
<path d="M0 0 C0.66 0 1.32 0 2 0 C1.67 197.34 1.34 394.68 1 598 C0.34 598.33 -0.32 598.66 -1 599 C-1.01710954 542.00264048 -1.03303129 485.0052807 -1.04234314 428.00791931 C-1.0424812 427.16503432 -1.04261925 426.32214933 -1.04276149 425.45372236 C-1.04575404 407.13783751 -1.04852428 388.82195262 -1.05106533 370.5060677 C-1.05231272 361.52463432 -1.05360927 352.54320095 -1.05493164 343.56176758 C-1.0550624 342.66798241 -1.05519316 341.77419724 -1.05532788 340.85332766 C-1.05959316 311.85623436 -1.06710739 282.859143 -1.07629722 253.86205087 C-1.08571981 224.0766097 -1.09188312 194.2911696 -1.09391499 164.50572696 C-1.09420317 160.30372375 -1.0945288 156.10172054 -1.09487724 151.89971733 C-1.09494467 151.07266077 -1.09501209 150.2456042 -1.09508156 149.39348532 C-1.09626565 136.05243549 -1.10091009 122.71138898 -1.10683203 109.3703405 C-1.11270488 95.97488172 -1.1149716 82.57942625 -1.11350138 69.18396623 C-1.11273782 61.21462908 -1.11479502 53.24530398 -1.12079754 45.27596899 C-1.12496388 39.34179126 -1.12397504 33.40762199 -1.12089889 27.47344332 C-1.12047296 25.06025138 -1.12177074 22.64705846 -1.12488318 20.23386849 C-1.12884299 16.9766368 -1.126766 13.71946601 -1.12304783 10.46223545 C-1.12567484 9.50546389 -1.12830186 8.54869233 -1.13100848 7.56292769 C-1.1141458 1.1141458 -1.1141458 1.1141458 0 0 Z " fill="#01319A" transform="translate(958,238)"/>
<path d="M0 0 C1.93395958 0.00141519 3.86792184 0.00060933 5.80187988 -0.00221252 C10.9825924 -0.00362971 16.16270971 0.02548072 21.34328556 0.06065726 C26.78308546 0.09220811 32.22290347 0.09487391 37.66278076 0.1007843 C47.93287485 0.11623918 58.20269842 0.157153 68.47267413 0.20753175 C80.17783453 0.26368734 91.88300879 0.29097725 103.58827066 0.31600893 C127.63809784 0.36807747 151.68768601 0.45585491 175.73730469 0.56762695 C176.06730469 1.88762695 176.39730469 3.20762695 176.73730469 4.56762695 C175.98839966 5.12691895 175.98839966 5.12691895 175.22436523 5.69750977 C172.95348969 7.39848873 170.68913137 9.10794133 168.42480469 10.81762695 C167.63912109 11.40415039 166.8534375 11.99067383 166.04394531 12.5949707 C164.90795898 13.45541992 164.90795898 13.45541992 163.74902344 14.33325195 C163.05252686 14.85693359 162.35603027 15.38061523 161.63842773 15.92016602 C157.9784808 19.09177535 156.40388074 21.76827935 155.73730469 26.56762695 C155.40730469 26.56762695 155.07730469 26.56762695 154.73730469 26.56762695 C153.67278819 22.84181922 153.47580784 21.1133595 155.17480469 17.56762695 C159.84277347 12.10268789 165.79349769 8.52644775 171.73730469 4.56762695 C147.74498688 4.52080918 123.75267598 4.48559031 99.76032162 4.46400261 C88.61908881 4.45371056 77.47788446 4.43969001 66.33666992 4.41674805 C56.62070033 4.39675056 46.90475137 4.38389548 37.18876177 4.37944996 C32.04904759 4.37685332 26.90939238 4.37079364 21.76969719 4.35616684 C16.92130586 4.34248225 12.0729972 4.33842606 7.22458839 4.34141159 C5.45545882 4.34086625 3.68632617 4.33695414 1.91721344 4.329216 C-18.02968717 4.24632751 -37.94065733 5.72230405 -55.26269531 16.56762695 C-56.20371094 17.10774414 -57.14472656 17.64786133 -58.11425781 18.2043457 C-78.96906762 30.88781182 -90.21875792 51.50523428 -96.26269531 74.56762695 C-96.92269531 74.56762695 -97.58269531 74.56762695 -98.26269531 74.56762695 C-98.26269531 76.54762695 -98.26269531 78.52762695 -98.26269531 80.56762695 C-98.59269531 80.56762695 -98.92269531 80.56762695 -99.26269531 80.56762695 C-99.48483374 75.35073972 -98.80641778 70.93625439 -97.20019531 66.00512695 C-96.8652002 64.96630371 -96.8652002 64.96630371 -96.5234375 63.90649414 C-88.5515867 40.14278652 -72.24646912 21.2128776 -50.01073003 9.69879276 C-34.04571782 1.9288104 -17.53813507 -0.18359362 0 0 Z " fill="#0B3CA7" transform="translate(1057.2626953125,156.432373046875)"/>
<path d="M0 0 C0.33 0 0.66 0 1 0 C1 18.48 1 36.96 1 56 C0.67 56 0.34 56 0 56 C-0.33 236.84 -0.66 417.68 -1 604 C-1.33 604 -1.66 604 -2 604 C-2.03422265 546.7448606 -2.0660657 489.4897202 -2.08468628 432.23457336 C-2.08496239 431.38773527 -2.08523851 430.54089718 -2.08552299 429.66839733 C-2.09150823 411.26614886 -2.09704868 392.86390028 -2.10213066 374.46165155 C-2.10462542 365.43773187 -2.10721852 356.41381222 -2.10986328 347.38989258 C-2.11025556 346.04288031 -2.11025556 346.04288031 -2.11065576 344.66865566 C-2.11918472 315.54003339 -2.13421201 286.41141885 -2.15259444 257.28280127 C-2.17144408 227.35965091 -2.18376727 197.43650483 -2.18782998 167.51334864 C-2.18840632 163.29090503 -2.1890576 159.06846143 -2.18975449 154.84601784 C-2.18988933 154.01494667 -2.19002418 153.1838755 -2.19016311 152.32762035 C-2.19253033 138.92745154 -2.20181664 125.52729595 -2.21366407 112.12713254 C-2.22541612 98.6689055 -2.2299416 85.21069161 -2.22700275 71.75245961 C-2.22547684 63.7479803 -2.22957934 55.74354899 -2.24159509 47.73907832 C-2.24993931 41.77518458 -2.2479437 35.81134294 -2.24179779 29.84744451 C-2.24094714 27.42479481 -2.24353234 25.00214116 -2.24976636 22.57949933 C-2.25770825 19.30464553 -2.25351809 16.03003273 -2.24609566 12.75518322 C-2.25134968 11.79885265 -2.25660371 10.84252208 -2.26201695 9.8572118 C-2.25752237 8.98898618 -2.25302778 8.12076056 -2.24839699 7.22622508 C-2.24870895 6.47673818 -2.24902092 5.72725128 -2.24934233 4.95505266 C-2 3 -2 3 0 0 Z " fill="#2252AA" transform="translate(937,233)"/>
<path d="M0 0 C7.12692964 3.56902405 13.19179522 8.66588697 19.26953125 13.7578125 C21.8500681 15.87687996 24.47885499 17.86097998 27.1875 19.8125 C28.07824219 20.45574219 28.96898437 21.09898438 29.88671875 21.76171875 C31.58720625 22.98427752 33.28863735 24.20554371 34.99462891 25.42041016 C37.17197702 26.97664784 39.33639658 28.5497257 41.5 30.125 C42.19504639 30.61589111 42.89009277 31.10678223 43.60620117 31.61254883 C47.70590209 34.61946619 50.21829874 37.07017997 52 42 C52.16907699 47.24138659 51.38224293 50.00503642 48.0625 54.0625 C44.69321379 57.57443744 41.01833374 60.27871002 36.98046875 62.97265625 C33.35927066 65.43583031 29.86982277 68.04941265 26.375 70.6875 C25.70267334 71.1935376 25.03034668 71.6995752 24.33764648 72.22094727 C22.22403891 73.81256574 20.11186368 75.4060685 18 77 C15.04312968 79.23111638 12.08454464 81.4599328 9.125 83.6875 C8.44099121 84.20465576 7.75698242 84.72181152 7.05224609 85.25463867 C1.82218401 89.19082251 -1.36908908 90.76071636 -8 90 C-11 88.5 -11 88.5 -13 87 C-12.67 85.68 -12.34 84.36 -12 83 C-11.59394531 83.48597656 -11.18789062 83.97195312 -10.76953125 84.47265625 C-8.59166883 86.35244479 -7.53026429 86.43259022 -4.6875 86.4375 C-3.57955078 86.46650391 -3.57955078 86.46650391 -2.44921875 86.49609375 C0.96106675 85.80533417 3.27249499 84.05106901 6 82 C6.74854248 81.43917725 7.49708496 80.87835449 8.26831055 80.30053711 C10.91780816 78.29618358 13.55371297 76.27494728 16.1875 74.25 C27.47574322 65.60327355 27.47574322 65.60327355 33.1875 61.5 C33.991875 60.90960938 34.79625 60.31921875 35.625 59.7109375 C37.34811533 58.46961429 39.10282379 57.27177668 40.875 56.1015625 C45.90566572 52.64912662 45.90566572 52.64912662 48.90234375 47.51953125 C49.15038594 44.64311221 48.86908195 42.75120422 48 40 C46.4801573 38.14867681 46.4801573 38.14867681 44.48828125 36.60546875 C43.40305176 35.70985229 43.40305176 35.70985229 42.29589844 34.79614258 C38.60638997 31.90974171 34.8595862 29.11804423 31.0625 26.375 C23.79690987 21.08108877 16.61621199 15.69410357 9.51977539 10.17529297 C3.35037218 5.13303549 3.35037218 5.13303549 -4 2.5625 C-7.97833495 3.14267385 -9.45237312 3.8529315 -12 7 C-13.15869655 10.62580887 -13.19169245 13.37704215 -12 17 C-8.75750808 20.61885259 -4.9889936 23.25527963 -1 26 C0.56680952 27.18180812 2.12997092 28.36848758 3.6875 29.5625 C4.78975364 30.37759337 5.89309722 31.19123149 7 32 C5 34 5 34 1.875 34.125 C0.92625 34.08375 -0.0225 34.0425 -1 34 C-0.01 33.34 0.98 32.68 2 32 C1.27554687 31.49210937 0.55109375 30.98421875 -0.1953125 30.4609375 C-14.16083916 20.51748252 -14.16083916 20.51748252 -16 15 C-16.36795288 10.03263608 -16.2446074 6.89352888 -13 3 C-8.59240082 0.09499145 -5.21938236 -0.85563645 0 0 Z " fill="#0C3FA6" transform="translate(1227,103)"/>
<path d="M0 0 C64.68 0 129.36 0 196 0 C194.9441312 4.22347521 194.78980268 4.55656743 191.5078125 6.875 C190.80269531 7.38546875 190.09757812 7.8959375 189.37109375 8.421875 C188.62988281 8.94265625 187.88867188 9.4634375 187.125 10 C185.66544995 11.03630619 184.20958209 12.07782193 182.7578125 13.125 C182.1095752 13.58132812 181.46133789 14.03765625 180.79345703 14.5078125 C177.13445463 17.55216625 175.6519759 20.30577355 175 25 C174.67 25 174.34 25 174 25 C172.93548351 21.27419227 172.73850315 19.54573255 174.4375 16 C179.10546878 10.53506094 185.05619301 6.95882079 191 3 C190.03386371 3.00276538 189.06772741 3.00553076 188.07231426 3.00837994 C164.5878862 3.07491375 141.10347034 3.12424641 117.61896801 3.15543652 C106.26213931 3.17091987 94.90537278 3.19203741 83.54858398 3.22631836 C73.6525426 3.2561758 63.75654623 3.27556431 53.86046106 3.28226548 C48.61825859 3.28618395 43.37618494 3.29542328 38.13402367 3.31719017 C33.20356576 3.33749761 28.27329018 3.34384547 23.34279442 3.33932304 C21.52991751 3.34015082 19.71703472 3.34615056 17.90419388 3.35761642 C15.43522618 3.37247089 12.96695326 3.36897972 10.49797058 3.36076355 C9.77521083 3.36950207 9.05245107 3.3782406 8.3077895 3.38724393 C3.97987916 3.34812585 3.23067627 3.23067627 0 0 Z " fill="#09399F" transform="translate(1038,158)"/>
<path d="M0 0 C0.80464839 -0.00085442 1.60929677 -0.00170885 2.43832844 -0.00258917 C5.13144966 -0.00423477 7.82450843 0.00126237 10.5176239 0.00672913 C12.44937132 0.00701122 14.38111885 0.00685283 16.31286621 0.00628662 C21.55621394 0.00599952 26.79953883 0.01188218 32.04288125 0.01886058 C37.52283885 0.02510861 43.00279696 0.02569907 48.48275757 0.02688599 C58.85947453 0.02999502 69.23618096 0.03820265 79.61289328 0.04823548 C91.42656781 0.05940989 103.24024284 0.06491042 115.05392134 0.06993091 C139.35522321 0.08038561 163.65651574 0.09797678 187.95780945 0.12025452 C187.95780945 0.45025452 187.95780945 0.78025452 187.95780945 1.12025452 C123.93780945 1.45025452 59.91780945 1.78025452 -6.04219055 2.12025452 C-5.38219055 2.78025452 -4.72219055 3.44025452 -4.04219055 4.12025452 C-7.41719055 4.30775452 -7.41719055 4.30775452 -11.04219055 4.12025452 C-11.70219055 3.13025452 -12.36219055 2.14025452 -13.04219055 1.12025452 C-8.68896519 0.04689222 -4.45501894 -0.01734718 0 0 Z " fill="#164AA5" transform="translate(1045.0421905517578,156.87974548339844)"/>
<path d="M0 0 C0.66 0 1.32 0 2 0 C3.24815045 5.84011137 2.59612489 9.95548395 0.875 15.625 C0.53529175 16.79554932 0.53529175 16.79554932 0.1887207 17.98974609 C-1.83617769 24.80920741 -4.27179014 31.42907753 -7 38 C-7.66 38 -8.32 38 -9 38 C-9.24363281 38.70382812 -9.48726562 39.40765625 -9.73828125 40.1328125 C-14.75488042 51.53276231 -25.89586619 63.34563371 -37 69 C-39.30078125 68.6875 -39.30078125 68.6875 -41 68 C-40.24976563 67.46632813 -39.49953125 66.93265625 -38.7265625 66.3828125 C-26.55092648 57.51944018 -17.60012897 47.98355365 -10 35 C-9.4946875 34.16855469 -8.989375 33.33710937 -8.46875 32.48046875 C-3.0112614 22.7135608 -1.23572198 10.99792559 0 0 Z " fill="#0B3EA4" transform="translate(934,838)"/>
<path d="M0 0 C0.66 0.33 1.32 0.66 2 1 C-2.23209586 5.50513431 -6.88695859 9.514292 -12 13 C-12.66 13 -13.32 13 -14 13 C-14.33 13.99 -14.66 14.98 -15 16 C-16.10500414 17.13953552 -17.21677841 18.27303119 -18.35546875 19.37890625 C-29.83858703 30.69836964 -38.13704323 43.99928179 -44 59 C-44.66 58.01 -45.32 57.02 -46 56 C-45.17596613 53.33867578 -44.2816343 51.01410554 -43.125 48.5 C-42.80273438 47.78384521 -42.48046875 47.06769043 -42.1484375 46.32983398 C-39.17242888 39.94930012 -35.40343419 34.48681879 -31 29 C-30.4121875 28.21109375 -29.824375 27.4221875 -29.21875 26.609375 C-21.54350985 16.35246317 -11.49857518 5.89620295 0 0 Z " fill="#1045A5" transform="translate(988,152)"/>
<path d="M0 0 C1.66759761 3.33519521 0.08352579 6.61618341 -1 10 C-2.07693721 12.49126077 -3.15668504 14.81168116 -4.4375 17.1875 C-4.78022949 17.82751953 -5.12295898 18.46753906 -5.47607422 19.12695312 C-9.42749108 26.19588961 -14.60634398 32.01072553 -20 38 C-21.1289313 39.41353583 -22.25479737 40.82953687 -23.375 42.25 C-26.04000783 45.04191296 -27.19014618 45.88794548 -31 46 C-25.61449942 39.64787112 -25.61449942 39.64787112 -22.9140625 36.80078125 C-13.72688102 27.04947459 -7.19721439 16.3146847 -2 4 C-1.34424698 2.66126545 -0.6812909 1.32592041 0 0 Z " fill="#0D45A3" transform="translate(950,869)"/>
<path d="M0 0 C-1.05960938 0.22042969 -1.05960938 0.22042969 -2.140625 0.4453125 C-16.86089126 3.66305914 -31.20851039 7.44259811 -44.4453125 14.77734375 C-45.28835938 15.18082031 -46.13140625 15.58429688 -47 16 C-47.66 15.67 -48.32 15.34 -49 15 C-39.38170121 4.35116919 -20.12225937 0.49095941 -6.453125 -1.93359375 C-3.7003564 -2.00811137 -2.31616575 -1.43407459 0 0 Z " fill="#0534A7" transform="translate(1038,138)"/>
<path d="M0 0 C0.66 0.99 1.32 1.98 2 3 C1.39865234 3.57041016 1.39865234 3.57041016 0.78515625 4.15234375 C-9.75158599 15.07137142 -15.14263367 29.59787347 -19 44 C-19.66 44 -20.32 44 -21 44 C-21 45.98 -21 47.96 -21 50 C-21.33 50 -21.66 50 -22 50 C-22.22213842 44.78311277 -21.54372247 40.36862743 -19.9375 35.4375 C-19.60250488 34.39867676 -19.60250488 34.39867676 -19.26074219 33.33886719 C-15.19973541 21.23319936 -9.13260058 9.13260058 0 0 Z " fill="#0E3FA8" transform="translate(980,187)"/>
<path d="M0 0 C0.33 0 0.66 0 1 0 C1.19898225 6.59294507 0.55439326 12.44779909 -0.875 18.875 C-1.04902344 19.71546875 -1.22304688 20.5559375 -1.40234375 21.421875 C-2.22312154 25.22785202 -2.80352516 27.70528774 -5 31 C-5.66 31.33 -6.32 31.66 -7 32 C-6.87955322 31.40646729 -6.75910645 30.81293457 -6.63500977 30.20141602 C-5.71288808 25.62817286 -4.81533735 21.05198544 -3.96484375 16.46484375 C-3.79533203 15.55412109 -3.62582031 14.64339844 -3.45117188 13.70507812 C-3.10228573 11.82533797 -2.75602273 9.94510944 -2.41210938 8.06445312 C-2.24388672 7.16533203 -2.07566406 6.26621094 -1.90234375 5.33984375 C-1.75273193 4.52894287 -1.60312012 3.71804199 -1.44897461 2.88256836 C-1 1 -1 1 0 0 Z " fill="#1648A5" transform="translate(958,836)"/>
<path d="M0 0 C1.32 0.66 2.64 1.32 4 2 C-18.24130435 13.61735624 -18.24130435 13.61735624 -31 13 C-27.63152773 10.75435182 -24.99377596 10.17500611 -21.0625 9.25 C-14.03946527 7.50580081 -5.23064089 5.23064089 0 0 Z " fill="#0839A6" transform="translate(892,906)"/>
<path d="M0 0 C3.45831484 -0.02949232 6.91659654 -0.0469616 10.375 -0.0625 C11.34050781 -0.07087891 12.30601562 -0.07925781 13.30078125 -0.08789062 C19.59824289 -0.10902305 25.74839863 0.23892802 32 1 C32 1.33 32 1.66 32 2 C15.665 2.495 15.665 2.495 -1 3 C-0.67 2.01 -0.34 1.02 0 0 Z " fill="#1043A5" transform="translate(643,941)"/>
<path d="M0 0 C-3.48204999 4.12645535 -7.86956945 4.32575913 -13 5 C-15.36704203 5.12964365 -17.62794153 5.10313298 -20 5 C-19 3 -19 3 -16.5234375 2.1484375 C-10.88957187 0.76443577 -5.80726467 -0.39594986 0 0 Z " fill="#0331A2" transform="translate(1036,159)"/>
<path d="M0 0 C1.37344385 4.39844322 0.24307502 7.92504555 -0.9375 12.25 C-1.13279297 12.99507812 -1.32808594 13.74015625 -1.52929688 14.5078125 C-2.01104198 16.34079386 -2.50439225 18.17071818 -3 20 C-3.33 19.34 -3.66 18.68 -4 18 C-4.66 17.67 -5.32 17.34 -6 17 C-4.68 12.05 -3.36 7.1 -2 2 C-1.34 2 -0.68 2 0 2 C0 1.34 0 0.68 0 0 Z " fill="#0A3BA3" transform="translate(942,212)"/>
<path d="M0 0 C0.66 0.99 1.32 1.98 2 3 C1.52949219 3.51949219 1.05898438 4.03898438 0.57421875 4.57421875 C-2.67440177 8.21294277 -5.69660472 11.66419713 -8 16 C-9 14 -9 14 -8.2890625 11.67578125 C-6.92498212 8.84428107 -5.34482043 6.63153646 -3.375 4.1875 C-2.42753906 3.00220703 -2.42753906 3.00220703 -1.4609375 1.79296875 C-0.97882812 1.20128906 -0.49671875 0.60960937 0 0 Z " fill="#0F48A0" transform="translate(980,187)"/>
<path d="M0 0 C3.2826932 1.49076434 5.93077441 3.38620321 8.75 5.625 C9.94882813 6.57246094 9.94882813 6.57246094 11.171875 7.5390625 C11.77515625 8.02117187 12.3784375 8.50328125 13 9 C12.01 9.33 11.02 9.66 10 10 C7.51953125 8.671875 7.51953125 8.671875 4.8125 6.75 C3.91144531 6.12609375 3.01039062 5.5021875 2.08203125 4.859375 C1.39496094 4.24578125 0.70789062 3.6321875 0 3 C0 2.01 0 1.02 0 0 Z " fill="#1046A2" transform="translate(1236,110)"/>
<path d="M0 0 C-1 2 -1 2 -2.890625 2.66796875 C-10.6991046 4.38738561 -10.6991046 4.38738561 -15 3 C-10.44719878 0.34419929 -5.08408244 -1.69469415 0 0 Z " fill="#04399A" transform="translate(882,937)"/>
<path d="M0 0 C0.7734375 0.7115625 0.7734375 0.7115625 1.5625 1.4375 C4.66782675 3.42809407 7.36632504 3.65060818 11 4 C11 4.99 11 5.98 11 7 C6.4105044 7.32019737 3.61145488 6.97413931 0 4 C0 2.68 0 1.36 0 0 Z " fill="#0F4A9E" transform="translate(1214,186)"/>
<path d="M0 0 C4.29 0 8.58 0 13 0 C9.1533912 3.8466088 3.78091826 3.05641991 -1.375 3.0625 C-3.25004775 3.04653244 -5.12508307 3.02730462 -7 3 C-7 2.67 -7 2.34 -7 2 C-3.535 1.505 -3.535 1.505 0 1 C0 0.67 0 0.34 0 0 Z " fill="#012EA1" transform="translate(857,918)"/>
<path d="M0 0 C0.5878125 0.35449219 1.175625 0.70898438 1.78125 1.07421875 C0.22344668 1.75178757 -1.34025096 2.41581332 -2.90625 3.07421875 C-4.21142578 3.63109375 -4.21142578 3.63109375 -5.54296875 4.19921875 C-8.2759502 5.09292363 -10.36575934 5.23871551 -13.21875 5.07421875 C-9.64798598 2.07477697 -4.68291359 -1.95396218 0 0 Z " fill="#06439D" transform="translate(1017.21875,163.92578125)"/>
<path d="M0 0 C0.33 0.66 0.66 1.32 1 2 C-0.98 4.64 -2.96 7.28 -5 10 C-5.33 8.68 -5.66 7.36 -6 6 C-4.21482174 3.35301155 -2.87978754 1.43989377 0 0 Z " fill="#144AA2" transform="translate(941,890)"/>
<path d="M0 0 C0.33 0.99 0.66 1.98 1 3 C-1.75520215 5.95929119 -4.46627288 8.03681826 -8 10 C-6.34908222 5.70761377 -3.26245434 3.1206085 0 0 Z " fill="#124EA2" transform="translate(916,886)"/>
<path d="M0 0 C0.33 0 0.66 0 1 0 C1.02712066 1.43739513 1.04645067 2.87493863 1.0625 4.3125 C1.07410156 5.11300781 1.08570313 5.91351562 1.09765625 6.73828125 C1 9 1 9 0 12 C-0.99 11.67 -1.98 11.34 -3 11 C-2.01 7.37 -1.02 3.74 0 0 Z " fill="#1746AF" transform="translate(933,848)"/>
<path d="M0 0 C0.66 0 1.32 0 2 0 C1.4739075 3.78786597 0.61896089 6.17152224 -2 9 C-2.66 9 -3.32 9 -4 9 C-2.80100302 5.9168649 -1.52299523 2.93720508 0 0 Z " fill="#0B36B2" transform="translate(944,882)"/>
<path d="M0 0 C0.33 0.66 0.66 1.32 1 2 C0.22265625 4.1640625 0.22265625 4.1640625 -0.9375 6.625 C-1.31777344 7.44226563 -1.69804688 8.25953125 -2.08984375 9.1015625 C-2.39019531 9.72804687 -2.69054687 10.35453125 -3 11 C-3.66 10.01 -4.32 9.02 -5 8 C-2.70833333 1.35416667 -2.70833333 1.35416667 0 0 Z " fill="#0C3AAB" transform="translate(947,200)"/>
<path d="M0 0 C0 3 0 3 -1.75 5.04296875 C-2.4925 5.75066406 -3.235 6.45835937 -4 7.1875 C-4.7425 7.90292969 -5.485 8.61835938 -6.25 9.35546875 C-6.8275 9.89816406 -7.405 10.44085938 -8 11 C-8.33 10.01 -8.66 9.02 -9 8 C-7.18776037 6.18776037 -5.32472605 4.53587775 -3.375 2.875 C-2.74335937 2.33617187 -2.11171875 1.79734375 -1.4609375 1.2421875 C-0.97882812 0.83226562 -0.49671875 0.42234375 0 0 Z " fill="#0738A2" transform="translate(969,169)"/>
<path d="M0 0 C0.99 0 1.98 0 3 0 C3 2.64 3 5.28 3 8 C2.34 8 1.68 8 1 8 C-0.35439668 5.29120665 -0.06501451 2.99066732 0 0 Z " fill="#164BA4" transform="translate(1211,112)"/>
<path d="M0 0 C0.66 0.33 1.32 0.66 2 1 C-0.25 3.5625 -0.25 3.5625 -3 6 C-4.32 5.67 -5.64 5.34 -7 5 C-4.69 3.35 -2.38 1.7 0 0 Z " fill="#0A499D" transform="translate(900,901)"/>
<path d="M0 0 C0.66 0.33 1.32 0.66 2 1 C1.52949219 1.39832031 1.05898437 1.79664063 0.57421875 2.20703125 C-1.31760553 4.3617393 -1.66060789 5.89091882 -2.1875 8.6875 C-2.42533203 9.89986328 -2.42533203 9.89986328 -2.66796875 11.13671875 C-2.77753906 11.75160156 -2.88710937 12.36648437 -3 13 C-3.33 13 -3.66 13 -4 13 C-4.75 10.375 -4.75 10.375 -5 7 C-3.51571399 4.37776138 -2.1352735 2.1352735 0 0 Z " fill="#0E47A6" transform="translate(1216,170)"/>
<path d="M0 0 C0.33 0 0.66 0 1 0 C1 3.3 1 6.6 1 10 C0.01 10.495 0.01 10.495 -1 11 C-2.25 3.375 -2.25 3.375 0 0 Z " fill="#0F43A6" transform="translate(937,233)"/>
<path d="M0 0 C4.75 0.75 4.75 0.75 7 3 C7.33 3.99 7.66 4.98 8 6 C4.63408134 4.55746343 2.48952921 2.66735273 0 0 Z " fill="#0735AA" transform="translate(1247,120)"/>
<path d="M0 0 C0.33 0 0.66 0 1 0 C1 2.97 1 5.94 1 9 C0.67 8.34 0.34 7.68 0 7 C-0.66 7 -1.32 7 -2 7 C-1.34 4.69 -0.68 2.38 0 0 Z " fill="#1246AA" transform="translate(958,836)"/>
<path d="M0 0 C0.99 0.33 1.98 0.66 3 1 C2.67 3.31 2.34 5.62 2 8 C1.67 7.34 1.34 6.68 1 6 C0.34 5.67 -0.32 5.34 -1 5 C-0.67 3.35 -0.34 1.7 0 0 Z " fill="#123EAE" transform="translate(937,224)"/>
<path d="" fill="#00FFFF" transform="translate(0,0)"/>
<path d="" fill="#00FFFF" transform="translate(0,0)"/>
<path d="" fill="#00FFFF" transform="translate(0,0)"/>
</svg>
