<?xml version="1.0" encoding="UTF-8"?>
<svg version="1.1" xmlns="http://www.w3.org/2000/svg" width="1920" height="1080">
<path d="M0 0 C0.83439997 0.00086648 1.66879994 0.00173296 2.52848476 0.0026257 C3.40826455 -0.00034542 4.28804433 -0.00331654 5.19448411 -0.0063777 C8.16670253 -0.01510555 11.13888086 -0.01657644 14.1111111 -0.01806521 C16.23305514 -0.02269092 18.35499835 -0.02771524 20.47694057 -0.03311038 C26.26289479 -0.04627006 32.04883738 -0.05268758 37.83480424 -0.05712104 C41.45230828 -0.06004921 45.06980914 -0.06415378 48.68731159 -0.06862521 C60.01212308 -0.08231652 71.3369273 -0.09197219 82.6617465 -0.0958271 C95.71948924 -0.10029624 108.7771267 -0.1177839 121.83483744 -0.1468277 C131.93184158 -0.1685024 142.02881626 -0.17853465 152.12584341 -0.17986822 C158.15258551 -0.18091315 164.17922886 -0.18675297 170.20594639 -0.20468783 C175.88829266 -0.22126608 181.57046706 -0.22327697 187.25282902 -0.21454883 C189.3279254 -0.21378334 191.40303139 -0.21805588 193.47810405 -0.22800708 C208.72378486 -0.29677046 222.97552406 0.85685289 237.48977321 5.9555676 C238.24008816 6.21418576 238.9904031 6.47280393 239.76345485 6.739259 C256.73314196 12.74696854 271.01066609 22.99677744 283.23977321 36.1430676 C283.23977321 36.8030676 283.23977321 37.4630676 283.23977321 38.1430676 C283.81211696 38.35705197 284.38446071 38.57103635 284.97414821 38.7915051 C296.46692632 45.64754169 303.50595764 66.33021976 307.61477321 78.3930676 C307.85349148 79.08875852 308.09220974 79.78444943 308.33816189 80.5012219 C311.47346809 90.23144344 312.54071402 100.08071556 312.49589962 110.26330495 C312.49929649 111.31974841 312.50269336 112.37619188 312.50619316 113.46464878 C312.5151199 116.98632369 312.50994123 120.50783139 312.50478786 124.02951169 C312.50836065 126.58726822 312.51281213 129.14502364 312.51806444 131.70277727 C312.52807588 137.25448469 312.53078842 142.80615771 312.52864307 148.3578732 C312.52549951 156.61372546 312.53385129 164.86953847 312.54459818 173.12538293 C312.56240038 187.01871685 312.57126569 200.91204265 312.57529873 214.80538678 C312.58092847 233.78320594 312.59960552 252.76099653 312.62173927 271.73880281 C312.63204061 280.58627553 312.64170524 289.43374896 312.65120357 298.28122258 C312.65215508 299.16685551 312.65310659 300.05248843 312.65408694 300.96495872 C312.67657503 322.03392773 312.69282634 343.10290084 312.70803493 364.17187619 C312.70870248 365.0934534 312.70937004 366.01503061 312.71005782 366.9645344 C312.72020378 380.98237863 312.73002459 395.00022308 312.73977321 409.0180676 C312.75016717 423.96321747 312.76068228 438.90836725 312.7715115 453.85351682 C312.77217637 454.77429028 312.77284125 455.69506375 312.77352627 456.64373944 C312.78874493 477.67293841 312.80575078 498.70213388 312.82834285 519.73132634 C312.82976674 521.05772648 312.82976674 521.05772648 312.83121939 522.41092258 C312.84073793 531.23986351 312.85056812 540.06880403 312.86086335 548.89774409 C312.88289652 567.85199998 312.89948461 586.80623833 312.9049889 605.76050668 C312.90908455 619.57817379 312.91999307 633.39582106 312.93796664 647.21347724 C312.94839945 655.41788004 312.95323981 663.62224223 312.95006646 671.82665127 C312.94829887 677.95842189 312.95691023 684.09013733 312.96948218 690.2218944 C312.9729381 692.69821284 312.97304035 695.17453877 312.96940958 697.65085696 C312.9338354 724.54391743 316.43129172 750.83528762 336.0227322 771.09936643 C337.40624998 772.47000541 338.82276159 773.80708454 340.23977321 775.1430676 C341.09184353 775.95259885 341.94391384 776.7621301 342.82180446 777.5961926 C356.75783648 789.88163012 376.92277518 798.48277444 395.59093899 798.41481137 C396.38055416 798.41989821 397.17016934 798.42498505 397.98371226 798.43022603 C400.60215726 798.44476821 403.22041193 798.4454178 405.83889431 798.44604611 C407.7269595 798.45371514 409.6150213 798.46226299 411.50307888 798.47161984 C415.55447804 798.489839 419.6058316 798.50191522 423.65726513 798.50915837 C430.06060174 798.5206736 436.46383722 798.54613993 442.86712307 798.57347226 C452.98865793 798.61505204 463.11019769 798.64750323 473.23177725 798.67594641 C491.37762732 798.72701568 509.52343543 798.78902754 527.66921335 798.86128682 C534.03839147 798.88622678 540.40755608 798.90564945 546.77676505 798.92066896 C550.72986029 798.9308533 554.68293442 798.94499837 558.63601345 798.96014524 C560.47307124 798.96631392 562.3101357 798.97076582 564.14720196 798.97340322 C566.64834374 798.97720015 569.14939188 798.98700212 571.6505093 798.99830747 C572.38269377 798.99792133 573.11487824 798.9975352 573.86925012 798.99713737 C576.93644021 799.01657463 579.30547748 799.16496902 582.23977321 800.1430676 C578.0067477 795.77125436 573.45447834 792.06578053 568.66555446 788.32666135 C565.27531736 785.27490202 564.39431562 783.31317442 563.80227321 778.8305676 C564.35954545 774.13355871 565.80430631 771.3789998 569.23977321 768.1430676 C573.35772949 766.1229381 575.45296529 765.96970314 579.92727321 766.9555676 C585.2971973 769.32405123 589.73886805 773.09155169 594.33498806 776.68017697 C598.12609293 779.59177661 602.0057543 782.38503844 605.86477321 785.2055676 C612.45107953 790.04068371 618.92419925 794.95790765 625.23977321 800.1430676 C626.12149196 800.82627072 627.00321071 801.50947385 627.91164821 802.2133801 C630.64623927 804.47997068 631.45450545 805.68788944 632.23977321 809.1430676 C632.1393564 815.46932667 630.79887029 818.64557049 626.23977321 823.1430676 C623.58760813 825.30920967 620.80492088 827.25806102 617.98977321 829.2055676 C616.37889078 830.34275817 614.76955432 831.48214134 613.16164821 832.62353635 C612.34502712 833.20280881 611.52840603 833.78208127 610.68703884 834.37890744 C606.80719737 837.17576842 603.02428757 840.09423124 599.23977321 843.0180676 C597.17975376 844.59654842 595.11834917 846.17320377 593.05666775 847.74951291 C591.4445777 848.98598294 589.83968432 850.23182333 588.23586696 851.4790051 C583.18317385 855.25888239 579.65365594 857.36048735 573.23977321 857.1430676 C568.65921298 855.37330569 566.4750525 852.44804994 564.23977321 848.1430676 C563.60736805 842.99348268 564.29092361 840.32853155 567.23977321 836.1430676 C569.83352321 833.75634885 569.83352321 833.75634885 572.73977321 831.4555676 C573.69883571 830.68857541 574.65789821 829.92158322 575.64602321 829.13134885 C577.46346077 827.73816253 579.3343876 826.41332467 581.23977321 825.1430676 C580.29077396 825.13975745 579.34177471 825.13644731 578.3640179 825.13303685 C555.21711034 825.05185488 532.07026773 824.95948281 508.92345089 824.85554051 C497.729589 824.8055298 486.53573401 824.75908603 475.341824 824.7211926 C465.5792943 824.68813543 455.81682005 824.64822954 446.05435175 824.60027754 C440.89060112 824.57514831 435.72688662 824.5533278 430.5630917 824.53972363 C425.69085174 824.52677898 420.81873659 824.50459445 415.94656605 824.4756844 C414.16981215 824.46670457 412.39303821 824.46094121 410.61626285 824.45885396 C396.28016465 824.43901782 382.02434301 823.86368181 368.23977321 819.5180676 C366.98559597 819.12893186 366.98559597 819.12893186 365.70608181 818.73193479 C341.57517182 810.92231151 322.0016932 795.58704189 307.23977321 775.1430676 C306.51660915 774.14791135 305.79344509 773.1527551 305.04836696 772.1274426 C300.64388461 765.54226741 297.68639006 758.73230072 294.92727321 751.3305676 C294.60154323 750.46625119 294.27581325 749.60193479 293.94021267 748.71142697 C288.09744371 732.21491207 287.8068048 716.1896464 287.85450405 698.88949704 C287.8504922 696.3406617 287.84516311 693.79182815 287.83863831 691.242998 C287.8274735 685.72315042 287.82545814 680.2034195 287.83169788 674.68356633 C287.84091284 666.47518237 287.8328084 658.26687767 287.82120079 650.05849995 C287.80210873 636.24346703 287.79655265 622.42846055 287.79851764 608.61341596 C287.80036034 594.93355598 287.79512142 581.25372577 287.78083652 567.5738728 C287.77994664 566.72162842 287.77905677 565.86938404 287.77813992 564.99131407 C287.77356969 560.66250048 287.76885261 556.33368706 287.76406509 552.00487371 C287.75436786 543.20382516 287.74563559 534.40277566 287.73720306 525.60172582 C287.73635881 524.72082253 287.73551455 523.83991924 287.73464472 522.93232191 C287.71481521 501.98629785 287.70480804 481.04027065 287.69607204 460.09423947 C287.69568738 459.17827834 287.69530271 458.26231721 287.69490639 457.31859967 C287.69179041 449.8973192 287.68869927 442.47603871 287.68564868 435.0547582 C287.67684701 413.68022214 287.66562554 392.30568772 287.65310329 370.93115354 C287.65256994 370.01538834 287.65203659 369.09962315 287.65148708 368.1561075 C287.63926685 347.24100981 287.62496712 326.32591545 287.60555023 305.41082311 C287.60473537 304.53138768 287.60392051 303.65195226 287.60308096 302.74586728 C287.59491343 293.96532164 287.58647619 285.18477632 287.57759107 276.40423137 C287.55861638 257.55703577 287.54561495 238.70986139 287.54459632 219.86265573 C287.54380259 206.12613361 287.53640004 192.38962937 287.52206659 178.65311454 C287.51380637 170.49756862 287.51118684 162.34206538 287.51661676 154.18651686 C287.52007415 148.09128585 287.51315154 141.99611247 287.50227696 135.90088828 C287.49951429 133.43949318 287.50011405 130.97809146 287.50445806 128.51669864 C287.53888837 110.73933471 287.53888837 110.73933471 285.23977321 93.1430676 C285.03804561 92.09360908 284.83631801 91.04415056 284.62847745 89.96289027 C280.46932756 69.60888323 266.2806106 51.08878746 249.23977321 39.6430676 C233.62266613 30.03919565 216.6908995 24.99831106 198.31841701 24.99157834 C197.44334495 24.98734593 196.56827289 24.98311352 195.6666835 24.97875285 C192.74719726 24.96578142 189.8277383 24.95971492 186.90823025 24.95361447 C184.81032309 24.94566809 182.71241757 24.93727982 180.61451381 24.92848325 C176.10417955 24.91045659 171.59384882 24.89543059 167.08349651 24.88270688 C159.95839029 24.86246867 152.83332465 24.83482153 145.70824856 24.80603147 C129.30598515 24.74088198 112.90369188 24.68533604 96.50139278 24.63004422 C81.45197416 24.57923885 66.4025704 24.52642474 51.35318881 24.46551871 C44.26257678 24.43710665 37.17196974 24.41353467 30.08132905 24.39359403 C25.68365015 24.38025192 21.28599439 24.36283822 16.88833469 24.34428334 C14.84080694 24.3364976 12.79327182 24.33044114 10.74573368 24.32619023 C7.96352512 24.32018562 5.18140775 24.30815876 2.39922756 24.29455686 C1.57814325 24.29426087 0.75705894 24.29396488 -0.08890671 24.29365993 C-5.64613287 24.25716152 -5.64613287 24.25716152 -6.76022679 23.1430676 C-6.85939249 21.52049215 -6.89102455 19.89366929 -6.89303929 18.2680676 C-6.89432835 17.28322385 -6.89561741 16.2983801 -6.89694554 15.2836926 C-6.89307835 14.24728635 -6.88921116 13.2108801 -6.88522679 12.1430676 C-6.89102757 10.58845822 -6.89102757 10.58845822 -6.89694554 9.0024426 C-6.89565647 8.01759885 -6.89436741 7.0327551 -6.89303929 6.0180676 C-6.89191136 5.10798947 -6.89078343 4.19791135 -6.88962132 3.2602551 C-6.62272136 -1.10683251 -3.69678023 0.01889526 0 0 Z " fill="#2C5AAE" transform="translate(646.7602267861366,127.8569324016571)"/>
<path d="M0 0 C0.83439997 0.00086648 1.66879994 0.00173296 2.52848476 0.0026257 C3.40826455 -0.00034542 4.28804433 -0.00331654 5.19448411 -0.0063777 C8.16670253 -0.01510555 11.13888086 -0.01657644 14.1111111 -0.01806521 C16.23305514 -0.02269092 18.35499835 -0.02771524 20.47694057 -0.03311038 C26.26289479 -0.04627006 32.04883738 -0.05268758 37.83480424 -0.05712104 C41.45230828 -0.06004921 45.06980914 -0.06415378 48.68731159 -0.06862521 C60.01212308 -0.08231652 71.3369273 -0.09197219 82.6617465 -0.0958271 C95.71948924 -0.10029624 108.7771267 -0.1177839 121.83483744 -0.1468277 C131.93184158 -0.1685024 142.02881626 -0.17853465 152.12584341 -0.17986822 C158.15258551 -0.18091315 164.17922886 -0.18675297 170.20594639 -0.20468783 C175.88829266 -0.22126608 181.57046706 -0.22327697 187.25282902 -0.21454883 C189.3279254 -0.21378334 191.40303139 -0.21805588 193.47810405 -0.22800708 C208.72378486 -0.29677046 222.97552406 0.85685289 237.48977321 5.9555676 C238.24008816 6.21418576 238.9904031 6.47280393 239.76345485 6.739259 C256.73314196 12.74696854 271.01066609 22.99677744 283.23977321 36.1430676 C283.23977321 36.8030676 283.23977321 37.4630676 283.23977321 38.1430676 C283.81211696 38.35705197 284.38446071 38.57103635 284.97414821 38.7915051 C298.96571765 47.13819997 305.81872675 72.67418825 310.23977321 87.1430676 C308.75477321 88.1330676 308.75477321 88.1330676 307.23977321 89.1430676 C307.05914333 88.56975705 306.87851345 87.9964465 306.69240993 87.40576291 C301.03922935 69.59985109 293.7186142 47.25219834 277.98977321 35.4555676 C277.12352321 34.8058801 277.12352321 34.8058801 276.23977321 34.1430676 C276.23977321 33.4830676 276.23977321 32.8230676 276.23977321 32.1430676 C275.35032009 31.74281369 275.35032009 31.74281369 274.44289821 31.33447385 C272.20158696 30.12241723 270.79399136 28.86370843 268.98977321 27.0805676 C248.13242046 8.47177704 220.80661749 3.52481087 193.90920681 3.59716916 C191.72923214 3.58841313 189.54926387 3.57792037 187.36930507 3.56584287 C181.50893554 3.53821087 175.64877808 3.53457311 169.78835291 3.53556275 C163.64244331 3.53241389 157.49662649 3.50675494 151.35076565 3.48358274 C139.73847058 3.44316954 128.12623147 3.42271666 116.51387697 3.40960884 C103.28270608 3.39368886 90.05162971 3.35525236 76.8205139 3.31501555 C49.62696272 3.23281766 22.43342105 3.17939873 -4.76022679 3.1430676 C-4.76022679 9.4130676 -4.76022679 15.6830676 -4.76022679 22.1430676 C-0.70471028 22.12641301 -0.70471028 22.12641301 3.43273586 22.10942197 C28.94488541 22.00706545 54.45700778 21.9327538 79.9693169 21.88400674 C93.08461684 21.85827831 106.19976563 21.82323051 119.31496853 21.76587033 C130.75263448 21.71587102 142.19019091 21.68373767 153.62796313 21.67262512 C159.67835513 21.66613434 165.72843394 21.65099152 171.77872509 21.61441731 C177.48657168 21.58019641 183.19397939 21.5700669 188.90191883 21.57752919 C190.98425672 21.57616623 193.06661102 21.56639088 195.14885944 21.54704022 C222.03313245 21.3096922 245.51680021 29.4168936 264.98977321 48.5180676 C280.90154535 65.01665686 290.42488237 86.52668628 290.36282104 109.50165486 C290.36397489 110.54861612 290.36512873 111.59557737 290.36631754 112.67426473 C290.3689747 116.19963796 290.36446939 119.72496597 290.36002773 123.25033689 C290.36046362 125.79639235 290.36133884 128.34244777 290.3626169 130.88850296 C290.36438983 136.43285857 290.36304747 141.97720006 290.35897869 147.52155423 C290.35294536 155.76581295 290.35264273 164.0100649 290.35352068 172.25432543 C290.35483487 186.12226447 290.35149204 199.99019876 290.34550327 213.85813642 C290.33958806 227.59090694 290.33573769 241.32367548 290.33465046 255.05644727 C290.33458172 255.91002445 290.33451298 256.76360162 290.33444215 257.64304478 C290.33410383 261.97785869 290.33380244 266.31267261 290.33351528 270.64748652 C290.33141437 301.35809172 290.32467562 332.06869433 290.31521267 362.77929807 C290.30602963 392.61588647 290.29894533 422.45247416 290.29470485 452.28906369 C290.29457333 453.20861298 290.2944418 454.12816226 290.29430629 455.07557668 C290.29298778 464.30999331 290.29171196 473.54440994 290.29046743 482.77882658 C290.28793116 501.59072084 290.2851099 520.40261505 290.28211635 539.21450925 C290.28197906 540.07946669 290.28184177 540.94442412 290.28170032 541.83559239 C290.27249827 599.60475188 290.25663212 657.3739099 290.23977321 715.1430676 C289.90977321 715.1430676 289.57977321 715.1430676 289.23977321 715.1430676 C288.90977321 514.5030676 288.57977321 313.8630676 288.23977321 107.1430676 C287.90977321 107.1430676 287.57977321 107.1430676 287.23977321 107.1430676 C287.07541775 105.83595822 287.07541775 105.83595822 286.90774196 104.5024426 C283.66052569 80.10872036 274.02708966 58.61377924 254.23977321 43.1430676 C237.81491546 31.13925639 218.62844071 24.99902109 198.31841701 24.99157834 C197.44334495 24.98734593 196.56827289 24.98311352 195.6666835 24.97875285 C192.74719726 24.96578142 189.8277383 24.95971492 186.90823025 24.95361447 C184.81032309 24.94566809 182.71241757 24.93727982 180.61451381 24.92848325 C176.10417955 24.91045659 171.59384882 24.89543059 167.08349651 24.88270688 C159.95839029 24.86246867 152.83332465 24.83482153 145.70824856 24.80603147 C129.30598515 24.74088198 112.90369188 24.68533604 96.50139278 24.63004422 C81.45197416 24.57923885 66.4025704 24.52642474 51.35318881 24.46551871 C44.26257678 24.43710665 37.17196974 24.41353467 30.08132905 24.39359403 C25.68365015 24.38025192 21.28599439 24.36283822 16.88833469 24.34428334 C14.84080694 24.3364976 12.79327182 24.33044114 10.74573368 24.32619023 C7.96352512 24.32018562 5.18140775 24.30815876 2.39922756 24.29455686 C1.57814325 24.29426087 0.75705894 24.29396488 -0.08890671 24.29365993 C-5.64613287 24.25716152 -5.64613287 24.25716152 -6.76022679 23.1430676 C-6.85939249 21.52049215 -6.89102455 19.89366929 -6.89303929 18.2680676 C-6.89432835 17.28322385 -6.89561741 16.2983801 -6.89694554 15.2836926 C-6.89307835 14.24728635 -6.88921116 13.2108801 -6.88522679 12.1430676 C-6.89102757 10.58845822 -6.89102757 10.58845822 -6.89694554 9.0024426 C-6.89565647 8.01759885 -6.89436741 7.0327551 -6.89303929 6.0180676 C-6.89191136 5.10798947 -6.89078343 4.19791135 -6.88962132 3.2602551 C-6.62272136 -1.10683251 -3.69678023 0.01889526 0 0 Z " fill="#002E9A" transform="translate(646.7602267861366,127.8569324016571)"/>
<path d="M0 0 C1.67259279 2.93223367 2.25049589 5.02886021 2.25365835 8.39498252 C2.25933013 9.27543377 2.26500191 10.15588503 2.27084556 11.06301662 C2.26691003 12.02790423 2.2629745 12.99279183 2.25891972 13.98691845 C2.26261618 15.01803701 2.26631265 16.04915557 2.27012113 17.11152014 C2.28015281 20.59524576 2.27586335 24.07881018 2.27174377 27.56254578 C2.2760274 30.07413685 2.28118946 32.58572655 2.28715843 35.09731418 C2.29816097 40.57302492 2.30294555 46.04868754 2.30232811 51.52440834 C2.30144985 59.66754025 2.31199254 67.81062909 2.32494953 75.95374932 C2.34644529 89.65517003 2.35878512 103.35658464 2.36609077 117.05801964 C2.37339084 130.63894155 2.38523386 144.21984787 2.40299797 157.80076027 C2.40410171 158.64507607 2.40520546 159.48939188 2.40634265 160.35929301 C2.41197879 164.64744146 2.41770665 168.93558978 2.42347669 173.22373805 C2.46428093 203.62091345 2.49657608 234.0180923 2.52319336 264.4152832 C2.5248066 266.25421688 2.52642004 268.09315056 2.52803367 269.93208424 C2.52883281 270.84320343 2.52963196 271.75432261 2.53045533 272.69305147 C2.53449863 277.30208152 2.53854699 281.91111156 2.54260254 286.5201416 C2.54340574 287.43398363 2.54420893 288.34782565 2.54503647 289.28935986 C2.56371434 310.48953953 2.58498711 331.68971632 2.60717773 352.88989258 C2.60812567 353.79742256 2.60907361 354.70495254 2.61005028 355.63998343 C2.63172666 376.37123407 2.6545821 397.10248298 2.67970943 417.83372974 C2.68076529 418.70587072 2.68182114 419.57801169 2.68290898 420.47658118 C2.69241891 428.32371321 2.70197412 436.17084519 2.71177601 444.01797686 C2.73619954 463.57419495 2.75772401 483.13040894 2.77204772 502.68663724 C2.78204506 516.32385302 2.79520238 529.9610623 2.81169481 543.59827181 C2.82135612 551.69312501 2.82822334 559.7879696 2.83109079 567.88282811 C2.83353151 573.93870745 2.84110766 579.99456923 2.85060786 586.05044208 C2.85363487 588.49206085 2.85500964 590.93368239 2.85451955 593.37530299 C2.85283956 606.28830947 3.02839979 619.12021066 4 632 C-0.6249189 625.06262165 -0.29002324 616.18570239 -0.24609566 608.10236931 C-0.24840335 607.04572755 -0.25071103 605.9890858 -0.25308865 604.9004246 C-0.25837481 601.36615932 -0.24941592 597.83207692 -0.24050903 594.29782104 C-0.24138138 591.73593863 -0.2431329 589.17405639 -0.24568737 586.61217511 C-0.24982443 581.04562253 -0.24656513 575.47911281 -0.23841095 569.91256523 C-0.22631984 561.63537519 -0.2257413 553.35821205 -0.22749493 545.08101479 C-0.23012033 531.15614274 -0.223449 517.2312897 -0.21146011 503.30642319 C-0.19962185 489.52113628 -0.19192737 475.73585729 -0.18975449 461.95056534 C-0.18961701 461.09310408 -0.18947953 460.23564282 -0.18933788 459.35219788 C-0.18866121 454.99749967 -0.18805844 450.64280146 -0.18748413 446.28810324 C-0.18328447 415.45215458 -0.169813 384.61621627 -0.15087891 353.78027344 C-0.13250713 323.82552139 -0.11834132 293.87077218 -0.10986328 263.91601562 C-0.10960023 262.99251028 -0.10933718 262.06900493 -0.10906615 261.11751457 C-0.10642909 251.84320624 -0.10387746 242.56889788 -0.10138843 233.29458951 C-0.09631615 214.40213219 -0.09067365 195.50967506 -0.08468628 176.61721802 C-0.0844117 175.74859327 -0.08413712 174.87996853 -0.08385422 173.98502182 C-0.06545613 115.99001022 -0.03372448 57.99500446 0 0 Z " fill="#00319A" transform="translate(957,232)"/>
<path d="M0 0 C2.38552153 2.92971862 4.14193277 6.04707627 5.90454102 9.38085938 C10.63526063 18.26242434 16.1869851 25.62603328 23 33 C23.65484375 33.73605469 24.3096875 34.47210937 24.984375 35.23046875 C28.99898741 39.5281628 33.50197353 42.99897935 38.25 46.4375 C38.85303955 46.87537842 39.4560791 47.31325684 40.07739258 47.7644043 C42.96433308 49.79544806 45.45334331 51.51716307 49 52 C49 52.66 49 53.32 49 54 C49.85335937 54.27070312 50.70671875 54.54140625 51.5859375 54.8203125 C55.02458625 56.00849548 58.29043848 57.42224521 61.625 58.875 C77.39851382 65.32794368 93.67110782 66.59668336 110.53808594 66.54589844 C112.50161038 66.55466175 114.46512773 66.56515696 116.42863464 66.57722473 C121.6897375 66.60476794 126.95060373 66.60849652 132.21176815 66.60750484 C137.7357337 66.61066156 143.25959688 66.63633637 148.7835083 66.65948486 C159.21284336 66.69983906 169.64211622 66.72033686 180.07151723 66.73345876 C191.95814643 66.74939901 203.84467083 66.78784374 215.73123884 66.82805204 C240.15412393 66.91016895 264.57700584 66.96443673 289 67 C289 71 289 71 287.57885742 72.50805664 C286.92763916 72.97074951 286.2764209 73.43344238 285.60546875 73.91015625 C284.89712891 74.42513672 284.18878906 74.94011719 283.45898438 75.47070312 C282.70939453 75.99599609 281.95980469 76.52128906 281.1875 77.0625 C279.72121162 78.11387359 278.25631567 79.16719245 276.79296875 80.22265625 C276.1383667 80.68422119 275.48376465 81.14578613 274.80932617 81.62133789 C271.24352719 84.23541911 271.24352719 84.23541911 269.56640625 88.12109375 C269.56005661 91.88642847 269.5688364 94.29289169 271.5625 97.5625 C275.10124235 99.64945061 276.92590248 99.66788484 281 99 C284.27327143 97.36016147 287.09614661 95.21797391 290 93 C290.92296875 92.29617188 291.8459375 91.59234375 292.796875 90.8671875 C294.36309206 89.66271093 295.92906264 88.45787125 297.48754883 87.2434082 C303.29494218 82.72580704 309.23844495 78.39640077 315.20068359 74.0859375 C321.13208566 69.75947366 326.80304923 65.19695077 332 60 C331.57774693 64.92628585 329.66043803 66.79711672 326 70 C323.05688388 72.41036662 320.03609371 74.70821181 317 77 C316.4440918 77.42168457 315.88818359 77.84336914 315.31542969 78.27783203 C311.30803124 81.31611404 307.28073436 84.32634299 303.24267578 87.32373047 C300.8980527 89.07619967 298.5723367 90.85213221 296.24609375 92.62890625 C294.66462446 93.81585328 293.08260553 95.00206838 291.5 96.1875 C290.40667358 97.03465576 290.40667358 97.03465576 289.29125977 97.89892578 C284.45532264 101.48122432 281.05620146 102.88303474 275 103 C270.41943977 101.23023809 268.23527929 98.30498234 266 94 C265.36759483 88.85041508 266.0511504 86.18546395 269 82 C271.59375 79.61328125 271.59375 79.61328125 274.5 77.3125 C275.4590625 76.54550781 276.418125 75.77851562 277.40625 74.98828125 C279.22368755 73.59509493 281.09461439 72.27025708 283 71 C282.05100075 70.99668985 281.1020015 70.99337971 280.12424469 70.98996925 C256.97733712 70.90878728 233.83049452 70.81641521 210.68367767 70.71247292 C199.48981578 70.6624622 188.29596079 70.61601844 177.10205078 70.578125 C167.33952109 70.54506783 157.57704684 70.50516195 147.81457853 70.45720994 C142.6508279 70.43208071 137.4871134 70.4102602 132.32331848 70.39665604 C127.45107853 70.38371139 122.57896337 70.36152685 117.70679283 70.33261681 C115.93003894 70.32363698 114.153265 70.31787361 112.37648964 70.31578636 C98.04039143 70.29595023 83.78456979 69.72061422 70 65.375 C69.16388184 65.11557617 68.32776367 64.85615234 67.46630859 64.58886719 C39.29909679 55.47295266 17.55265279 36.09671903 2.4609375 10.93359375 C0.56019717 7.11686651 0 4.23647289 0 0 Z " fill="#002E97" transform="translate(945,882)"/>
<path d="M0 0 C0.33 0.66 0.66 1.32 1 2 C1.66 2 2.32 2 3 2 C3.23074219 2.51796143 3.46148438 3.03592285 3.69921875 3.56958008 C14.61894905 27.87730976 28.83196347 44.6090121 53.4921875 55.39453125 C66.63690209 60.30194121 78.3699972 61.58569023 92.28027344 61.5300293 C94.16922716 61.53714331 96.05817495 61.54601377 97.94711304 61.55648804 C103.02898133 61.57990274 108.11059106 61.5793914 113.19250011 61.57457328 C118.52423605 61.5739764 123.85587155 61.59671984 129.18756104 61.61714172 C139.26641918 61.65242855 149.34520538 61.66854848 159.42411828 61.6769169 C174.24396792 61.68992402 189.06375831 61.72816653 203.88354874 61.77101612 C205.51348223 61.77572415 205.51348223 61.77572415 207.17634368 61.78052729 C209.34205003 61.78680688 211.50775619 61.79315044 213.67346215 61.79955989 C220.017565 61.81763047 226.36163236 61.82873246 232.70575857 61.83385694 C236.63917933 61.83768151 240.5725871 61.84529097 244.50600052 61.8536644 C246.33339108 61.85663021 248.16078538 61.85785919 249.98817825 61.85725212 C252.47585351 61.85658763 254.96344644 61.86191585 257.45111084 61.86869812 C258.17920259 61.86694775 258.90729434 61.86519738 259.65744948 61.86339396 C262.71837655 61.87722674 265.07120695 62.02373565 268 63 C263.76697449 58.62818677 259.21470512 54.92271293 254.42578125 51.18359375 C251.03554415 48.13183443 250.15454241 46.17010682 249.5625 41.6875 C250.11977224 36.99049112 251.5645331 34.23593221 255 31 C259.11795628 28.9798705 261.21319207 28.82663554 265.6875 29.8125 C271.05742409 32.18098363 275.49909484 35.94848409 280.09521484 39.53710938 C283.88631972 42.44870902 287.76598109 45.24197084 291.625 48.0625 C298.21130631 52.89761611 304.68442604 57.81484005 311 63 C312.33417969 64.03253906 312.33417969 64.03253906 313.6953125 65.0859375 C316 67 316 67 317 69 C317.04022391 71.3329866 317.04320247 73.66706666 317 76 C315 73 315 73 313.63671875 70.53515625 C311.91493176 67.86823558 310.31862815 66.36562269 307.8125 64.4375 C306.92046875 63.74785156 306.0284375 63.05820312 305.109375 62.34765625 C304.08328125 61.57292969 303.0571875 60.79820312 302 60 C301.43087891 59.56800293 300.86175781 59.13600586 300.27539062 58.69091797 C295.53874947 55.09782282 290.77375399 51.54358261 286 48 C285.15969238 47.37593262 284.31938477 46.75186523 283.45361328 46.10888672 C280.84592553 44.1742441 278.23598384 42.24269141 275.625 40.3125 C274.79814697 39.70003418 273.97129395 39.08756836 273.11938477 38.45654297 C272.35037842 37.8895166 271.58137207 37.32249023 270.7890625 36.73828125 C270.10537598 36.23337158 269.42168945 35.72846191 268.71728516 35.20825195 C265.09720247 32.66122477 262.41004805 32.61982344 258 33 C255.37716666 34.28892287 255.37716666 34.28892287 254 37 C253.3799816 40.13518737 253.15979488 42.90533146 254 46 C258.11441931 50.78768793 263.24234207 54.17858369 268.35546875 57.81640625 C270.81735681 59.84919122 271.94506548 61.04230015 273 64 C273 64.33 273 64.66 273 65 C247.32999047 65.09363436 221.66000672 65.16407263 195.98986053 65.20724869 C184.06951675 65.22783308 172.14927937 65.25587459 160.22900391 65.30175781 C149.83365984 65.34175208 139.43839287 65.36746274 129.042974 65.37635398 C123.54377536 65.38154745 118.0447972 65.39366741 112.54566956 65.42292023 C107.35823519 65.45028859 102.17110987 65.45840213 96.98361015 65.45243073 C95.09072115 65.45352146 93.19782064 65.46134662 91.30499458 65.4768219 C64.48598302 65.68513215 40.84235386 57.03354026 21.234375 38.3671875 C11.85099488 28.49449001 1.14131109 14.07617009 0 0 Z " fill="#053DA7" transform="translate(961,865)"/>
<path d="M0 0 C0.83439997 0.00086648 1.66879994 0.00173296 2.52848476 0.0026257 C3.40826455 -0.00034542 4.28804433 -0.00331654 5.19448411 -0.0063777 C8.16670253 -0.01510555 11.13888086 -0.01657644 14.1111111 -0.01806521 C16.23305514 -0.02269092 18.35499835 -0.02771524 20.47694057 -0.03311038 C26.26289479 -0.04627006 32.04883738 -0.05268758 37.83480424 -0.05712104 C41.45230828 -0.06004921 45.06980914 -0.06415378 48.68731159 -0.06862521 C60.01212308 -0.08231652 71.3369273 -0.09197219 82.6617465 -0.0958271 C95.71948924 -0.10029624 108.7771267 -0.1177839 121.83483744 -0.1468277 C131.93184158 -0.1685024 142.02881626 -0.17853465 152.12584341 -0.17986822 C158.15258551 -0.18091315 164.17922886 -0.18675297 170.20594639 -0.20468783 C175.88829266 -0.22126608 181.57046706 -0.22327697 187.25282902 -0.21454883 C189.3279254 -0.21378334 191.40303139 -0.21805588 193.47810405 -0.22800708 C208.72378486 -0.29677046 222.97552406 0.85685289 237.48977321 5.9555676 C238.24008816 6.21418576 238.9904031 6.47280393 239.76345485 6.739259 C256.73314196 12.74696854 271.01066609 22.99677744 283.23977321 36.1430676 C283.23977321 36.8030676 283.23977321 37.4630676 283.23977321 38.1430676 C283.81211696 38.35705197 284.38446071 38.57103635 284.97414821 38.7915051 C298.96571765 47.13819997 305.81872675 72.67418825 310.23977321 87.1430676 C308.75477321 88.1330676 308.75477321 88.1330676 307.23977321 89.1430676 C307.05914333 88.56975705 306.87851345 87.9964465 306.69240993 87.40576291 C301.03922935 69.59985109 293.7186142 47.25219834 277.98977321 35.4555676 C277.12352321 34.8058801 277.12352321 34.8058801 276.23977321 34.1430676 C276.23977321 33.4830676 276.23977321 32.8230676 276.23977321 32.1430676 C275.35032009 31.74281369 275.35032009 31.74281369 274.44289821 31.33447385 C272.20158696 30.12241723 270.79399136 28.86370843 268.98977321 27.0805676 C248.13242046 8.47177704 220.80661749 3.52481087 193.90920681 3.59716916 C191.72923214 3.58841313 189.54926387 3.57792037 187.36930507 3.56584287 C181.50893554 3.53821087 175.64877808 3.53457311 169.78835291 3.53556275 C163.64244331 3.53241389 157.49662649 3.50675494 151.35076565 3.48358274 C139.73847058 3.44316954 128.12623147 3.42271666 116.51387697 3.40960884 C103.28270608 3.39368886 90.05162971 3.35525236 76.8205139 3.31501555 C49.62696272 3.23281766 22.43342105 3.17939873 -4.76022679 3.1430676 C-4.76022679 9.7430676 -4.76022679 16.3430676 -4.76022679 23.1430676 C3.15977321 23.1430676 11.07977321 23.1430676 19.23977321 23.1430676 C19.23977321 23.4730676 19.23977321 23.8030676 19.23977321 24.1430676 C15.09395435 24.17193511 10.94816105 24.18982087 6.80227321 24.2055676 C5.02626735 24.21813596 5.02626735 24.21813596 3.21438259 24.23095822 C2.08967556 24.23418088 0.96496853 24.23740354 -0.19382054 24.24072385 C-1.75701023 24.24857907 -1.75701023 24.24857907 -3.35177952 24.25659299 C-5.76022679 24.1430676 -5.76022679 24.1430676 -6.76022679 23.1430676 C-6.85939249 21.52049215 -6.89102455 19.89366929 -6.89303929 18.2680676 C-6.89432835 17.28322385 -6.89561741 16.2983801 -6.89694554 15.2836926 C-6.89307835 14.24728635 -6.88921116 13.2108801 -6.88522679 12.1430676 C-6.89102757 10.58845822 -6.89102757 10.58845822 -6.89694554 9.0024426 C-6.89565647 8.01759885 -6.89436741 7.0327551 -6.89303929 6.0180676 C-6.89191136 5.10798947 -6.89078343 4.19791135 -6.88962132 3.2602551 C-6.62272136 -1.10683251 -3.69678023 0.01889526 0 0 Z " fill="#103FA2" transform="translate(646.7602267861366,127.8569324016571)"/>
<path d="M0 0 C0.33 0 0.66 0 1 0 C1.00173625 1.29247774 1.0034725 2.58495548 1.00526136 3.91659921 C1.08180533 60.84781038 1.15957873 117.77901976 1.2436676 174.71022034 C1.24493928 175.57143192 1.24621096 176.4326435 1.24752118 177.3199524 C1.2751622 196.03406921 1.30302517 214.74818568 1.33111694 233.46230182 C1.34489075 242.6390117 1.3586155 251.81572165 1.37231445 260.99243164 C1.37367854 261.90564977 1.37504262 262.81886789 1.37644804 263.7597593 C1.4206801 293.38737165 1.46166853 323.01498741 1.50098413 352.64260666 C1.54138563 383.07569089 1.58504103 413.50876876 1.63282111 443.94184235 C1.63956018 448.23520038 1.64626185 452.52855846 1.65294075 456.82191658 C1.65425648 457.6669541 1.65557221 458.51199162 1.6569278 459.38263634 C1.67805522 473.0137896 1.69572795 486.64494528 1.71212531 500.27610497 C1.72866263 513.96282363 1.74880008 527.64953318 1.77266841 541.33624106 C1.78675746 549.4788721 1.79803028 557.62149599 1.80536438 565.76413598 C1.81112831 571.82732638 1.82203879 577.89049556 1.8350333 583.95367528 C1.83949403 586.4193539 1.8422338 588.8850363 1.84316199 591.35071879 C1.84465564 594.67875307 1.8521758 598.00671809 1.8613348 601.33473873 C1.86031213 602.31236678 1.85928946 603.28999483 1.85823581 604.29724798 C1.86375687 605.61434578 1.86375687 605.61434578 1.86938947 606.95805162 C1.87048134 607.72032893 1.8715732 608.48260624 1.87269815 609.26798287 C1.81260654 611.03039741 1.81260654 611.03039741 3 612 C3.24955048 613.47745867 3.44365998 614.96437109 3.61328125 616.453125 C3.72502686 617.37706055 3.83677246 618.30099609 3.9519043 619.25292969 C4.13039917 620.73647949 4.13039917 620.73647949 4.3125 622.25 C5.30162475 630.06945778 6.6255188 637.28051072 9.23046875 644.734375 C10 647 10 647 10 649 C9.01 648.67 8.02 648.34 7 648 C5.98242831 645.54514605 5.17783615 643.226129 4.4375 640.6875 C4.22931641 640.02943359 4.02113281 639.37136719 3.80664062 638.69335938 C0.83718226 628.89135416 -0.30180059 619.05250236 -0.24609566 608.84065628 C-0.24840335 607.78001846 -0.25071103 606.71938065 -0.25308865 605.62660229 C-0.25836079 602.0907864 -0.24942772 598.55515455 -0.24050903 595.01934814 C-0.24138167 592.45161482 -0.24313372 589.88388167 -0.24568737 587.31614947 C-0.2498196 581.74300999 -0.24657345 576.16991336 -0.23841095 570.59677887 C-0.22630759 562.30982627 -0.22574243 554.02290051 -0.22749493 545.73594068 C-0.23011885 531.79387466 -0.22345467 517.85182764 -0.21146011 503.90976715 C-0.19961794 490.10938676 -0.19192658 476.30901428 -0.18975449 462.50862885 C-0.18961701 461.64991872 -0.18947953 460.79120859 -0.18933788 459.90647694 C-0.1886612 455.54535661 -0.18805844 451.18423627 -0.18748413 446.82311592 C-0.18328555 415.94945471 -0.1698171 385.07580383 -0.15087891 354.20214844 C-0.13250427 324.21256566 -0.11833987 294.22298572 -0.10986328 264.23339844 C-0.10960023 263.30866209 -0.10933718 262.38392573 -0.10906615 261.43116707 C-0.10642907 252.14441458 -0.10387745 242.85766206 -0.10138843 233.57090952 C-0.09631628 214.65345369 -0.09067378 195.73599804 -0.08468628 176.81854248 C-0.0844117 175.94878683 -0.08413712 175.07903117 -0.08385422 174.18291929 C-0.06545913 116.12194187 -0.0337278 58.06097029 0 0 Z " fill="#2152AA" transform="translate(935,232)"/>
<path d="M0 0 C0.75 1.6875 0.75 1.6875 1 4 C-2.15604796 8.86382988 -6.51006411 11.74824816 -11.1875 15 C-17.55604383 19.50651033 -23.82542186 24.1060734 -30 28.875 C-32.06004579 30.4534462 -34.12142416 32.03013626 -36.18310547 33.60644531 C-37.79519552 34.84291535 -39.4000889 36.08875573 -41.00390625 37.3359375 C-46.05659937 41.11581479 -49.58611727 43.21741975 -56 43 C-60.58056023 41.23023809 -62.76472071 38.30498234 -65 34 C-65.63233636 28.85097533 -64.94587948 26.18658466 -62 22 C-59.4765625 19.68359375 -59.4765625 19.68359375 -56.625 17.4375 C-55.22121094 16.32181641 -55.22121094 16.32181641 -53.7890625 15.18359375 C-52.40847656 14.10271484 -52.40847656 14.10271484 -51 13 C-50.14148437 12.24847656 -49.28296875 11.49695313 -48.3984375 10.72265625 C-46 9 -46 9 -42 9 C-42 9.66 -42 10.32 -42 11 C-43.42114258 12.28100586 -43.42114258 12.28100586 -45.39453125 13.71484375 C-46.10287109 14.23626953 -46.81121094 14.75769531 -47.54101562 15.29492188 C-48.29060547 15.83697266 -49.04019531 16.37902344 -49.8125 16.9375 C-51.2789479 18.00691834 -52.74384948 19.07846102 -54.20703125 20.15234375 C-54.8616333 20.62663818 -55.51623535 21.10093262 -56.19067383 21.58959961 C-59.74603683 24.23315032 -59.74603683 24.23315032 -61.43359375 28.12109375 C-61.43994339 31.88642847 -61.4311636 34.29289169 -59.4375 37.5625 C-55.89875765 39.64945061 -54.07409752 39.66788484 -50 39 C-46.72672857 37.36016147 -43.90385339 35.21797391 -41 33 C-40.07703125 32.29617188 -39.1540625 31.59234375 -38.203125 30.8671875 C-36.63690794 29.66271093 -35.07093736 28.45787125 -33.51245117 27.2434082 C-27.70505782 22.72580704 -21.76155505 18.39640077 -15.79931641 14.0859375 C-6.75473261 8.09639303 -6.75473261 8.09639303 0 0 Z " fill="#0B3DA7" transform="translate(1276,942)"/>
<path d="M0 0 C2.38552153 2.92971862 4.14193277 6.04707627 5.90454102 9.38085938 C10.63526063 18.26242434 16.1869851 25.62603328 23 33 C23.65484375 33.73605469 24.3096875 34.47210937 24.984375 35.23046875 C28.99898741 39.5281628 33.50197353 42.99897935 38.25 46.4375 C38.85303955 46.87537842 39.4560791 47.31325684 40.07739258 47.7644043 C42.96433308 49.79544806 45.45334331 51.51716307 49 52 C49 52.66 49 53.32 49 54 C49.85335937 54.27070312 50.70671875 54.54140625 51.5859375 54.8203125 C55.02458625 56.00849548 58.29043848 57.42224521 61.625 58.875 C68.69577754 61.85441306 75.82890509 63.38236255 83.38525391 64.61865234 C84.20171387 64.75867676 85.01817383 64.89870117 85.859375 65.04296875 C86.58608398 65.15664795 87.31279297 65.27032715 88.06152344 65.38745117 C90.37688869 66.11909493 91.43199194 67.18062951 93 69 C66.55224607 68.90347535 41.40041024 55.22115437 22.43359375 37.53125 C13.2958463 28.02681927 0 13.74705606 0 0 Z " fill="#0B38AE" transform="translate(945,882)"/>
<path d="M0 0 C2 0.66666667 4 1.33333333 6 2 C6.94359375 2.28359375 7.8871875 2.5671875 8.859375 2.859375 C27.86730036 9.76275088 40.89788794 28.5244622 49.203125 45.96484375 C52.86987188 53.9825174 56.91142178 64.00178138 56 73 C54.50390625 75.27734375 54.50390625 75.27734375 53 77 C52.89042969 76.12859375 52.78085937 75.2571875 52.66796875 74.359375 C49.42980382 50.0336482 39.81851876 28.37643697 20 13 C13.58264955 8.57620516 6.8667961 4.67924631 0 1 C0 0.67 0 0.34 0 0 Z " fill="#0B40A6" transform="translate(881,158)"/>
<path d="M0 0 C0.33 0.66 0.66 1.32 1 2 C1.66 2 2.32 2 3 2 C3.23074219 2.51796143 3.46148438 3.03592285 3.69921875 3.56958008 C14.28129613 27.12568167 27.94135431 44.1926174 52 55 C51.505 55.99 51.505 55.99 51 57 C42.39582052 54.47033795 35.93238922 50.6445143 29 45 C28.14277344 44.30777344 27.28554688 43.61554687 26.40234375 42.90234375 C14.04931314 32.38222031 2.31031144 16.46096901 0 0 Z " fill="#1147A4" transform="translate(961,865)"/>
<path d="M0 0 C18.27050377 2.5814841 37.19165842 7.78543998 52.12890625 19.06640625 C52.12890625 20.05640625 52.12890625 21.04640625 52.12890625 22.06640625 C48.34618113 20.69287305 44.955472 18.90146449 41.45727539 16.94360352 C26.55878746 8.66440045 11.11248763 4.43954687 -5.87109375 3.06640625 C-4.01729492 0.48692104 -3.23654978 0.07485897 0 0 Z " fill="#0735AA" transform="translate(858.87109375,127.93359375)"/>
<path d="M0 0 C2.92875295 3.60319764 4.99227054 7.55798359 7.1875 11.625 C10.4829832 17.65667896 14.04926429 22.94563707 18.6640625 28.08203125 C19.10492187 28.71496094 19.54578125 29.34789062 20 30 C19.67 30.99 19.34 31.98 19 33 C14.10044816 27.95359511 9.91907256 22.6553468 6.125 16.75 C5.7441626 16.16009277 5.3633252 15.57018555 4.97094727 14.96240234 C1.82048909 9.95927401 -0.34173781 5.98041176 0 0 Z " fill="#0F42A8" transform="translate(945,882)"/>
<path d="M0 0 C0.66 0.33 1.32 0.66 2 1 C2.43896484 2.92675781 2.43896484 2.92675781 2.7109375 5.453125 C2.81946045 6.37706055 2.9279834 7.30099609 3.03979492 8.25292969 C3.1504126 9.24196289 3.26103027 10.23099609 3.375 11.25 C4.33073977 19.08592604 5.62126201 26.26833026 8.23046875 33.734375 C9 36 9 36 9 38 C8.01 37.67 7.02 37.34 6 37 C4.97569284 34.58360774 4.17220484 32.3178839 3.4375 29.8125 C3.22206543 29.10013184 3.00663086 28.38776367 2.78466797 27.65380859 C-2.39965913 9.79931825 -2.39965913 9.79931825 0 5 C0.0396713 3.33380554 0.04384447 1.66608987 0 0 Z " fill="#1244A8" transform="translate(936,843)"/>
<path d="M0 0 C0.33 0 0.66 0 1 0 C1.02505615 0.97122803 1.0501123 1.94245605 1.07592773 2.94311523 C1.17193213 6.63541244 1.27163585 10.32760294 1.37231445 14.01977539 C1.41495018 15.60112977 1.45665493 17.18250959 1.49731445 18.76391602 C1.78344861 29.85956268 2.28122717 40.92384292 3 52 C-3.24176127 42.63735809 -1.01528642 29.59048766 -0.625 18.875 C-0.56665594 17.04169986 -0.5093552 15.2083662 -0.453125 13.375 C-0.31412006 8.91618894 -0.16096642 4.45807005 0 0 Z " fill="#0139A7" transform="translate(958,812)"/>
<path d="M0 0 C1.52367187 0.39832031 1.52367187 0.39832031 3.078125 0.8046875 C4.46842427 1.16272557 5.85907502 1.51940047 7.25 1.875 C8.33414185 2.15234985 8.33414185 2.15234985 9.44018555 2.43530273 C14.80744564 3.77696967 20.14907824 4.73554202 25.64453125 5.41015625 C28.29033957 6.07270527 29.29811395 6.91363471 31 9 C23.23002246 8.85135695 16.19640871 7.76685821 8.75 5.625 C7.99920166 5.41593018 7.24840332 5.20686035 6.47485352 4.99145508 C4.359375 4.3515625 4.359375 4.3515625 1 3 C0.67 2.01 0.34 1.02 0 0 Z " fill="#0335A0" transform="translate(1007,942)"/>
<path d="M0 0 C-0.33 0.66 -0.66 1.32 -1 2 C-4.63313422 3.21104474 -7.96954476 3.14569592 -11.75 3.125 C-12.78640625 3.13080078 -12.78640625 3.13080078 -13.84375 3.13671875 C-18.32653965 3.12829245 -22.5767176 2.72949422 -27 2 C-27 1.67 -27 1.34 -27 1 C-17.97746114 0.16069406 -9.0598059 -0.12224626 0 0 Z " fill="#00219F" transform="translate(1234,949)"/>
<path d="M0 0 C0.67224609 0.11601562 1.34449219 0.23203125 2.03710938 0.3515625 C3.03967773 0.50238281 3.03967773 0.50238281 4.0625 0.65625 C7.28343957 1.15423471 10.45703575 1.73353705 13.59960938 2.6015625 C13.59960938 3.2615625 13.59960938 3.9215625 13.59960938 4.6015625 C14.25960937 4.9315625 14.91960938 5.2615625 15.59960938 5.6015625 C7.57846151 4.75723115 -0.40900643 3.68603229 -8.40039062 2.6015625 C-6.07310756 -0.87618879 -3.92350883 -0.57664281 0 0 Z " fill="#03359E" transform="translate(861.400390625,128.3984375)"/>
<path d="M0 0 C1.98 0 3.96 0 6 0 C6 0.66 6 1.32 6 2 C6.845625 2.268125 7.69125 2.53625 8.5625 2.8125 C12.17859137 4.0616952 15.5632136 5.31530078 19 7 C19.33 7.99 19.66 8.98 20 10 C15.07544621 9.45448797 11.51599858 7.9419375 7.1875 5.5625 C6.04667969 4.94503906 4.90585937 4.32757812 3.73046875 3.69140625 C1 2 1 2 0 0 Z " fill="#0C42A3" transform="translate(988,934)"/>
<path d="M0 0 C0.33 0.66 0.66 1.32 1 2 C1.66 2 2.32 2 3 2 C4.20183475 4.57750095 5.38656886 7.16071162 6.5625 9.75 C6.90474609 10.47960937 7.24699219 11.20921875 7.59960938 11.9609375 C7.91865234 12.66992188 8.23769531 13.37890625 8.56640625 14.109375 C9.01415405 15.08342285 9.01415405 15.08342285 9.47094727 16.07714844 C10.10866223 18.39493481 9.75542816 19.74904303 9 22 C7.677356 19.46317484 6.36682639 16.92122349 5.0625 14.375 C4.68931641 13.66214844 4.31613281 12.94929687 3.93164062 12.21484375 C1.85216012 8.13081898 0.46005679 4.6297779 0 0 Z " fill="#1039B4" transform="translate(961,865)"/>
<path d="M0 0 C0 0.66 0 1.32 0 2 C-0.680625 1.835 -1.36125 1.67 -2.0625 1.5 C-8.8398639 0.34143292 -8.8398639 0.34143292 -14.9375 3 C-15.618125 3.66 -16.29875 4.32 -17 5 C-16.9375 2.6875 -16.9375 2.6875 -16 0 C-10.06405987 -3.95729342 -6.28391298 -2.77860098 0 0 Z " fill="#0234A3" transform="translate(1231,897)"/>
<path d="M0 0 C0.33 0.99 0.66 1.98 1 3 C1.66 3 2.32 3 3 3 C4.03590199 8.05002222 4.10251672 12.87416389 4 18 C3.01 18.33 2.02 18.66 1 19 C0.67 12.73 0.34 6.46 0 0 Z " fill="#1649A7" transform="translate(955,218)"/>
<path d="M0 0 C2.14909962 2.76854598 4.01778828 5.57834526 5.75 8.625 C6.19859375 9.40101563 6.6471875 10.17703125 7.109375 10.9765625 C7.40328125 11.64429688 7.6971875 12.31203125 8 13 C7.67 13.66 7.34 14.32 7 15 C1.88984636 10.13318701 0.58342504 7.0011005 0 0 Z " fill="#0C39AC" transform="translate(945,882)"/>
<path d="M0 0 C2.42381048 2.42381048 2.44016497 3.52894921 2.8125 6.875 C2.92207031 7.73867187 3.03164063 8.60234375 3.14453125 9.4921875 C2.96851602 12.54628953 2.01473912 13.76140097 0 16 C-0.19672365 14.27185839 -0.38196799 12.54240803 -0.5625 10.8125 C-0.71912109 9.36810547 -0.71912109 9.36810547 -0.87890625 7.89453125 C-0.99758751 5.05766623 -0.67765639 2.74576329 0 0 Z " fill="#0537AA" transform="translate(934,219)"/>
<path d="M0 0 C2.18994248 3.28491373 2.35277339 4.83095639 2.625 8.6875 C2.69976563 9.68136719 2.77453125 10.67523437 2.8515625 11.69921875 C2.92503906 12.83810547 2.92503906 12.83810547 3 14 C-0.0390862 11.09304798 -0.96910803 9.86497512 -1.125 5.5 C-1 2 -1 2 0 0 Z " fill="#174CA4" transform="translate(1212,967)"/>
<path d="M0 0 C1.73169596 3.1622274 2.7128976 6.26742722 3.625 9.75 C3.88539063 10.73484375 4.14578125 11.7196875 4.4140625 12.734375 C4.60742188 13.48203125 4.80078125 14.2296875 5 15 C2 14 2 14 1.015625 12.109375 C-1.52201258 4.28930818 -1.52201258 4.28930818 0 0 Z " fill="#0B39AA" transform="translate(940,866)"/>
<path d="M0 0 C0.66 0.33 1.32 0.66 2 1 C3.0283474 6.03890228 3.08970351 10.88689982 3 16 C0.83198169 12.74797253 0.42429207 10.69295049 -0.1875 6.875 C-0.36667969 5.79992187 -0.54585937 4.72484375 -0.73046875 3.6171875 C-0.81941406 2.75351562 -0.90835938 1.88984375 -1 1 C-0.67 0.67 -0.34 0.34 0 0 Z " fill="#1445A7" transform="translate(958,848)"/>
<path d="M0 0 C0.33 0.66 0.66 1.32 1 2 C1.66 2 2.32 2 3 2 C5.42857143 10.42857143 5.42857143 10.42857143 4 15 C1.81257986 11.7188698 1.45557194 9.66915644 0.875 5.8125 C0.70742188 4.72582031 0.53984375 3.63914063 0.3671875 2.51953125 C0.24601563 1.68808594 0.12484375 0.85664063 0 0 Z " fill="#1A45AD" transform="translate(930,209)"/>
<path d="M0 0 C2.93167219 0.31693753 4.58982661 0.63225834 6.8125 2.625 C8.41568775 5.8313755 8.20379759 8.46750852 8 12 C6.8105476 10.2158214 5.65178031 8.40954052 4.5625 6.5625 C3.15652366 4.2566988 1.65650431 2.12979126 0 0 Z " fill="#0736A8" transform="translate(1270,929)"/>
<path d="M0 0 C4.9723422 1.49170266 9.41845739 3.60457417 14 6 C13.67 6.66 13.34 7.32 13 8 C11.20249935 7.43489946 9.41208377 6.84722594 7.625 6.25 C6.62726562 5.92515625 5.62953125 5.6003125 4.6015625 5.265625 C1.70207827 3.8550651 1.04162718 2.98683456 0 0 Z " fill="#104BA0" transform="translate(999,914)"/>
<path d="M0 0 C0.89332031 0.12761719 1.78664063 0.25523437 2.70703125 0.38671875 C3.60808594 0.50660156 4.50914062 0.62648437 5.4375 0.75 C6.12457031 0.85699219 6.81164062 0.96398437 7.51953125 1.07421875 C7.18953125 1.73421875 6.85953125 2.39421875 6.51953125 3.07421875 C2.55953125 3.07421875 -1.40046875 3.07421875 -5.48046875 3.07421875 C-2.48046875 0.07421875 -2.48046875 0.07421875 0 0 Z " fill="#00259D" transform="translate(858.48046875,127.92578125)"/>
<path d="M0 0 C1.13199353 0.9080162 2.25532363 1.82683826 3.375 2.75 C4.00148438 3.26046875 4.62796875 3.7709375 5.2734375 4.296875 C7.08312318 6.08199481 8.00117455 7.67949644 9 10 C7.25 9.875 7.25 9.875 5 9 C2.74744924 6.03950471 1.17732107 3.5319632 0 0 Z " fill="#1948A5" transform="translate(919,154)"/>
<path d="M0 0 C0.515625 0.268125 1.03125 0.53625 1.5625 0.8125 C4.66401415 2.32349407 7.82262806 3.65572726 11 5 C11 5.99 11 6.98 11 8 C6.40378078 6.5129879 3.53027653 4.20187872 0 1 C0 0.67 0 0.34 0 0 Z " fill="#0635A6" transform="translate(989,908)"/>
<path d="M0 0 C1.95893905 0.64399373 3.91713364 1.29025241 5.875 1.9375 C6.96554687 2.29714844 8.05609375 2.65679687 9.1796875 3.02734375 C12 4 12 4 14 5 C13.67 5.66 13.34 6.32 13 7 C11.58208592 6.54554036 10.16571954 6.08625056 8.75 5.625 C7.96109375 5.36976563 7.1721875 5.11453125 6.359375 4.8515625 C4.13372042 4.04826333 2.09068328 3.10288338 0 2 C0 1.34 0 0.68 0 0 Z " fill="#063D9E" transform="translate(889,137)"/>
<path d="M0 0 C0.82757812 0.49113281 0.82757812 0.49113281 1.671875 0.9921875 C4.38780923 2.16787715 6.30551759 2.20248638 9.25 2.125 C10.58804687 2.09792969 10.58804687 2.09792969 11.953125 2.0703125 C12.62859375 2.04710937 13.3040625 2.02390625 14 2 C11.54473878 4.45526122 10.39370182 4.41457598 7 4.75 C6.113125 4.84796875 5.22625 4.9459375 4.3125 5.046875 C2 5 2 5 0 3 C0 2.01 0 1.02 0 0 Z " fill="#032F9E" transform="translate(1215,979)"/>
<path d="M0 0 C0.33 0.66 0.66 1.32 1 2 C1.66 2 2.32 2 3 2 C3.66 5.63 4.32 9.26 5 13 C2.33394431 9.44525908 1.58635561 8.29786012 0.8125 4.25 C0.65394531 3.45078125 0.49539063 2.6515625 0.33203125 1.828125 C0.22246094 1.22484375 0.11289062 0.6215625 0 0 Z " fill="#073E9F" transform="translate(961,865)"/>
<path d="M0 0 C0.33 0 0.66 0 1 0 C1 2.97 1 5.94 1 9 C0.01 9.33 -0.98 9.66 -2 10 C-2.25 3.375 -2.25 3.375 0 0 Z " fill="#184BAA" transform="translate(1213,900)"/>
<path d="M0 0 C0.99 0.33 1.98 0.66 3 1 C3 3.64 3 6.28 3 9 C2.34 9 1.68 9 1 9 C0.67 6.03 0.34 3.06 0 0 Z " fill="#1A42B1" transform="translate(937,859)"/>
<path d="M0 0 C2.3125 0.1875 2.3125 0.1875 5 1 C6.8125 3.5625 6.8125 3.5625 8 6 C4.08597051 4.73058503 2.20927127 3.48832306 0 0 Z " fill="#0E44A7" transform="translate(974,924)"/>
<path d="M0 0 C3.81684226 1.55500981 6.19195732 4.03595495 9 7 C8.1646875 6.566875 8.1646875 6.566875 7.3125 6.125 C4.91505355 4.9586747 2.48403061 3.9660119 0 3 C0 2.01 0 1.02 0 0 Z " fill="#0434A4" transform="translate(1224,920)"/>
<path d="M0 0 C0 0.66 0 1.32 0 2 C-2.5 3.625 -2.5 3.625 -5 5 C-5.66 4.34 -6.32 3.68 -7 3 C-4.49955934 -0.00052879 -4.2621484 0 0 0 Z " fill="#0B469F" transform="translate(1234,951)"/>
<path d="M0 0 C1.73662334 3.22515763 2.8905928 6.51329166 4 10 C3.01 9.67 2.02 9.34 1 9 C-0.4783226 6.04335481 -0.06032783 3.25770263 0 0 Z " fill="#0D489E" transform="translate(1212,905)"/>
<path d="M0 0 C1.98 1.65 3.96 3.3 6 5 C5.67 5.99 5.34 6.98 5 8 C2.20127563 5.47211993 0.54226981 3.79588866 0 0 Z " fill="#1B49AC" transform="translate(949,893)"/>
<path d="M0 0 C1.875 0.3125 1.875 0.3125 4 1 C4.66 1.99 5.32 2.98 6 4 C5.34 4.66 4.68 5.32 4 6 C0 1.125 0 1.125 0 0 Z " fill="#08449D" transform="translate(978,897)"/>
<path d="M0 0 C0.66 0.33 1.32 0.66 2 1 C2 1.66 2 2.32 2 3 C3.32 3.66 4.64 4.32 6 5 C4.68 5.33 3.36 5.66 2 6 C1.01 4.35 0.02 2.7 -1 1 C-0.67 0.67 -0.34 0.34 0 0 Z " fill="#0A33B8" transform="translate(928,163)"/>
<path d="" fill="#00FFFF" transform="translate(0,0)"/>
<path d="" fill="#00FFFF" transform="translate(0,0)"/>
<path d="" fill="#00FFFF" transform="translate(0,0)"/>
</svg>
