<?xml version="1.0" encoding="UTF-8"?>
<svg version="1.1" xmlns="http://www.w3.org/2000/svg" width="1920" height="1080">
<path d="M0 0 C0.83508209 0.00086648 1.67016418 0.00173296 2.53055179 0.0026257 C3.41103714 -0.00034542 4.2915225 -0.00331654 5.19868922 -0.0063777 C8.17324161 -0.01510548 11.14775394 -0.01657643 14.12231815 -0.01806521 C16.24588471 -0.02269089 18.36945043 -0.02771521 20.49301517 -0.03311038 C26.28303434 -0.04626955 32.0730419 -0.05268737 37.86307371 -0.05712104 C41.48258007 -0.06004903 45.10208325 -0.06415355 48.72158802 -0.06862521 C60.05120287 -0.08231582 71.38081045 -0.09197208 82.71043301 -0.0958271 C95.77667579 -0.10029734 108.84281342 -0.11779047 121.90902424 -0.1468277 C132.01110825 -0.16849494 142.11316281 -0.17853424 152.2152698 -0.17986822 C158.24589238 -0.1809136 164.27641631 -0.18676315 170.30701435 -0.20468783 C175.99181982 -0.22125333 181.67645348 -0.22328304 187.3612746 -0.21454883 C189.43840358 -0.21378269 191.51554211 -0.21806464 193.59264743 -0.22800708 C205.21336558 -0.28032804 215.941294 0.24817381 227.23511112 3.1430676 C228.16311086 3.38003228 229.09111061 3.61699697 230.04723155 3.8611424 C250.49468844 9.29326973 267.89318616 19.49733128 282.23511112 35.1430676 C283.12263065 36.09439572 283.12263065 36.09439572 284.02807987 37.0649426 C307.15631189 62.59279251 312.54888868 92.88259426 312.50012577 126.11853147 C312.50369916 128.67373894 312.50815089 131.22894531 312.51340234 133.78414989 C312.52340774 139.32716256 312.52612746 144.87014077 312.52398098 150.41316152 C312.52083578 158.6560153 312.52919272 166.89882981 312.53993608 175.14167579 C312.55773287 189.01327855 312.56660256 202.88487319 312.57063663 216.75648618 C312.57626741 235.70318872 312.59494599 254.64986267 312.61707717 273.59655231 C312.62737817 282.43022043 312.63704289 291.26388925 312.64654148 300.09755826 C312.64749299 300.98178415 312.6484445 301.86601004 312.64942484 302.77703065 C312.67191003 323.80968402 312.68816329 344.84234148 312.70337284 365.87500119 C312.70404039 366.79493143 312.70470794 367.71486167 312.70539572 368.66266858 C312.71621987 383.5908057 312.72666559 398.51894307 312.73706436 413.44708049 C312.74681232 427.43509846 312.75669892 441.42311632 312.7668494 455.411134 C312.76751428 456.33056495 312.76817915 457.2499959 312.76886418 458.19728839 C312.78408179 479.19438791 312.80108592 500.19148393 312.82368076 521.18857694 C312.82510465 522.5127885 312.82510465 522.5127885 312.8265573 523.8637518 C312.83607557 532.67783996 312.84590573 541.49192771 312.85620126 550.30601499 C312.87823711 569.23012588 312.89482338 588.1542192 312.9003268 607.07834257 C312.90442133 620.872346 312.91532606 634.66632955 312.93330455 648.46032202 C312.94374127 656.65160953 312.94857637 664.84285633 312.94540436 673.0341501 C312.94363795 679.15433918 312.95224191 685.27447289 312.96482009 691.39464837 C312.96827838 693.86755441 312.96837567 696.34046795 312.96474749 698.81337374 C312.9294361 725.48800773 316.39709349 750.8614155 335.88354862 770.85009885 C336.65956424 771.60677854 337.43557987 772.36345822 338.23511112 773.1430676 C339.03175174 773.97193479 339.82839237 774.80080197 340.64917362 775.65478635 C352.24077522 787.0887982 366.71073311 793.01796597 382.23511112 797.1430676 C383.13824574 797.40063258 383.13824574 797.40063258 384.05962551 797.66340089 C395.13707233 800.10583601 407.32643936 799.30980968 418.62329471 799.34838986 C420.42829463 799.35799216 422.23329241 799.36800352 424.038288 799.37838864 C428.89472826 799.40518944 433.751178 799.42633178 438.60765016 799.44639063 C443.699196 799.46840519 448.79071349 799.49571748 453.88223636 799.52244687 C463.50427285 799.57216625 473.12632525 799.61718121 482.74839258 799.66046923 C493.71104254 799.71002012 504.67366403 799.76487148 515.63628638 799.82014883 C538.16920134 799.93364984 560.70214366 800.04055707 583.23511112 800.1430676 C583.23511112 799.4830676 583.23511112 798.8230676 583.23511112 798.1430676 C582.66663455 797.88138791 582.09815799 797.61970822 581.51245487 797.35009885 C577.36882268 795.15390271 573.8563901 792.09947717 570.23511112 789.1430676 C569.24511112 788.3386926 568.25511112 787.5343176 567.23511112 786.7055676 C564.56071542 783.27899811 563.80072597 780.47052721 564.23511112 776.1430676 C565.71566486 772.13225534 567.63577231 769.5426268 571.23511112 767.1430676 C578.83944292 765.9360308 582.68151525 768.13337362 588.81323612 772.54541135 C589.95595978 773.40852523 591.09644935 774.27460209 592.23511112 775.1430676 C592.87513065 775.62533811 593.51515018 776.10760861 594.17456424 776.60449338 C597.74577674 779.2982518 601.29634782 782.01709737 604.83276737 784.75634885 C607.75486705 787.01566408 610.69815632 789.24081345 613.66870487 791.43603635 C614.7403992 792.22929318 614.7403992 792.22929318 615.83374393 793.03857541 C617.18047245 794.03272423 618.52989139 795.02324375 619.88257205 796.00927854 C630.55737846 803.9105365 630.55737846 803.9105365 632.29761112 809.6430676 C632.1990317 815.16351474 630.07408698 818.43653173 626.42261112 822.3930676 C622.0473172 826.57614149 617.07436819 829.94109489 612.12573612 833.39697385 C608.03088254 836.26399621 604.03707249 839.25686677 600.04761112 842.2680676 C598.70257678 843.27720583 597.35752506 844.28632091 596.01245487 845.29541135 C593.65917744 847.06407513 591.31864009 848.84730581 588.98901737 850.64697385 C588.0389783 851.36755979 587.08893924 852.08814572 586.11011112 852.8305676 C585.30315799 853.45318479 584.49620487 854.07580197 583.66479862 854.71728635 C580.78475657 856.40734318 578.55502482 856.89484975 575.23511112 857.1430676 C571.72554826 856.01286939 569.10880488 854.92939198 566.36011112 852.4555676 C564.13552486 847.88280696 563.73861471 843.88080502 565.11011112 839.0805676 C568.16508198 834.85751964 572.01444614 832.14025761 576.23511112 829.1430676 C577.45506877 828.27237893 578.67478313 827.4013493 579.8942908 826.53003049 C580.52099674 826.08228772 581.14770267 825.63454495 581.79339969 825.17323422 C582.50704685 824.66330174 582.50704685 824.66330174 583.23511112 824.1430676 C582.30526023 824.14491118 581.37540935 824.14675477 580.41738117 824.14865422 C557.71142766 824.19320559 535.00547987 824.22599102 512.29949176 824.24669194 C501.31870577 824.2569708 490.33794879 824.27096571 479.35718143 824.2939465 C469.77776899 824.31398482 460.19837758 824.32680862 450.61894476 824.33124459 C445.55452402 824.33383442 440.49016339 824.33984956 435.42576206 824.35452771 C430.64219615 824.36827732 425.85871413 824.37225582 421.07513034 824.36928296 C419.33551437 824.36982547 417.59589508 824.37369802 415.85629642 824.38147855 C400.10146734 824.44838396 383.64855707 824.21102508 368.48511112 819.5180676 C367.18754886 819.12893186 367.18754886 819.12893186 365.86377323 818.73193479 C341.70129042 811.14927677 319.54470246 794.8548032 306.23511112 773.1430676 C305.51194705 772.10666135 305.51194705 772.10666135 304.77417362 771.0493176 C296.72935878 758.96081276 291.65204444 743.40497165 289.23511112 729.1430676 C289.0629921 728.14621888 288.89087309 727.14937017 288.71353835 726.12231392 C288.03833894 721.31839936 288.09677568 716.52885504 288.10761917 711.686064 C288.10597533 710.64056409 288.1043315 709.59506417 288.10263786 708.51788244 C288.09831512 705.00330774 288.10110045 701.48877437 288.10380924 697.97419858 C288.10210719 695.43328409 288.09995755 692.89236987 288.09739798 690.35145611 C288.09279861 684.82089713 288.09125121 679.29035025 288.09236324 673.75978971 C288.09397413 665.53498754 288.08980872 657.31019548 288.08428276 649.08539536 C288.07563185 636.09363255 288.07026986 623.10187108 288.06708125 610.11010587 C288.06193593 589.47477092 288.046465 568.83945324 288.02750477 548.20412682 C288.02348333 543.81067839 288.01956238 539.41722987 288.01563841 535.02378136 C288.01485575 534.1479572 288.0140731 533.27213305 288.01326672 532.36976876 C288.01168114 530.59496966 288.01009632 528.82017056 288.00851224 527.04537146 C288.00692095 525.26398277 288.0053267 523.48259408 288.00372951 521.70120538 C287.98489875 500.69265094 287.9678137 479.68409534 287.95215213 458.6755383 C287.95146321 457.7563209 287.95077429 456.8371035 287.9500645 455.89003103 C287.92781718 426.10249039 287.91596789 396.31495477 287.90848558 366.52740716 C287.90071331 335.88852434 287.8796249 305.24967567 287.84294297 274.6108133 C287.83776968 270.27938337 287.83276227 265.94795327 287.82786357 261.61652303 C287.82689662 260.76410999 287.82592966 259.91169696 287.8249334 259.03345323 C287.80981802 245.34040653 287.80889231 231.64739418 287.8135207 217.95434144 C287.81791463 204.177388 287.80793745 190.40050467 287.78343364 176.62357179 C287.76934207 168.44929438 287.76625099 160.27518916 287.77927616 152.10090906 C287.78779514 145.980672 287.77530655 139.86064045 287.75498722 133.74043497 C287.75001538 131.27664806 287.75167751 128.81283617 287.76091989 126.34906159 C287.86241611 96.9653827 283.06766845 71.20184183 261.63354862 49.5102551 C255.93295661 44.1308232 250.19292727 39.7454872 243.23511112 36.1430676 C242.26057987 35.63002072 241.28604862 35.11697385 240.28198612 34.5883801 C227.12311008 28.07376413 212.97423163 24.99695077 198.31375492 24.99157834 C197.43868286 24.98734593 196.56361079 24.98311352 195.6620214 24.97875285 C192.74253517 24.96578142 189.8230762 24.95971492 186.90356815 24.95361447 C184.805661 24.94566809 182.70775548 24.93727982 180.60985172 24.92848325 C176.09951746 24.91045659 171.58918672 24.89543059 167.07883441 24.88270688 C159.95372819 24.86246867 152.82866255 24.83482153 145.70358646 24.80603147 C129.30132305 24.74088198 112.89902978 24.68533604 96.49673069 24.63004422 C81.44731206 24.57923885 66.3979083 24.52642474 51.34852672 24.46551871 C44.25791468 24.43710665 37.16730765 24.41353467 30.07666695 24.39359403 C25.67898805 24.38025192 21.2813323 24.36283822 16.8836726 24.34428334 C14.83614484 24.3364976 12.78860972 24.33044114 10.74107158 24.32619023 C7.95886303 24.32018562 5.17674565 24.30815876 2.39456546 24.29455686 C1.57348116 24.29426087 0.75239685 24.29396488 -0.0935688 24.29365993 C-5.65079496 24.25716152 -5.65079496 24.25716152 -6.76488888 23.1430676 C-6.86405459 21.52049215 -6.89568665 19.89366929 -6.89770138 18.2680676 C-6.89899045 17.28322385 -6.90027951 16.2983801 -6.90160763 15.2836926 C-6.89774045 14.24728635 -6.89387326 13.2108801 -6.88988888 12.1430676 C-6.89568966 10.58845822 -6.89568966 10.58845822 -6.90160763 9.0024426 C-6.90031857 8.01759885 -6.89902951 7.0327551 -6.89770138 6.0180676 C-6.89657345 5.10798947 -6.89544552 4.19791135 -6.89428341 3.2602551 C-6.62728743 -1.10840364 -3.6975737 0.01888382 0 0 Z " fill="#A4A4A4" transform="translate(646.764888882637,127.8569324016571)"/>
<path d="M0 0 C0.33 0 0.66 0 1 0 C1 1.65 1 3.3 1 5 C1.66 5 2.32 5 3 5 C3 211.25 3 417.5 3 630 C2.67 630 2.34 630 2 630 C1.27373432 626.73556649 0.87407314 623.71362137 0.86938947 620.37148923 C0.86570876 619.46436701 0.86202805 618.55724479 0.85823581 617.62263402 C0.85976981 616.13826277 0.85976981 616.13826277 0.8613348 614.62390423 C0.85849258 613.56290145 0.85565036 612.50189868 0.85272202 611.40874431 C0.84435567 607.82959193 0.84310528 604.25047184 0.84178162 600.67131042 C0.83721759 598.08899414 0.8322178 595.50667859 0.82681805 592.92436391 C0.81575728 587.29769067 0.8083878 581.67102192 0.80341911 576.04434013 C0.79601419 567.67764415 0.78293129 559.31096381 0.76867336 550.94427704 C0.74485175 536.87082168 0.72565222 522.79736354 0.70907402 508.72389793 C0.6926411 494.78654792 0.67416175 480.84920309 0.65294075 466.91185951 C0.65162314 466.04573647 0.65030554 465.17961343 0.648948 464.28724424 C0.64224605 459.88876092 0.63550745 455.49027765 0.62875474 451.09179441 C0.58097365 419.92586603 0.53779381 388.75993279 0.49731445 357.59399414 C0.45797533 327.31404264 0.41655542 297.03409515 0.37231445 266.75415039 C0.37095192 265.82102308 0.36958939 264.88789576 0.36818558 263.92649186 C0.35450037 254.55576495 0.34077281 245.18503811 0.32701423 235.8143113 C0.29898662 216.72454061 0.27124167 197.63476952 0.2436676 178.54499817 C0.2423994 177.66725404 0.2411312 176.78950991 0.23982458 175.88516748 C0.15514841 117.25678485 0.07706167 58.62839307 0 0 Z " fill="#898989" transform="translate(956,225)"/>
<path d="M0 0 C28.35458548 -0.02334028 56.70916952 -0.04098474 85.06376266 -0.05181217 C98.22870962 -0.05697272 111.39365062 -0.06401086 124.55859375 -0.07543945 C136.0305498 -0.08539362 147.50250154 -0.09185518 158.97446179 -0.09408849 C165.05110283 -0.09539435 171.12773151 -0.09847235 177.20436859 -0.10573006 C182.92026854 -0.1125018 188.63615101 -0.11461459 194.3520546 -0.11310768 C196.45315012 -0.11338349 198.55424622 -0.11538177 200.65533829 -0.11920547 C203.51786684 -0.1241607 206.38032889 -0.12299146 209.24285889 -0.12025452 C210.07943425 -0.12316736 210.91600961 -0.1260802 211.77793574 -0.12908131 C215.3566396 -0.11979555 218.55653884 0.03484451 222 1 C222 1.66 222 2.32 222 3 C194.80938016 3.02337757 167.61876183 3.04100305 140.42813396 3.05181217 C127.80259045 3.0569648 115.17705318 3.06398783 102.55151367 3.07543945 C91.54497375 3.08541784 80.53843835 3.09186094 69.53189403 3.09408849 C63.70598179 3.09539024 57.8800825 3.09844215 52.05417442 3.10573006 C46.56560735 3.11254005 41.07705852 3.11460684 35.58848763 3.11310768 C33.57902299 3.11338177 31.56955771 3.11535726 29.56009674 3.11920547 C10.0578451 3.15470718 10.0578451 3.15470718 1 2 C0.67 2.66 0.34 3.32 0 4 C0 2.68 0 1.36 0 0 Z " fill="#919191" transform="translate(641,128)"/>
<path d="M0 0 C1.41655793 -0.0272415 2.83327045 -0.04650467 4.25 -0.0625 C5.03890625 -0.07410156 5.8278125 -0.08570312 6.640625 -0.09765625 C8.90691002 -0.00385306 10.8288895 0.36758937 13 1 C13 1.66 13 2.32 13 3 C-56.3 3 -125.6 3 -197 3 C-197 2.67 -197 2.34 -197 2 C-131.99 1.67 -66.98 1.34 0 1 C0 0.67 0 0.34 0 0 Z " fill="#9C9C9C" transform="translate(850,128)"/>
<path d="M0 0 C0.33 0 0.66 0 1 0 C1 1.65 1 3.3 1 5 C1.66 5 2.32 5 3 5 C3 30.08 3 55.16 3 81 C2.67 81 2.34 81 2 81 C1.7375466 71.9155046 1.47665134 62.83096614 1.21769714 53.74637032 C1.0973822 49.52718053 0.97654826 45.30800699 0.85449219 41.08886719 C0.73652859 37.0105116 0.61997538 32.93211784 0.50436401 28.85369492 C0.4602083 27.30451926 0.41556055 25.75535754 0.37039185 24.20621109 C0.13539882 16.13558365 -0.05564251 8.07511894 0 0 Z " fill="#8E8E8E" transform="translate(956,225)"/>
<path d="M0 0 C14.46807203 6.40289145 27.4107264 17.67181682 36 31 C35.67 31.66 35.34 32.32 35 33 C34.34 33 33.68 33 33 33 C31.82004955 31.43580927 30.7076207 29.82056709 29.625 28.1875 C22.53696734 18.22316424 13.74943 10.85405391 3 5 C2.01 4.34 1.02 3.68 0 3 C0 2.01 0 1.02 0 0 Z " fill="#9F9F9F" transform="translate(887,159)"/>
<path d="M0 0 C12.32049944 1.25171983 22.50119413 14.89854696 30 24 C32 27 32 27 31.625 29.1875 C31.315625 30.0846875 31.315625 30.0846875 31 31 C23 21 23 21 20.859375 18.23046875 C19.19424644 15.93018112 19.19424644 15.93018112 17 15 C17 14.34 17 13.68 17 13 C16.45601562 12.7628125 15.91203125 12.525625 15.3515625 12.28125 C12.38725905 10.66614779 9.97135087 8.6554611 7.375 6.5 C6.41335938 5.7059375 5.45171875 4.911875 4.4609375 4.09375 C2 2 2 2 0 0 Z " fill="#999999" transform="translate(906,147)"/>
<path d="M0 0 C3.82396061 3.55794596 6.38419421 7.02640984 9.0625 11.5625 C13.68759548 19.12937014 19.51629978 25.00998253 26 31 C24.2890625 31.75 24.2890625 31.75 22 32 C12.94453881 25.64529039 4.20475214 13.19195356 0 3 C0 2.01 0 1.02 0 0 Z " fill="#989898" transform="translate(965,876)"/>
<path d="M0 0 C0 0.99 0 1.98 0 3 C-1.96876633 4.69630313 -3.88673162 6.19536118 -6 7.6875 C-6.85851563 8.31108398 -6.85851563 8.31108398 -7.734375 8.94726562 C-9.14996532 9.97356861 -10.57419631 10.98793399 -12 12 C-12.66 11.67 -13.32 11.34 -14 11 C-11.10492782 8.02450915 -8.33810482 5.50357861 -5 3 C-20.18 2.67 -35.36 2.34 -51 2 C-51 1.67 -51 1.34 -51 1 C-45.34411487 0.85597909 -39.688191 0.71362594 -34.03222656 0.57275391 C-32.11196791 0.52469906 -30.19172019 0.47620488 -28.27148438 0.42724609 C-25.49612206 0.35656379 -22.72072298 0.28751207 -19.9453125 0.21875 C-18.67749435 0.18593933 -18.67749435 0.18593933 -17.38406372 0.15246582 C-11.58832004 0.01097603 -5.7973669 -0.02425878 0 0 Z " fill="#8A8A8A" transform="translate(1235,949)"/>
<path d="M0 0 C6.36708676 -0.31361367 11.40982249 0.68613688 17.4375 2.6875 C18.68829346 3.09415894 18.68829346 3.09415894 19.96435547 3.5090332 C31.80730181 7.47485431 31.80730181 7.47485431 36 11 C36.495 12.485 36.495 12.485 37 14 C33.26460815 12.8894781 29.86240954 11.45800688 26.375 9.75 C17.95655589 5.82763731 8.91224227 3.52895516 0 1 C0 0.67 0 0.34 0 0 Z " fill="#949494" transform="translate(866,131)"/>
<path d="M0 0 C1.71896484 0.61488281 1.71896484 0.61488281 3.47265625 1.2421875 C5.0025638 1.78657178 6.532514 2.33083624 8.0625 2.875 C8.81466797 3.14441406 9.56683594 3.41382813 10.34179688 3.69140625 C14.85898121 5.29490891 19.37632728 6.73509086 24 8 C24 8.66 24 9.32 24 10 C15.0239416 9.27612432 6.94277004 7.38942555 -1 3 C-0.67 2.01 -0.34 1.02 0 0 Z " fill="#949494" transform="translate(1008,918)"/>
<path d="M0 0 C3.33458007 1.11152669 3.88433075 1.83425675 6 4.5 C10.4013714 9.72485379 15.63418591 13.80826096 21 18 C20.67 18.66 20.34 19.32 20 20 C14.4093513 17.66052854 10.79636467 14.24974104 6.625 10 C5.98433594 9.3709375 5.34367188 8.741875 4.68359375 8.09375 C4.07902344 7.4853125 3.47445312 6.876875 2.8515625 6.25 C2.30322754 5.69828125 1.75489258 5.1465625 1.18994141 4.578125 C0 3 0 3 0 0 Z " fill="#979797" transform="translate(961,909)"/>
<path d="M0 0 C0.928125 0.825 1.85625 1.65 2.8125 2.5 C6.92039821 6.04274589 11.3073005 9.14791152 15.7421875 12.265625 C18 14 18 14 19 16 C11.49640842 15.07545032 5.5811005 9.13387459 0.875 3.5 C0.25625 2.675 -0.3625 1.85 -1 1 C-0.67 0.67 -0.34 0.34 0 0 Z " fill="#959595" transform="translate(1213,910)"/>
<path d="M0 0 C0 0.33 0 0.66 0 1 C-8.51372785 1.31274919 -16.6030674 0.37292913 -25 -1 C-25 -1.33 -25 -1.66 -25 -2 C-16.58331197 -3.45673447 -7.90640235 -3.54125882 0 0 Z " fill="#999999" transform="translate(872,153)"/>
<path d="M0 0 C0.33 0.99 0.66 1.98 1 3 C-2.96 5.97 -6.92 8.94 -11 12 C-11.66 11.67 -12.32 11.34 -13 11 C-10.14723863 8.06799526 -7.34920216 5.35684596 -4 3 C-4.99 2.34 -5.98 1.68 -7 1 C-3.535 0.505 -3.535 0.505 0 0 Z " fill="#939393" transform="translate(1234,949)"/>
<path d="M0 0 C2.34159546 3.5123932 3.19254288 6.96270105 4.1875 11 C4.47270508 12.08667969 4.47270508 12.08667969 4.76367188 13.1953125 C6.12276786 18.63169643 6.12276786 18.63169643 5 22 C5 21.34 5 20.68 5 20 C4.34 20 3.68 20 3 20 C1.28878246 15.47849025 0.64776388 11.44382847 0.375 6.625 C0.30023437 5.37976563 0.22546875 4.13453125 0.1484375 2.8515625 C0.09945312 1.91054688 0.05046875 0.96953125 0 0 Z " fill="#929292" transform="translate(938,856)"/>
<path d="M0 0 C0.99 0.33 1.98 0.66 3 1 C4.01953125 3.80078125 4.01953125 3.80078125 4.8125 7.3125 C5.08707031 8.46363281 5.36164062 9.61476562 5.64453125 10.80078125 C6.01051647 14.09464819 5.82659802 15.30991928 4 18 C3.32873871 15.5636811 2.66283646 13.12611117 2 10.6875 C1.71382812 9.65206055 1.71382812 9.65206055 1.421875 8.59570312 C0.62283816 5.64212051 0 3.07440781 0 0 Z " fill="#9C9C9C" transform="translate(951,204)"/>
<path d="M0 0 C0.99 0 1.98 0 3 0 C4.01241247 1.88923398 5.00947425 3.78669944 6 5.6875 C6.556875 6.74324219 7.11375 7.79898438 7.6875 8.88671875 C8.9672274 11.92226262 9.28851043 13.76026826 9 17 C6.59124922 13.94746898 4.67456202 10.78648153 2.8125 7.375 C2.28269531 6.41335937 1.75289062 5.45171875 1.20703125 4.4609375 C0 2 0 2 0 0 Z " fill="#969696" transform="translate(940,181)"/>
<path d="M0 0 C0.7528125 0.01546875 1.505625 0.0309375 2.28125 0.046875 C4.44678285 0.24512801 6.41000485 0.66100137 8.5 1.25 C8.5 1.91 8.5 2.57 8.5 3.25 C2.89 3.25 -2.72 3.25 -8.5 3.25 C-3.98471616 -0.13646288 -3.98471616 -0.13646288 0 0 Z " fill="#949494" transform="translate(854.5,127.75)"/>
<path d="M0 0 C4.12172083 3.76843047 7.63068221 7.88904305 10 13 C9.67 13.66 9.34 14.32 9 15 C4.99153025 11.3255694 2.4396032 7.87920641 0 3 C0 2.01 0 1.02 0 0 Z " fill="#9E9E9E" transform="translate(965,876)"/>
<path d="M0 0 C1.60540659 0.78914921 3.20928016 1.58141765 4.8125 2.375 C5.70582031 2.81585938 6.59914063 3.25671875 7.51953125 3.7109375 C10 5 10 5 13 7 C12.67 7.66 12.34 8.32 12 9 C8.04 7.02 4.08 5.04 0 3 C0 2.01 0 1.02 0 0 Z " fill="#8F8F8F" transform="translate(887,159)"/>
<path d="M0 0 C5.05531868 0.77774134 10.01716284 1.85948394 15 3 C14.67 3.66 14.34 4.32 14 5 C9.03083364 4.48594831 4.70973649 3.76615118 0 2 C0 1.34 0 0.68 0 0 Z " fill="#939393" transform="translate(1012,944)"/>
<path d="M0 0 C4.77609498 1.64178265 8.79382904 4.26546702 13 7 C12.01 7.495 12.01 7.495 11 8 C6.2650966 6.3025818 2.81339126 4.35116202 -1 1 C-0.67 0.67 -0.34 0.34 0 0 Z " fill="#969696" transform="translate(984,930)"/>
<path d="M0 0 C0.66 0.99 1.32 1.98 2 3 C-3.0940919 9.70459519 -3.0940919 9.70459519 -6.875 10.9375 C-7.57625 10.958125 -8.2775 10.97875 -9 11 C-4 6 -4 6 -2.25 4.375 C-0.74340914 2.90383382 -0.74340914 2.90383382 0 0 Z " fill="#929292" transform="translate(1276,941)"/>
<path d="M0 0 C0.78552246 0.01047363 1.57104492 0.02094727 2.38037109 0.03173828 C3.23115234 0.03818359 4.08193359 0.04462891 4.95849609 0.05126953 C6.29267578 0.07640625 6.29267578 0.07640625 7.65380859 0.10205078 C8.99958984 0.11558594 8.99958984 0.11558594 10.37255859 0.12939453 C12.59157445 0.15300108 14.81005937 0.18592768 17.02880859 0.22705078 C17.02880859 0.55705078 17.02880859 0.88705078 17.02880859 1.22705078 C16.12517578 1.28763672 15.22154297 1.34822266 14.29052734 1.41064453 C12.52128906 1.53632812 12.52128906 1.53632812 10.71630859 1.66455078 C9.54455078 1.74576172 8.37279297 1.82697266 7.16552734 1.91064453 C4.00289901 2.11378789 4.00289901 2.11378789 1.02880859 3.22705078 C-1.65869141 2.78955078 -1.65869141 2.78955078 -3.97119141 2.22705078 C-1.97119141 0.22705078 -1.97119141 0.22705078 0 0 Z " fill="#989898" transform="translate(1030.97119140625,947.77294921875)"/>
<path d="M0 0 C4.24480464 -0.33292585 6.35542625 -0.43885872 9.9375 2 C10.618125 2.66 11.29875 3.32 12 4 C9.09905209 5.45047396 7.44027404 4.45356803 4.375 3.5625 C3.37210938 3.27503906 2.36921875 2.98757813 1.3359375 2.69140625 C0.56507812 2.46324219 -0.20578125 2.23507812 -1 2 C-0.67 1.34 -0.34 0.68 0 0 Z " fill="#909090" transform="translate(1220,895)"/>
<path d="M0 0 C0.66 0.33 1.32 0.66 2 1 C2 1.66 2 2.32 2 3 C0.57421875 4.2890625 0.57421875 4.2890625 -1.3125 5.625 C-1.92738281 6.07101562 -2.54226563 6.51703125 -3.17578125 6.9765625 C-5 8 -5 8 -8 8 C-8 7.34 -8 6.68 -8 6 C-6.25 4.4921875 -6.25 4.4921875 -4 2.875 C-3.2575 2.33617187 -2.515 1.79734375 -1.75 1.2421875 C-1.1725 0.83226562 -0.595 0.42234375 0 0 Z " fill="#989898" transform="translate(1240,971)"/>
<path d="M0 0 C0.99 0.99 1.98 1.98 3 3 C0.03 5.475 0.03 5.475 -3 8 C-3.33 7.01 -3.66 6.02 -4 5 C-2.0625 2.3125 -2.0625 2.3125 0 0 Z " fill="#9A9A9A" transform="translate(1216,962)"/>
<path d="M0 0 C-1.3809002 3.33717549 -2.8201238 5.22301036 -6 7 C-8.1328125 6.57421875 -8.1328125 6.57421875 -10 6 C-8.71283353 4.99421411 -7.42011342 3.99553202 -6.125 3 C-5.40570312 2.443125 -4.68640625 1.88625 -3.9453125 1.3125 C-2 0 -2 0 0 0 Z " fill="#999999" transform="translate(1257,960)"/>
<path d="M0 0 C2.31 1.98 4.62 3.96 7 6 C6.67 7.32 6.34 8.64 6 10 C3.69 7.36 1.38 4.72 -1 2 C-0.67 1.34 -0.34 0.68 0 0 Z " fill="#939393" transform="translate(1270,927)"/>
<path d="M0 0 C0.33 0 0.66 0 1 0 C1 1.65 1 3.3 1 5 C1.66 5 2.32 5 3 5 C3 7.31 3 9.62 3 12 C2.01 11.34 1.02 10.68 0 10 C-0.29296875 7.6171875 -0.29296875 7.6171875 -0.1875 4.875 C-0.16042969 3.96492187 -0.13335938 3.05484375 -0.10546875 2.1171875 C-0.07066406 1.41851562 -0.03585937 0.71984375 0 0 Z " fill="#959595" transform="translate(956,225)"/>
<path d="M0 0 C2.97 0.99 5.94 1.98 9 3 C8.67 3.66 8.34 4.32 8 5 C5.03 4.01 2.06 3.02 -1 2 C-0.67 1.34 -0.34 0.68 0 0 Z " fill="#969696" transform="translate(1002,940)"/>
<path d="M0 0 C0.66 0.33 1.32 0.66 2 1 C-2.39453125 5.00390625 -2.39453125 5.00390625 -4 6 C-4.99 5.67 -5.98 5.34 -7 5 C-4.63707344 2.47411298 -3.33537489 1.11179163 0 0 Z " fill="#9F9F9F" transform="translate(1269,951)"/>
<path d="M0 0 C5.875 3.625 5.875 3.625 7 7 C4.0280615 5.87548273 1.66559313 4.77706209 -1 3 C-0.67 2.01 -0.34 1.02 0 0 Z " fill="#939393" transform="translate(993,909)"/>
<path d="M0 0 C8.57142857 -0.28571429 8.57142857 -0.28571429 12 2 C7.48281619 3.36884358 4.41225737 2.47075246 0 1 C0 0.67 0 0.34 0 0 Z " fill="#8F8F8F" transform="translate(866,131)"/>
<path d="M0 0 C6.75 0.875 6.75 0.875 9 2 C8.67 2.99 8.34 3.98 8 5 C5.36 3.68 2.72 2.36 0 1 C0 0.67 0 0.34 0 0 Z " fill="#ABABAB" transform="translate(993,937)"/>
<path d="M0 0 C4.31392226 0.4793247 6.16569547 1.7457985 9 5 C8.01 5.495 8.01 5.495 7 6 C5.83054208 5.19152271 4.66449539 4.37810888 3.5 3.5625 C2.8503125 3.11003906 2.200625 2.65757812 1.53125 2.19140625 C1.0259375 1.79824219 0.520625 1.40507813 0 1 C0 0.67 0 0.34 0 0 Z " fill="#979797" transform="translate(1235,903)"/>
<path d="M0 0 C2.31 0.66 4.62 1.32 7 2 C7 2.99 7 3.98 7 5 C4.69 4.34 2.38 3.68 0 3 C0 2.01 0 1.02 0 0 Z " fill="#8D8D8D" transform="translate(877,155)"/>
<path d="M0 0 C0.99 0.33 1.98 0.66 3 1 C3 3.97 3 6.94 3 10 C0.70366176 6.55549263 0.45983515 4.06187717 0 0 Z " fill="#8F8F8F" transform="translate(951,204)"/>
<path d="M0 0 C-0.66 1.32 -1.32 2.64 -2 4 C-3.65 4 -5.3 4 -7 4 C-7 3.34 -7 2.68 -7 2 C-2.25 0 -2.25 0 0 0 Z " fill="#969696" transform="translate(1230,980)"/>
<path d="M0 0 C2.64 0.99 5.28 1.98 8 3 C8 3.33 8 3.66 8 4 C4.625 4.125 4.625 4.125 1 4 C0.34 3.34 -0.32 2.68 -1 2 C-0.67 1.34 -0.34 0.68 0 0 Z " fill="#9C9C9C" transform="translate(1008,918)"/>
<path d="M0 0 C0.99 0.33 1.98 0.66 3 1 C1.35 2.65 -0.3 4.3 -2 6 C-1.125 1.125 -1.125 1.125 0 0 Z " fill="#989898" transform="translate(1215,898)"/>
<path d="M0 0 C1.65 1.65 3.3 3.3 5 5 C4.67 5.66 4.34 6.32 4 7 C3.34 7 2.68 7 2 7 C0 4 0 4 0 0 Z " fill="#909090" transform="translate(918,185)"/>
<path d="" fill="#FFFFFF" transform="translate(0,0)"/>
<path d="" fill="#FFFFFF" transform="translate(0,0)"/>
<path d="" fill="#FFFFFF" transform="translate(0,0)"/>
</svg>
