<?xml version="1.0" encoding="UTF-8"?>
<svg version="1.1" xmlns="http://www.w3.org/2000/svg" width="1920" height="1080">
<path d="M0 0 C7.07605604 3.69185533 13.16801582 8.64749344 19.26171875 13.75 C24.812888 18.31130313 30.68030232 22.46827644 36.6640625 26.44140625 C48.73536955 34.55120763 48.73536955 34.55120763 50.69921875 40.00390625 C51.32038029 44.12616012 50.91457419 47.27540175 49 51 C44.43162089 56.33142725 38.47458795 60.17731929 32.7109375 64.10546875 C29.695725 66.21264175 26.77990157 68.43255964 23.875 70.6875 C18.717136 74.68580178 13.52904896 78.64099306 8.3125 82.5625 C7.61688965 83.08739014 6.9212793 83.61228027 6.20458984 84.15307617 C5.55570801 84.6401001 4.90682617 85.12712402 4.23828125 85.62890625 C3.3726355 86.2796814 3.3726355 86.2796814 2.48950195 86.94360352 C-1.1108374 89.49706498 -4.72623891 89.67522248 -9 89 C-12.61942029 86.92218465 -14.31568268 85.67445786 -15.8828125 81.83984375 C-16.79151999 78.39480713 -17.15490118 75.75729468 -16.4375 72.25 C-13.24288295 67.24972984 -9.07384558 64.2718488 -4.30859375 60.83203125 C-3.31529053 60.11378174 -2.3219873 59.39553223 -1.29858398 58.65551758 C-0.54005127 58.10919678 0.21848145 57.56287598 1 57 C-23.27035627 56.95319597 -47.54070573 56.91797005 -71.8110981 56.89637566 C-83.08127479 56.88608071 -94.35142338 56.87205456 -105.62158203 56.84912109 C-115.44924339 56.82913254 -125.27688438 56.81627062 -135.1045655 56.81182301 C-140.30405123 56.80922487 -145.50347872 56.80315548 -150.70294571 56.78853989 C-155.60632566 56.77486949 -160.50962389 56.77079631 -165.41302109 56.77378464 C-167.20353389 56.77323868 -168.99404969 56.76931798 -170.7845459 56.76158905 C-197.69576763 56.65121377 -222.1218511 61.75621149 -242.2578125 81.05859375 C-262.19553566 101.01657883 -268.24056522 124.87413897 -268.27034944 152.4073627 C-268.26650065 154.73127188 -268.26247297 157.05518076 -268.25828552 159.37908936 C-268.26114246 161.86957385 -268.26488172 164.36005746 -268.26942402 166.85053945 C-268.27730649 172.25225239 -268.27908488 177.65391326 -268.27541161 183.05562973 C-268.27000247 191.08857442 -268.2761342 199.12148176 -268.28470039 207.15442225 C-268.29885389 220.67402229 -268.30421383 234.19361189 -268.30496025 247.71321869 C-268.30614061 266.18379071 -268.32135932 284.65433306 -268.34045542 303.12489429 C-268.34935335 311.73826755 -268.35762337 320.35164142 -268.36577702 328.96501541 C-268.36700364 330.25829713 -268.36700364 330.25829713 -268.36825505 331.57770575 C-268.38758147 352.08630627 -268.4011289 372.59490978 -268.41333008 393.10351562 C-268.41413527 394.44899247 -268.41413527 394.44899247 -268.41495672 395.82165066 C-268.42745078 416.7474327 -268.43823208 437.6732151 -268.44702148 458.59899902 C-268.45009158 465.85766603 -268.45318389 473.11633302 -268.45629883 480.375 C-268.45668064 481.27088785 -268.45706246 482.16677571 -268.45745584 483.08981168 C-268.46622368 503.55581644 -268.47739201 524.02181487 -268.49742985 544.48781204 C-268.49869384 545.77918103 -268.49869384 545.77918103 -268.49998338 547.09663828 C-268.50846787 555.69317482 -268.5174633 564.28971068 -268.52717515 572.88624592 C-268.53193629 577.11594899 -268.53655183 581.34565219 -268.54106331 585.57535553 C-268.54195119 586.40772772 -268.54283907 587.24009992 -268.54375386 588.09769551 C-268.55766348 601.47299729 -268.56032787 614.84827876 -268.55838365 628.22358668 C-268.55658563 641.67264323 -268.56527071 655.12165907 -268.58469205 668.57070205 C-268.59586947 676.55232114 -268.59871996 684.5338414 -268.5894957 692.51546352 C-268.58351112 698.48669103 -268.59320902 704.4577877 -268.60881007 710.4290022 C-268.61267857 712.83603067 -268.61154301 715.24307379 -268.60475319 717.65009579 C-268.53030183 746.32938368 -273.78038594 774.57025768 -293 797 C-293.65355469 797.85722656 -294.30710937 798.71445312 -294.98046875 799.59765625 C-312.67783309 822.51719368 -340.20519685 835.42972387 -368.42057228 839.3675766 C-377.52914431 840.49991619 -386.6437547 840.40180013 -395.80737305 840.35644531 C-397.90719691 840.35723858 -400.00702062 840.35934315 -402.10684204 840.36264038 C-407.73991487 840.367716 -413.37280091 840.35436397 -419.00584388 840.33711338 C-424.9189961 840.32195321 -430.83214715 840.32324875 -436.74531555 840.32244873 C-446.64933419 840.31877384 -456.55328276 840.30388517 -466.45727539 840.28125 C-479.18447831 840.25222242 -491.91162541 840.2420098 -504.63885784 840.2375679 C-515.59123617 840.23359761 -526.5436023 840.22110782 -537.49597192 840.20722103 C-541.01692887 840.20311893 -544.53788539 840.20019529 -548.05884361 840.19742584 C-553.56899694 840.1925497 -559.07911602 840.18237516 -564.58925247 840.16798782 C-566.61583078 840.16345066 -568.64241369 840.16062283 -570.66899681 840.15958023 C-573.42204082 840.15784522 -576.17499797 840.14999145 -578.92802429 840.14044189 C-579.74024104 840.14130838 -580.55245779 840.14217486 -581.38928717 840.1430676 C-586.88579008 840.11420992 -586.88579008 840.11420992 -588 839 C-588.09932153 837.30441274 -588.13080007 835.60474253 -588.1328125 833.90625 C-588.13474609 832.36130859 -588.13474609 832.36130859 -588.13671875 830.78515625 C-588.13285156 829.70105469 -588.12898437 828.61695313 -588.125 827.5 C-588.12886719 826.41589844 -588.13273438 825.33179688 -588.13671875 824.21484375 C-588.13542969 823.18488281 -588.13414062 822.15492188 -588.1328125 821.09375 C-588.13168457 820.14177734 -588.13055664 819.18980469 -588.12939453 818.20898438 C-588 816 -588 816 -587 815 C-584.23949009 814.8963569 -581.50369491 814.85842032 -578.74252319 814.86196899 C-577.86612139 814.85914771 -576.98971959 814.85632643 -576.08676016 814.85341966 C-573.12602797 814.84503277 -570.16533297 814.84373188 -567.20458984 814.84228516 C-565.09087518 814.83761957 -562.97716152 814.83247644 -560.8634491 814.82688904 C-556.29737822 814.81558235 -551.73131397 814.80716028 -547.16523361 814.80076981 C-539.93594676 814.79010456 -532.70670697 814.76986022 -525.47744751 814.74765015 C-504.91467462 814.68568744 -484.3519034 814.63181255 -463.7890625 814.59863281 C-452.44293277 814.58024424 -441.09688085 814.55124821 -429.75080836 814.5106281 C-423.7481528 814.48961541 -417.74559511 814.47410911 -411.74290085 814.47182083 C-406.08432388 814.46966154 -400.42595005 814.45366215 -394.76743507 814.42743111 C-392.69999756 814.42028309 -390.63253531 814.41811507 -388.56508827 814.42153358 C-360.86458163 814.45998921 -337.52714107 807.83521497 -317 788 C-313.6617405 784.19691956 -310.78376921 780.22239621 -308 776 C-306.93265625 774.41251953 -306.93265625 774.41251953 -305.84375 772.79296875 C-297.0026266 758.62407882 -293.83666129 742.34191728 -293.86971474 725.80011177 C-293.86777131 724.78241542 -293.86582788 723.76471906 -293.86382556 722.71618342 C-293.85849914 719.29621969 -293.86026855 715.87629628 -293.86196899 712.45632935 C-293.85955096 709.98339826 -293.8566887 707.51046757 -293.85341966 705.03753746 C-293.84728309 699.65559856 -293.84420333 694.2736708 -293.84379387 688.89172935 C-293.84314866 680.88808095 -293.83675287 672.88444443 -293.82904707 664.88080006 C-293.81697171 652.23882783 -293.80830937 639.59685615 -293.80200893 626.95487981 C-293.79197018 606.878263 -293.77271326 586.80166315 -293.75046654 566.72505653 C-293.74193621 558.99776978 -293.73366977 551.27048273 -293.72536278 543.54319572 C-293.72443777 542.68466498 -293.72351276 541.82613425 -293.72255972 540.94158742 C-293.70056871 520.5046798 -293.68077872 500.06777029 -293.66210938 479.63085938 C-293.6612897 478.73666202 -293.66047002 477.84246467 -293.6596255 476.92117043 C-293.64054875 456.0674641 -293.62358578 435.21375788 -293.61126709 414.36004639 C-293.61073742 413.4636846 -293.61020775 412.56732282 -293.60966204 411.64379855 C-293.60541052 404.41894268 -293.60123418 397.19408676 -293.59707724 389.96923083 C-293.57986691 360.15964433 -293.55263839 330.35008102 -293.51391686 300.54051443 C-293.50845535 296.32758629 -293.50312232 292.114658 -293.49787521 287.90172958 C-293.49684083 287.07262784 -293.49580645 286.24352609 -293.49474073 285.38930005 C-293.4784379 272.06388181 -293.47288834 258.73847984 -293.47157755 245.41305258 C-293.47007056 232.01030939 -293.45787761 218.60761026 -293.43482114 205.20488651 C-293.42147445 197.24996228 -293.41640295 189.29513439 -293.4233675 181.34020148 C-293.4276587 175.38860153 -293.41627153 169.4370966 -293.39897721 163.48551808 C-293.39441749 161.08638711 -293.39485032 158.68724003 -293.40092559 156.28811242 C-293.43995459 139.35758477 -292.42224557 123.51722967 -286.8125 107.375 C-286.50844238 106.49239502 -286.20438477 105.60979004 -285.89111328 104.70043945 C-277.03417118 79.83009184 -259.368837 58.52088694 -236 46 C-235.36610352 45.65984863 -234.73220703 45.31969727 -234.07910156 44.96923828 C-218.33765139 36.66996618 -201.56374628 31.86577935 -183.7109375 31.84178162 C-182.9159765 31.83684364 -182.12101549 31.83190566 -181.30196476 31.82681805 C-178.65964512 31.81155857 -176.01734955 31.80311404 -173.375 31.79467773 C-171.47236421 31.78509011 -169.56973052 31.77507952 -167.667099 31.76467896 C-162.51692396 31.73771965 -157.36673985 31.71666167 -152.21653366 31.69667697 C-146.82866525 31.67476187 -141.44082455 31.64740027 -136.05297852 31.62062073 C-125.85700313 31.57076839 -115.66101231 31.52580197 -105.46500683 31.48259836 C-93.85438303 31.43316213 -82.24378704 31.37826774 -70.63319016 31.32291877 C-46.75548606 31.20921327 -22.87775528 31.10234946 1 31 C0.10796875 30.33613281 -0.7840625 29.67226562 -1.703125 28.98828125 C-2.88566509 28.09668356 -4.06794292 27.20473795 -5.25 26.3125 C-6.12978516 25.65991211 -6.12978516 25.65991211 -7.02734375 24.99414062 C-11.6606934 21.4800833 -15.41487349 18.34050603 -16.875 12.5 C-17.00513593 8.85619399 -16.84944697 7.11043354 -15 4 C-10.24998839 -0.38462611 -6.27369392 -2.014909 0 0 Z " fill="#A4A4A4" transform="translate(1228,104)"/>
<path d="M0 0 C0 0.99 0 1.98 0 3 C-3.86082336 4.28694112 -7.50018519 4.13440961 -11.522995 4.12025452 C-12.40352203 4.12110894 -13.28404906 4.12196337 -14.19125873 4.12284368 C-17.15316103 4.12449587 -20.11500718 4.11898134 -23.0769043 4.11352539 C-25.19554645 4.11324344 -27.31418871 4.11340141 -29.43283081 4.1139679 C-35.19487461 4.11425555 -40.95689771 4.10836396 -46.71893668 4.10139394 C-52.73676178 4.0951551 -58.75458733 4.09455618 -64.77241516 4.09336853 C-76.17271972 4.09025678 -87.57301472 4.08204549 -98.97331506 4.07201904 C-111.95016185 4.06085306 -124.9270091 4.05534623 -137.9038595 4.05032361 C-164.60257848 4.03986276 -191.3012883 4.02206559 -218 4 C-218 10.27 -218 16.54 -218 23 C-146.39 23 -74.78 23 -1 23 C-1 23.66 -1 24.32 -1 25 C-5.54993793 26.14376452 -10.02169762 26.13975923 -14.68084717 26.12698364 C-15.55421038 26.12854363 -16.42757359 26.13010362 -17.32740235 26.13171089 C-20.25311614 26.13569876 -23.17877802 26.13253983 -26.10449219 26.12939453 C-28.20210297 26.13074951 -30.29971352 26.13252999 -32.39732361 26.13470459 C-38.09319993 26.13926627 -43.78905816 26.13749484 -49.48493481 26.1343255 C-55.43821957 26.13179673 -61.39150277 26.13414077 -67.3447876 26.13571167 C-77.33842243 26.13753128 -87.33204988 26.13513192 -97.32568359 26.13037109 C-108.89612441 26.12492293 -120.46654763 26.12669599 -132.03698802 26.1321975 C-141.95974146 26.13672747 -151.88248959 26.13737993 -161.80524373 26.13475883 C-167.73695365 26.13319618 -173.66865529 26.13300209 -179.60036469 26.13629532 C-185.17186882 26.13917254 -190.74335011 26.13720111 -196.31485176 26.13140106 C-198.36560846 26.13007292 -200.41636707 26.13046849 -202.46712303 26.13266373 C-205.25380424 26.13537295 -208.04041101 26.13199699 -210.8270874 26.12698364 C-211.64953595 26.12921436 -212.4719845 26.13144509 -213.31935573 26.13374341 C-218.88584977 26.11415023 -218.88584977 26.11415023 -220 25 C-220.09932153 23.30441274 -220.13080007 21.60474253 -220.1328125 19.90625 C-220.13474609 18.36130859 -220.13474609 18.36130859 -220.13671875 16.78515625 C-220.13285156 15.70105469 -220.12898437 14.61695313 -220.125 13.5 C-220.12886719 12.41589844 -220.13273438 11.33179688 -220.13671875 10.21484375 C-220.13542969 9.18488281 -220.13414062 8.15492188 -220.1328125 7.09375 C-220.13168457 6.14177734 -220.13055664 5.18980469 -220.12939453 4.20898438 C-220 2 -220 2 -219 1 C-216.21057689 0.88968956 -213.44538294 0.8450305 -210.65504456 0.84178162 C-209.7694704 0.83684364 -208.88389624 0.83190566 -207.97148651 0.82681805 C-204.98042335 0.81136273 -201.98938177 0.80306075 -198.99829102 0.79467773 C-196.86348274 0.78510538 -194.72867639 0.77509569 -192.59387207 0.76467896 C-186.77787902 0.73755082 -180.96187779 0.71658336 -175.14585614 0.69667697 C-169.07288438 0.67486063 -162.99993801 0.6474495 -156.92698669 0.62062073 C-145.41568554 0.57062543 -133.9043703 0.52571432 -122.39304155 0.48259836 C-109.29991913 0.43330929 -96.20682246 0.37835006 -83.11372483 0.32291877 C-62.78619827 0.23697334 -42.45866135 0.1541342 -22.13110352 0.07592773 C-21.102927 0.07196424 -20.07475048 0.06800076 -19.0154171 0.06391716 C-16.16759132 0.05296353 -13.31976529 0.04207856 -10.47193909 0.03123474 C-9.21519712 0.0264215 -9.21519712 0.0264215 -7.93306643 0.02151102 C-2.23574107 0 -2.23574107 0 0 0 Z " fill="#959595" transform="translate(860,918)"/>
<path d="M0 0 C-0.07825691 57.29402584 -0.15769377 114.58804998 -0.2436676 171.88206482 C-0.24493928 172.72976042 -0.24621096 173.57745602 -0.24752118 174.45083937 C-0.27516423 192.87264972 -0.30302725 211.29445973 -0.33111694 229.71626941 C-0.34489037 238.75005519 -0.35861519 247.78384105 -0.37231445 256.81762695 C-0.37367854 257.71660694 -0.37504262 258.61558693 -0.37644804 259.54180873 C-0.42065525 288.69096609 -0.46165068 317.84012689 -0.50098413 346.9892912 C-0.54141446 376.93877568 -0.58507786 406.88825374 -0.63282111 436.8377275 C-0.63955987 441.06591535 -0.64626158 445.29410325 -0.65294075 449.52229118 C-0.65425648 450.35447581 -0.65557221 451.18666044 -0.6569278 452.04406278 C-0.67802935 465.45087111 -0.69571319 478.85768187 -0.71212531 492.26449667 C-0.72868962 505.73623934 -0.74883938 519.20797285 -0.77266841 532.67970467 C-0.78672373 540.68776697 -0.79801056 548.69582212 -0.80536438 556.70389343 C-0.81115239 562.67757031 -0.82207936 568.65122598 -0.8350333 574.62489211 C-0.83947468 577.04626322 -0.84222967 579.46763811 -0.84316199 581.88901312 C-0.84466826 585.17170536 -0.85222764 588.45432944 -0.8613348 591.73700809 C-0.86031213 592.68443495 -0.85928946 593.63186181 -0.85823581 594.60799858 C-0.87878031 599.51232115 -1.16887105 604.1645169 -2 609 C-2.33 609 -2.66 609 -3 609 C-3.90668706 602.83731699 -4.13539848 596.86883208 -4.10743046 590.64519501 C-4.10689593 589.62294004 -4.1063614 588.60068508 -4.10581067 587.54745269 C-4.10277975 584.11815811 -4.09251364 580.68892368 -4.08229065 577.25964355 C-4.0785962 574.7778595 -4.07534709 572.29607475 -4.07250541 569.81428957 C-4.06530362 564.41655211 -4.05495401 559.01883433 -4.04183006 553.62110901 C-4.02233238 545.59491609 -4.00865629 537.56872059 -3.99616829 529.54251408 C-3.97499586 516.04053577 -3.94910924 502.53857034 -3.92053413 489.03660583 C-3.89225738 475.66833351 -3.86607699 462.30005978 -3.84269524 448.93177795 C-3.84124015 448.1005198 -3.83978506 447.26926165 -3.83828588 446.41281386 C-3.83090711 442.19125863 -3.82356579 437.96970334 -3.81623887 433.74814802 C-3.7642776 403.84836654 -3.70761775 373.94859563 -3.64819336 344.04882812 C-3.59047481 315.00195724 -3.53488539 285.95508355 -3.48217773 256.90820312 C-3.48055215 256.01282179 -3.47892657 255.11744045 -3.47725173 254.19492634 C-3.46092929 245.20312342 -3.44465012 236.21132042 -3.42840267 227.21951736 C-3.39530386 208.90224451 -3.36191621 190.5849722 -3.32835388 172.2677002 C-3.3268111 171.42550516 -3.32526832 170.58331013 -3.32367879 169.71559403 C-3.22062485 113.47705348 -3.11081646 57.23852573 -3 1 C-1 0 -1 0 0 0 Z " fill="#969696" transform="translate(938,239)"/>
<path d="M0 0 C2.88435369 -0.29417206 5.55402654 -0.39098728 8.44070435 -0.36076355 C9.32446051 -0.36332682 10.20821666 -0.3658901 11.11875331 -0.36853105 C14.09774294 -0.37349593 17.07623239 -0.3569316 20.05517578 -0.34057617 C22.18352242 -0.33973048 24.31186994 -0.3402039 26.44021606 -0.34190369 C32.23337733 -0.34276734 38.02635369 -0.32508181 43.81947184 -0.30418181 C49.86799091 -0.28547652 55.91651384 -0.28366944 61.96505737 -0.28010559 C73.42563884 -0.27076701 84.88613485 -0.24612874 96.34667861 -0.21605712 C109.39120483 -0.18256945 122.43573504 -0.16604129 135.48029351 -0.15097082 C162.32024313 -0.11958074 189.16011678 -0.06678509 216 0 C216 0.66 216 1.32 216 2 C211.44749493 3.14563413 206.97419033 3.13693206 202.31242371 3.12025452 C201.00132054 3.12153615 201.00132054 3.12153615 199.66373044 3.12284368 C196.73567899 3.12449045 193.80768485 3.11899023 190.87963867 3.11352539 C188.78040569 3.11324332 186.68117262 3.11340164 184.5819397 3.1139679 C178.88199571 3.11425509 173.18207273 3.10837085 167.48213363 3.10139394 C161.52571325 3.09514753 155.56929241 3.09455558 149.61286926 3.09336853 C138.33304554 3.09025902 127.0532315 3.08205074 115.77341205 3.07201904 C102.93194558 3.06084612 90.09047865 3.05534448 77.24900854 3.05032361 C50.83266699 3.03986783 24.41633404 3.02227572 -2 3 C-1.34 2.01 -0.68 1.02 0 0 Z " fill="#989898" transform="translate(643,941)"/>
<path d="M0 0 C4.31392226 0.4793247 6.16569547 1.7457985 9 5 C6.4462078 7.5537922 4.78062597 7.24864626 1.29782951 7.28433573 C0.49433795 7.282401 -0.30915362 7.28046626 -1.13699341 7.2784729 C-1.98808115 7.2842653 -2.83916889 7.2900577 -3.71604717 7.29602563 C-6.58433611 7.31310893 -9.45246497 7.31590926 -12.32080078 7.31884766 C-14.37033486 7.32814009 -16.41986514 7.33830773 -18.46939087 7.34928894 C-24.04759883 7.3766802 -29.62578142 7.3917653 -35.2040391 7.40471697 C-41.02837963 7.42030771 -46.85266802 7.44711076 -52.67697144 7.4727478 C-63.7125007 7.51960764 -74.74803969 7.55631681 -85.78361785 7.58942068 C-98.34452151 7.62759126 -110.90537289 7.67701461 -123.46623254 7.72740483 C-149.31078299 7.83083182 -175.155367 7.9200571 -201 8 C-199.68 7.67 -198.36 7.34 -197 7 C-197 6.34 -197 5.68 -197 5 C-191.91887652 4.16696492 -186.9827382 3.84867871 -181.83119202 3.84178162 C-181.03708544 3.83684364 -180.24297886 3.83190566 -179.42480844 3.82681805 C-176.77938274 3.81153117 -174.13398115 3.80310647 -171.48852539 3.79467773 C-169.58603709 3.78509227 -167.6835509 3.7750818 -165.78106689 3.76467896 C-160.62670059 3.73769621 -155.47232519 3.71665082 -150.3179276 3.69667697 C-144.92738399 3.67477643 -139.53686819 3.64740767 -134.14634705 3.62062073 C-123.94325523 3.57074879 -113.74014792 3.52578959 -103.53702587 3.48259836 C-91.91917018 3.43317895 -80.30134242 3.37827829 -68.68351376 3.32291877 C-44.78903524 3.20918315 -20.89452992 3.10232583 3 3 C2.01 2.01 1.02 1.02 0 0 Z " fill="#949494" transform="translate(1226,132)"/>
<path d="M0 0 C0 0.99 0 1.98 0 3 C-2.8781846 3.95939487 -4.66316695 4.12357029 -7.65068054 4.12025452 C-9.08306564 4.12231651 -9.08306564 4.12231651 -10.54438782 4.12442017 C-12.11315926 4.11902725 -12.11315926 4.11902725 -13.71362305 4.11352539 C-15.36751038 4.11374443 -15.36751038 4.11374443 -17.05480957 4.1139679 C-20.70713249 4.11327002 -24.35940471 4.10548344 -28.01171875 4.09765625 C-30.5409187 4.09579163 -33.07011902 4.09436793 -35.59931946 4.09336853 C-41.58098662 4.08993768 -47.56263195 4.08205244 -53.54429036 4.07201904 C-60.35438502 4.06084387 -67.16448054 4.05534391 -73.97458208 4.05032361 C-87.98306483 4.03986946 -101.99153142 4.02227875 -116 4 C-115.67 3.34 -115.34 2.68 -115 2 C-108.34584142 0.58554436 -101.21789029 0.83688605 -94.44140625 0.79467773 C-93.4385408 0.78477814 -92.43567535 0.77487854 -91.40242004 0.76467896 C-88.12246982 0.7333603 -84.84250522 0.70842194 -81.5625 0.68359375 C-79.27229461 0.66299553 -76.98209278 0.64199836 -74.69189453 0.62062073 C-68.68897419 0.565663 -62.68602098 0.51614505 -56.68304443 0.46777344 C-50.55559358 0.41740777 -44.42819072 0.36177554 -38.30078125 0.30664062 C-29.37502209 0.22699611 -20.44924914 0.14946902 -11.5234375 0.07592773 C-10.1130999 0.06425819 -10.1130999 0.06425819 -8.67427063 0.05235291 C-7.81931503 0.04538391 -6.96435944 0.03841492 -6.08349609 0.03123474 C-4.96640762 0.02212145 -4.96640762 0.02212145 -3.82675171 0.01282406 C-2.55119207 0.00386945 -1.27559107 0 0 0 Z " fill="#8D8D8D" transform="translate(860,918)"/>
<path d="M0 0 C63.36 0 126.72 0 192 0 C192.33 1.32 192.66 2.64 193 4 C191.87926138 4.83905565 190.75325453 5.67107831 189.625 6.5 C188.99851562 6.9640625 188.37203125 7.428125 187.7265625 7.90625 C186 9 186 9 184 9 C184 8.34 184 7.68 184 7 C185.32 6.01 186.64 5.02 188 4 C182.39 3.67 176.78 3.34 171 3 C171 2.67 171 2.34 171 2 C86.355 1.505 86.355 1.505 0 1 C0 0.67 0 0.34 0 0 Z " fill="#9C9C9C" transform="translate(1041,157)"/>
<path d="M0 0 C4.31392226 0.4793247 6.16569547 1.7457985 9 5 C8 6 8 6 4.12280273 6.11352539 C2.39305833 6.11336621 0.66330919 6.10766849 -1.06640625 6.09765625 C-1.97502914 6.0962413 -2.88365204 6.09482635 -3.81980896 6.09336853 C-6.73407221 6.08775193 -9.64825981 6.07519665 -12.5625 6.0625 C-14.53320202 6.05748714 -16.50390524 6.05292386 -18.47460938 6.04882812 C-23.31643559 6.03777711 -28.15820495 6.02050138 -33 6 C-33 5.34 -33 4.68 -33 4 C-21.12 3.67 -9.24 3.34 3 3 C2.01 2.01 1.02 1.02 0 0 Z " fill="#8C8C8C" transform="translate(1226,132)"/>
<path d="M0 0 C0.66 0 1.32 0 2 0 C1.82984375 0.54785156 1.6596875 1.09570312 1.484375 1.66015625 C-1.87135823 12.63768782 -4.97786317 23.69199797 -7 35 C-7.33 35 -7.66 35 -8 35 C-9.54749154 23.13589819 -5.28125914 10.56251828 0 0 Z " fill="#9C9C9C" transform="translate(945,202)"/>
<path d="M0 0 C-3.13784233 1.98730014 -6.34115695 3.65324103 -9.6875 5.25 C-15.1937275 7.95757352 -20.07305919 11.36245008 -25 15 C-25.66 14.67 -26.32 14.34 -27 14 C-23.54777255 8.68740554 -18.97569337 6.44130685 -13.5 3.625 C-12.64535156 3.16222656 -11.79070313 2.69945312 -10.91015625 2.22265625 C-10.08386719 1.79082031 -9.25757813 1.35898438 -8.40625 0.9140625 C-7.65666016 0.5217041 -6.90707031 0.1293457 -6.13476562 -0.27490234 C-3.65117502 -1.11848241 -2.43372496 -0.87440458 0 0 Z " fill="#999999" transform="translate(1006,146)"/>
<path d="M0 0 C-1.42694077 4.28082232 -4.65769616 5.63658047 -8.3125 7.9375 C-12.60757334 10.66329821 -16.56056799 13.18921543 -20 17 C-20.99 16.67 -21.98 16.34 -23 16 C-6.36758893 0 -6.36758893 0 0 0 Z " fill="#959595" transform="translate(1006,168)"/>
<path d="M0 0 C0.99 0.66 1.98 1.32 3 2 C-0.63 5.63 -4.26 9.26 -8 13 C-8.99 12.67 -9.98 12.34 -11 12 C-9.49650623 8.33213607 -7.36271208 6.31089607 -4.375 3.75 C-3.14910156 2.69039062 -3.14910156 2.69039062 -1.8984375 1.609375 C-1.27195312 1.07828125 -0.64546875 0.5471875 0 0 Z " fill="#9F9F9F" transform="translate(975,162)"/>
<path d="M0 0 C4.32001266 0.48000141 6.27322191 1.61503409 9 5 C11.40073049 9.22985849 10.91952595 12.31041765 10 17 C9.01 17.33 8.02 17.66 7 18 C7.08121094 17.27554688 7.16242188 16.55109375 7.24609375 15.8046875 C7.77399951 10.02692434 7.77399951 10.02692434 5.44140625 4.96875 C3.68537142 3.52717613 1.88682276 2.26109072 0 1 C0 0.67 0 0.34 0 0 Z " fill="#969696" transform="translate(1268,136)"/>
<path d="M0 0 C-6.95592374 3.13698522 -12.37256022 4.12927864 -20 4 C-19 2 -19 2 -15.9375 0.9375 C-5.03649635 -1.88868613 -5.03649635 -1.88868613 0 0 Z " fill="#939393" transform="translate(1039,159)"/>
<path d="M0 0 C0.66796875 1.68359375 0.66796875 1.68359375 1 4 C-0.07421875 6.47265625 -0.07421875 6.47265625 -1.6875 9.0625 C-2.20699219 9.91972656 -2.72648438 10.77695312 -3.26171875 11.66015625 C-4.98141589 13.97498453 -6.6114535 15.41283947 -9 17 C-9 12.78475431 -6.76377411 10.20136304 -4.5 6.8125 C-4.07074219 6.15830078 -3.64148438 5.50410156 -3.19921875 4.83007812 C-2.13889962 3.21603678 -1.07023847 1.60748119 0 0 Z " fill="#999999" transform="translate(943,884)"/>
<path d="M0 0 C0 0.66 0 1.32 0 2 C-3.29960141 3.6498007 -6.99127884 3.38258361 -10.625 3.5625 C-11.42679688 3.60568359 -12.22859375 3.64886719 -13.0546875 3.69335938 C-15.0362511 3.79951457 -17.01810271 3.90026855 -19 4 C-17.68 3.67 -16.36 3.34 -15 3 C-15 2.34 -15 1.68 -15 1 C-9.91913204 0.15318867 -5.15171623 -0.09038099 0 0 Z " fill="#999999" transform="translate(1044,136)"/>
<path d="M0 0 C-5.27330399 2.85637299 -10.89564881 5.57228292 -17 5 C-17 4.34 -17 3.68 -17 3 C-15.1096624 2.29753005 -13.21243172 1.61359151 -11.3125 0.9375 C-10.25675781 0.55464844 -9.20101562 0.17179688 -8.11328125 -0.22265625 C-4.90666208 -1.0233052 -3.1313693 -0.9237249 0 0 Z " fill="#8A8A8A" transform="translate(1024,140)"/>
<path d="M0 0 C-1 3 -1 3 -3.65234375 4.38671875 C-4.73644531 4.81597656 -5.82054687 5.24523437 -6.9375 5.6875 C-8.01902344 6.12449219 -9.10054687 6.56148437 -10.21484375 7.01171875 C-13 8 -13 8 -15 8 C-15 7.01 -15 6.02 -15 5 C-12.8765984 4.16260219 -10.7512272 3.33019717 -8.625 2.5 C-7.44164062 2.0359375 -6.25828125 1.571875 -5.0390625 1.09375 C-2 0 -2 0 0 0 Z " fill="#919191" transform="translate(896,930)"/>
<path d="M0 0 C-1 2 -1 2 -3.328125 2.8515625 C-4.77445313 3.23441406 -4.77445313 3.23441406 -6.25 3.625 C-7.20390625 3.88539063 -8.1578125 4.14578125 -9.140625 4.4140625 C-11.85576635 4.97044392 -14.23920177 5.11083497 -17 5 C-13.26518365 -0.13537249 -5.8173397 -0.29086699 0 0 Z " fill="#979797" transform="translate(879,915)"/>
<path d="M0 0 C0.66 0 1.32 0 2 0 C0.12275039 6.37732315 -1.85671642 12.70695459 -4 19 C-4.33 19 -4.66 19 -5 19 C-4.5464821 11.97047248 -2.87940913 6.4150557 0 0 Z " fill="#939393" transform="translate(945,202)"/>
<path d="M0 0 C1.44319692 0.90767102 2.87934106 1.82656106 4.3125 2.75 C5.11300781 3.26046875 5.91351562 3.7709375 6.73828125 4.296875 C9.00368861 6.00277761 10.42684167 7.65808145 12 10 C11.67 10.66 11.34 11.32 11 12 C7.04 8.7 3.08 5.4 -1 2 C-0.67 1.34 -0.34 0.68 0 0 Z " fill="#959595" transform="translate(1243,115)"/>
<path d="M0 0 C1.27310312 0.93441535 2.543388 1.87267111 3.8125 2.8125 C4.52019531 3.33457031 5.22789063 3.85664062 5.95703125 4.39453125 C7.78531393 5.83128877 9.39896688 7.31815763 11 9 C5.64847115 8.67566492 2.71719957 5.50295176 -1 2 C-0.67 1.34 -0.34 0.68 0 0 Z " fill="#929292" transform="translate(1214,120)"/>
<path d="M0 0 C1.8871875 0.0309375 1.8871875 0.0309375 3.8125 0.0625 C3.8125 0.7225 3.8125 1.3825 3.8125 2.0625 C0.93038698 3.02320434 -0.88600044 3.16831883 -3.875 3.125 C-5.08736328 3.11146484 -5.08736328 3.11146484 -6.32421875 3.09765625 C-7.24654297 3.08025391 -7.24654297 3.08025391 -8.1875 3.0625 C-6.45706736 -0.39836529 -3.47359009 -0.0569441 0 0 Z " fill="#919191" transform="translate(868.1875,938.9375)"/>
<path d="M0 0 C-1.95330868 1.03041513 -3.91281528 2.0490893 -5.875 3.0625 C-6.96554687 3.63097656 -8.05609375 4.19945312 -9.1796875 4.78515625 C-10.11039063 5.18605469 -11.04109375 5.58695313 -12 6 C-12.66 5.67 -13.32 5.34 -14 5 C-12.75443908 4.18071114 -11.50333365 3.36984814 -10.25 2.5625 C-9.20585938 1.88380859 -9.20585938 1.88380859 -8.140625 1.19140625 C-5.17385561 -0.45980664 -3.14566509 -1.57283254 0 0 Z " fill="#919191" transform="translate(894,909)"/>
<path d="M0 0 C1.32 0 2.64 0 4 0 C3.875 1.75 3.875 1.75 3 4 C-2.22222222 8 -2.22222222 8 -5 8 C-5 7.34 -5 6.68 -5 6 C-4.360625 5.525625 -3.72125 5.05125 -3.0625 4.5625 C-0.71627037 3.0908635 -0.71627037 3.0908635 0 0 Z " fill="#939393" transform="translate(1230,158)"/>
<path d="M0 0 C0.66 0.66 1.32 1.32 2 2 C0.71372289 3.17260611 -0.57919783 4.3379283 -1.875 5.5 C-2.59429688 6.1496875 -3.31359375 6.799375 -4.0546875 7.46875 C-6 9 -6 9 -8 9 C-6.4169423 4.7257442 -3.49431596 2.73468206 0 0 Z " fill="#999999" transform="translate(905,897)"/>
<path d="M0 0 C0.99 0.33 1.98 0.66 3 1 C0.36 3.97 -2.28 6.94 -5 10 C-5.33 9.01 -5.66 8.02 -6 7 C-4.78515625 5.17578125 -4.78515625 5.17578125 -3.0625 3.3125 C-2.49660156 2.68988281 -1.93070313 2.06726563 -1.34765625 1.42578125 C-0.90292969 0.95527344 -0.45820312 0.48476563 0 0 Z " fill="#959595" transform="translate(919,882)"/>
<path d="M0 0 C4.78480933 0.53164548 5.23111619 1.23111619 9 5 C5.04 5 1.08 5 -3 5 C-3 4.67 -3 4.34 -3 4 C-1.02 3.67 0.96 3.34 3 3 C2.01 2.01 1.02 1.02 0 0 Z " fill="#989898" transform="translate(1226,132)"/>
<path d="M0 0 C0.33 1.32 0.66 2.64 1 4 C-0.9375 6.25 -0.9375 6.25 -3 8 C-3.99 7.67 -4.98 7.34 -6 7 C-4.02 4.69 -2.04 2.38 0 0 Z " fill="#979797" transform="translate(927,906)"/>
<path d="M0 0 C2.10619469 3.46902655 2.10619469 3.46902655 1.625 5.875 C1.41875 6.57625 1.2125 7.2775 1 8 C0.82339844 8.70640625 0.64679687 9.4128125 0.46484375 10.140625 C-0.0234375 12.09375 -0.51171875 14.046875 -1 16 C-1.33 16 -1.66 16 -2 16 C-1.85764543 14.27054347 -1.71095618 12.54144346 -1.5625 10.8125 C-1.48128906 9.84957031 -1.40007813 8.88664063 -1.31640625 7.89453125 C-1.02333849 5.21350398 -0.57296246 2.6337014 0 0 Z " fill="#959595" transform="translate(956,842)"/>
<path d="M0 0 C0.6875 1.6875 0.6875 1.6875 1 4 C-0.25 6.6875 -0.25 6.6875 -2 9 C-2.99 9.33 -3.98 9.66 -5 10 C-3.84414715 6.08788267 -2.64465038 3.1254959 0 0 Z " fill="#9B9B9B" transform="translate(971,199)"/>
<path d="M0 0 C2.56687367 3.8503105 1.83288724 5.58569763 1 10 C0.01 10.33 -0.98 10.66 -2 11 C-1.85892253 9.54119891 -1.71197585 8.08296449 -1.5625 6.625 C-1.48128906 5.81289062 -1.40007812 5.00078125 -1.31640625 4.1640625 C-1 2 -1 2 0 0 Z " fill="#9D9D9D" transform="translate(1277,143)"/>
<path d="M0 0 C0 0.66 0 1.32 0 2 C-1.36125 2.6496875 -1.36125 2.6496875 -2.75 3.3125 C-5.43218449 4.70517271 -7.66139605 6.11112757 -10 8 C-9.62118922 5.25362183 -9.22167713 4.19950942 -7.125 2.3125 C-4.74458507 0.84224372 -2.82550095 0 0 0 Z " fill="#919191" transform="translate(1223,103)"/>
<path d="M0 0 C0.53625 0.226875 1.0725 0.45375 1.625 0.6875 C-1.7090947 2.87847652 -4.41679141 4.12204163 -8.375 4.6875 C-8.375 4.0275 -8.375 3.3675 -8.375 2.6875 C-2.95961538 -0.38942308 -2.95961538 -0.38942308 0 0 Z " fill="#929292" transform="translate(1004.375,145.3125)"/>
<path d="M0 0 C-1 3 -1 3 -2.8125 4.25 C-5.33943414 5.11637742 -6.52221994 4.88492145 -9 4 C-3.375 0 -3.375 0 0 0 Z " fill="#919191" transform="translate(908,924)"/>
<path d="M0 0 C0.33 0 0.66 0 1 0 C0.125 7.75 0.125 7.75 -1 10 C-1.66 10 -2.32 10 -3 10 C-2.49287967 6.28111761 -1.88391785 3.26545761 0 0 Z " fill="#989898" transform="translate(964,212)"/>
<path d="M0 0 C0.66 0.33 1.32 0.66 2 1 C0.68 2.65 -0.64 4.3 -2 6 C-3.32 5.67 -4.64 5.34 -6 5 C-4.02 3.35 -2.04 1.7 0 0 Z " fill="#929292" transform="translate(1254,169)"/>
<path d="M0 0 C2.64 0.33 5.28 0.66 8 1 C8 1.33 8 1.66 8 2 C2.06 2.495 2.06 2.495 -4 3 C-2.68 2.67 -1.36 2.34 0 2 C0 1.34 0 0.68 0 0 Z " fill="#8C8C8C" transform="translate(1029,137)"/>
<path d="M0 0 C0.33 0 0.66 0 1 0 C1.25 6.625 1.25 6.625 -1 10 C-2.46726798 6.18510326 -1.43336419 3.70988378 0 0 Z " fill="#919191" transform="translate(953,859)"/>
<path d="M0 0 C1.98 0 3.96 0 6 0 C6 0.99 6 1.98 6 3 C3.69 3 1.38 3 -1 3 C-0.67 2.01 -0.34 1.02 0 0 Z " fill="#989898" transform="translate(1221,190)"/>
<path d="M0 0 C0.66 0.66 1.32 1.32 2 2 C-0.97 4.475 -0.97 4.475 -4 7 C-4.33 6.01 -4.66 5.02 -5 4 C-3.35 2.68 -1.7 1.36 0 0 Z " fill="#969696" transform="translate(975,162)"/>
<path d="M0 0 C-3.22791555 2.1519437 -4.28400809 2.20086443 -8 2 C-8 1.34 -8 0.68 -8 0 C-5.13822943 -1.43088528 -3.06624227 -0.59991697 0 0 Z " fill="#969696" transform="translate(1015,143)"/>
<path d="" fill="#FFFFFF" transform="translate(0,0)"/>
<path d="" fill="#FFFFFF" transform="translate(0,0)"/>
<path d="" fill="#FFFFFF" transform="translate(0,0)"/>
</svg>
