<?xml version="1.0" encoding="UTF-8"?>
<svg version="1.1" xmlns="http://www.w3.org/2000/svg" width="404" height="411">
<path d="M0 0 C4.29158094 4.24123982 8.00693876 8.84211535 11.6640625 13.6328125 C12.34210938 14.50679687 13.02015625 15.38078125 13.71875 16.28125 C37.98865351 48.48372897 46.83584382 88.43053948 41.41796875 128.16015625 C39.32074674 141.51335461 35.20423484 154.32708154 29.6640625 166.6328125 C29.38224121 167.27283203 29.10041992 167.91285156 28.81005859 168.57226562 C22.02710618 183.77866364 12.1561343 196.64281731 0.6640625 208.6328125 C-0.15191406 209.51195312 -0.96789062 210.39109375 -1.80859375 211.296875 C-26.57732805 237.19643517 -63.26660995 253.29781677 -99.05737305 254.74267578 C-111.28349781 254.98933321 -123.29373034 254.94300439 -135.3359375 252.6328125 C-135.97450684 252.51454102 -136.61307617 252.39626953 -137.27099609 252.27441406 C-167.07332176 246.59571637 -192.41902296 232.30057647 -214.3359375 211.6328125 C-215.01011719 211.01148438 -215.68429688 210.39015625 -216.37890625 209.75 C-243.22116062 184.14002477 -258.21039134 146.31307139 -259.62109375 109.62890625 C-260.01312798 92.03514071 -257.90061678 75.36483451 -252.3359375 58.6328125 C-251.92730469 57.38371094 -251.51867187 56.13460937 -251.09765625 54.84765625 C-244.25950316 34.88569991 -232.79315035 17.88562668 -218.3359375 2.6328125 C-217.64854492 1.88862061 -217.64854492 1.88862061 -216.94726562 1.12939453 C-191.40840719 -26.41899559 -154.17783029 -43.18878841 -116.70703125 -45.2890625 C-71.61458289 -46.33407868 -32.99789383 -30.39524305 0 0 Z M-197.3359375 14.6328125 C-198.67591797 15.87804687 -198.67591797 15.87804687 -200.04296875 17.1484375 C-222.1493279 38.29633912 -235.54406966 68.850683 -236.5390625 99.4375 C-237.10964299 136.46708329 -224.63854818 168.30887267 -198.91845703 195.10986328 C-175.12931063 219.07867368 -142.45062975 231.45550163 -108.9609375 231.8828125 C-92.87604092 231.89185065 -77.39924766 229.27105606 -62.3359375 223.6328125 C-61.69237305 223.3961084 -61.04880859 223.1594043 -60.38574219 222.91552734 C-43.50072634 216.55530879 -29.10336085 206.25837559 -16.3359375 193.6328125 C-15.70945312 193.06691406 -15.08296875 192.50101563 -14.4375 191.91796875 C-1.35206422 179.84619349 7.51254221 163.23927612 13.4765625 146.6953125 C13.75467773 145.93387939 14.03279297 145.17244629 14.31933594 144.38793945 C18.78037925 131.34033865 20.2574946 118.15123707 20.1640625 104.4453125 C20.16196777 103.731474 20.15987305 103.0176355 20.15771484 102.28216553 C19.96071611 69.51562084 6.60034109 41.48561165 -15.3359375 17.6328125 C-15.94953125 16.94832031 -16.563125 16.26382813 -17.1953125 15.55859375 C-39.37754583 -7.99630253 -71.80695131 -20.15526996 -103.60546875 -21.58984375 C-139.25368741 -22.6100656 -171.65697127 -10.01237893 -197.3359375 14.6328125 Z " fill="#4B78BB" transform="translate(314.3359375,94.3671875)"/>
<path d="M0 0 C1.18811279 0.00491455 2.37622559 0.0098291 3.6003418 0.01489258 C12.01236823 0.12739139 19.56846063 0.74718248 27.625 3.3125 C28.79804688 3.66441406 29.97109375 4.01632813 31.1796875 4.37890625 C42.72040301 8.13894582 54.11981626 14.03659852 61.1875 24.1875 C65.09053102 29.23630717 69.06429874 31.30883566 74.79296875 33.91015625 C83.31211795 38.12860392 87.05713062 45.82384432 90.625 54.3125 C93.53137661 63.40153231 91.79141966 72.95269356 87.625 81.3125 C85.67323812 84.44024459 83.8658761 86.84297931 80.3125 88.1875 C79.755625 88.22875 79.19875 88.27 78.625 88.3125 C75.98034962 85.1870041 74.78085285 82.22461733 73.625 78.3125 C73.03074219 78.44527344 72.43648437 78.57804687 71.82421875 78.71484375 C67.12616401 79.71582898 62.61251947 80.42010761 57.8125 80.6875 C53.24055955 81.02974978 50.9419608 81.9955392 47.625 85.3125 C46.965 85.3125 46.305 85.3125 45.625 85.3125 C44.21489864 88.1010861 42.85856282 90.90654658 41.5625 93.75 C41.22089844 94.49121094 40.87929688 95.23242188 40.52734375 95.99609375 C35.84500884 108.01611366 39.29370583 120.20089757 43.98217773 131.6171875 C45.45521384 134.94835095 46.9695814 138.25733239 48.5 141.5625 C61.96456602 171.29530248 61.96456602 171.29530248 61.625 181.3125 C58.54312278 185.2235117 54.41469317 187.38727389 50.125 189.75 C49.42101074 190.14179443 48.71702148 190.53358887 47.99169922 190.93725586 C32.68993928 199.3125 32.68993928 199.3125 27.625 199.3125 C28.02525398 195.51008723 28.96750779 192.40023048 30.5 188.9375 C39.17737939 167.75075981 36.52725045 144.43736874 29.28027344 123.28198242 C27.60781792 118.25526906 27.34863826 113.24899535 27.0625 108 C27.01931641 107.25943359 26.97613281 106.51886719 26.93164062 105.75585938 C26.82629568 103.94158536 26.72521684 102.1270645 26.625 100.3125 C25.305 100.3125 23.985 100.3125 22.625 100.3125 C22.955 97.6725 23.285 95.0325 23.625 92.3125 C19.88563522 96.4028084 16.87815177 100.18032097 14.625 105.3125 C14.295 105.3125 13.965 105.3125 13.625 105.3125 C14.0756308 95.37609094 17.61024058 89.83888479 24.65234375 83.046875 C26.82841025 81.13366009 29.0311267 79.60943665 31.625 78.3125 C28.22680181 76.04703454 25.81033574 75.66128283 21.8125 74.9375 C14.89001743 73.52299892 10.65294581 72.35441871 6.625 66.3125 C6.1875 63.9375 6.1875 63.9375 6.625 61.3125 C10.79851318 56.06195116 17.23786377 51.44154541 23.625 49.3125 C24.35580266 47.33503397 25.01921747 45.33177511 25.625 43.3125 C26.285 42.3225 26.945 41.3325 27.625 40.3125 C28.676875 40.415625 29.72875 40.51875 30.8125 40.625 C34.54681721 40.71181029 34.54681721 40.71181029 36.359375 38.71875 C37.51413228 37.29914013 38.65439705 35.86764082 39.78125 34.42578125 C42.56595239 31.23399313 45.92943596 29.30906447 49.625 27.3125 C35.22892573 13.85530014 15.51324423 10.03506783 -3.72314453 10.35107422 C-17.63019162 11.06433461 -30.56780766 15.20368963 -43 21.3125 C-43.65105713 21.63234863 -44.30211426 21.95219727 -44.97290039 22.28173828 C-49.27212902 24.49755904 -52.75504345 27.10466158 -56.375 30.3125 C-37.83964314 27.61564782 -37.83964314 27.61564782 -20.6953125 20.60546875 C-12.69748518 16.14876699 -2.45382728 16.31276027 6.234375 18.5 C14.36511105 21.26338742 22.23275778 25.68463934 26.625 33.3125 C27.15957968 35.93095048 27.01675803 37.62615925 26.625 40.3125 C25.305 40.9725 23.985 41.6325 22.625 42.3125 C20.975 40.6625 19.325 39.0125 17.625 37.3125 C17.41875 38.488125 17.2125 39.66375 17 40.875 C15.78630455 45.69559319 13.41497134 49.11369941 9.625 52.3125 C2.7793501 56.35634382 -5.32345874 57.467138 -13.109375 55.6875 C-19.1520902 53.25419186 -22.08965798 49.68610013 -25.6875 44.375 C-26.69816702 41.34299895 -26.4967722 38.47857719 -26.375 35.3125 C-43.67795796 39.98897512 -57.3672277 48.0589234 -67.375 63.3125 C-69.73647608 67.52635473 -71.84639065 71.72667195 -73.375 76.3125 C-72.22644531 76.168125 -71.07789063 76.02375 -69.89453125 75.875 C-60.65750598 74.75650849 -51.69158784 74.01621275 -42.375 74.3125 C-42.9727022 77.6290183 -44.05028313 79.35427182 -46.25 81.875 C-50.03621721 86.55713281 -52.92484873 91.58568363 -55.875 96.8125 C-59.61493583 103.38843302 -63.27750836 109.67606651 -68.375 115.3125 C-69.06335938 116.10398437 -69.75171875 116.89546875 -70.4609375 117.7109375 C-81.29836949 129.41248367 -96.3217522 138.73900069 -112.40234375 140.33203125 C-114.65497541 140.30972797 -116.27982856 140.16961559 -118.375 139.3125 C-119.67578125 137.45703125 -119.67578125 137.45703125 -120.6875 135.125 C-121.03425781 134.36832031 -121.38101563 133.61164063 -121.73828125 132.83203125 C-122.76575105 128.76627652 -122.09847895 125.63334689 -120.09765625 121.98046875 C-119.27587891 120.75263672 -119.27587891 120.75263672 -118.4375 119.5 C-110.61184418 106.53725724 -105.8749266 91.67541362 -100.87451172 77.44873047 C-90.59121562 48.19737451 -75.46908986 24.94097957 -47.5625 10.0625 C-32.44673416 2.87402483 -16.67506308 -0.08188594 0 0 Z M-3.375 26.3125 C-4.74123674 29.04497348 -4.503426 31.29448902 -4.375 34.3125 C-3.20389816 35.70158639 -3.20389816 35.70158639 0.0625 35.5625 C1.238125 35.48 2.41375 35.3975 3.625 35.3125 C5.87662602 32.55778606 5.87662602 32.55778606 5.5625 29.75 C4.83749551 27.10368348 4.83749551 27.10368348 2.25 25.9375 C-0.46106269 25.0482082 -0.46106269 25.0482082 -3.375 26.3125 Z M-19 31.3125 C-21.16514134 34.46179649 -20.87339669 37.67143529 -20.375 41.3125 C-18.37203332 46.98757225 -14.76149821 50.61925089 -9.375 53.3125 C-7.37539988 53.352492 -5.37452758 53.35596799 -3.375 53.3125 C-4.365 52.6525 -5.355 51.9925 -6.375 51.3125 C-10.73053354 48.04584985 -13.57392621 45.61566172 -15.375 40.3125 C-15.6010541 36.9618759 -15.55385196 33.66431824 -15.375 30.3125 C-17.40912093 30.13780086 -17.40912093 30.13780086 -19 31.3125 Z M46.625 36.3125 C43.14161823 39.61346028 40.66938179 42.98062591 38.75 47.375 C36.45973491 52.16879374 33.30429897 54.85586804 28.625 57.3125 C25.20463389 58.51596215 21.79254359 59.53500294 18.28515625 60.453125 C17.40730469 60.73671875 16.52945313 61.0203125 15.625 61.3125 C15.295 61.9725 14.965 62.6325 14.625 63.3125 C23.79344842 63.66363207 31.73391595 63.05199465 40.72265625 61.04296875 C46.37415733 59.98508016 51.9887553 59.74626965 57.72265625 59.5 C60.97075431 59.34393523 64.14828321 59.07106217 67.375 58.6875 C70.67158912 58.32183738 73.40043846 58.34513154 76.625 59.3125 C76.02549704 55.62983897 75.37741109 51.96706815 74.625 48.3125 C76.605 49.9625 78.585 51.6125 80.625 53.3125 C79.21974558 48.84123593 77.07428976 46.4409256 73.625 43.3125 C72.8825 42.631875 72.14 41.95125 71.375 41.25 C64.2649826 36.24066956 54.44483328 30.82197876 46.625 36.3125 Z " fill="#4C7ABC" transform="translate(216.375,112.6875)"/>
<path d="M0 0 C29.61585542 -0.62487468 29.61585542 -0.62487468 41 3 C42.75957031 3.52787109 42.75957031 3.52787109 44.5546875 4.06640625 C56.09540301 7.82644582 67.49481626 13.72409852 74.5625 23.875 C78.46553102 28.92380717 82.43929874 30.99633566 88.16796875 33.59765625 C96.68711795 37.81610392 100.43213062 45.51134432 104 54 C106.90637661 63.08903231 105.16641966 72.64019356 101 81 C99.04823812 84.12774459 97.2408761 86.53047931 93.6875 87.875 C93.130625 87.91625 92.57375 87.9575 92 88 C89.35534962 84.8745041 88.15585285 81.91211733 87 78 C86.40574219 78.13277344 85.81148437 78.26554687 85.19921875 78.40234375 C80.50116401 79.40332898 75.98751947 80.10760761 71.1875 80.375 C66.61555955 80.71724978 64.3169608 81.6830392 61 85 C60.34 85 59.68 85 59 85 C57.58989864 87.7885861 56.23356282 90.59404658 54.9375 93.4375 C54.42509766 94.54931641 54.42509766 94.54931641 53.90234375 95.68359375 C49.22000884 107.70361366 52.66870583 119.88839757 57.35717773 131.3046875 C58.83021384 134.63585095 60.3445814 137.94483239 61.875 141.25 C75.33956602 170.98280248 75.33956602 170.98280248 75 181 C71.91812278 184.9110117 67.78969317 187.07477389 63.5 189.4375 C62.79601074 189.82929443 62.09202148 190.22108887 61.36669922 190.62475586 C46.06493928 199 46.06493928 199 41 199 C41.40025398 195.19758723 42.34250779 192.08773048 43.875 188.625 C52.55237939 167.43825981 49.90225045 144.12486874 42.65527344 122.96948242 C40.98281792 117.94276906 40.72363826 112.93649535 40.4375 107.6875 C40.39431641 106.94693359 40.35113281 106.20636719 40.30664062 105.44335938 C40.20129568 103.62908536 40.10021684 101.8145645 40 100 C38.68 100 37.36 100 36 100 C36.33 97.36 36.66 94.72 37 92 C33.26063522 96.0903084 30.25315177 99.86782097 28 105 C27.67 105 27.34 105 27 105 C27.4506308 95.06359094 30.98524058 89.52638479 38.02734375 82.734375 C40.20341025 80.82116009 42.4061267 79.29693665 45 78 C41.60180181 75.73453454 39.18533574 75.34878283 35.1875 74.625 C28.26501743 73.21049892 24.02794581 72.04191871 20 66 C19.5625 63.625 19.5625 63.625 20 61 C24.17351318 55.74945116 30.61286377 51.12904541 37 49 C37.73080266 47.02253397 38.39421747 45.01927511 39 43 C39.66 42.01 40.32 41.02 41 40 C42.5778125 40.1546875 42.5778125 40.1546875 44.1875 40.3125 C47.92181721 40.39931029 47.92181721 40.39931029 49.734375 38.40625 C50.88913228 36.98664013 52.02939705 35.55514082 53.15625 34.11328125 C55.94095239 30.92149313 59.30443596 28.99656447 63 27 C48.60392573 13.54280014 28.88824423 9.72256783 9.65185547 10.03857422 C-4.25519162 10.75183461 -17.19280766 14.89118963 -29.625 21 C-30.27605713 21.31984863 -30.92711426 21.63969727 -31.59790039 21.96923828 C-35.89712902 24.18505904 -39.38004345 26.79216158 -43 30 C-24.46464314 27.30314782 -24.46464314 27.30314782 -7.3203125 20.29296875 C0.67751482 15.83626699 10.92117272 16.00026027 19.609375 18.1875 C27.74011105 20.95088742 35.60775778 25.37213934 40 33 C40.53457968 35.61845048 40.39175803 37.31365925 40 40 C38.02 40.99 38.02 40.99 36 42 C34.35 40.35 32.7 38.7 31 37 C30.690625 38.7634375 30.690625 38.7634375 30.375 40.5625 C29.16130455 45.38309319 26.78997134 48.80119941 23 52 C16.1543501 56.04384382 8.05154126 57.154638 0.265625 55.375 C-5.7770902 52.94169186 -8.71465798 49.37360013 -12.3125 44.0625 C-13.32316702 41.03049895 -13.1217722 38.16607719 -13 35 C-30.30295796 39.67647512 -43.9922277 47.7464234 -54 63 C-56.36147608 67.21385473 -58.47139065 71.41417195 -60 76 C-60.66 76 -61.32 76 -62 76 C-60.62173803 66.47585642 -54.22201204 56.30735088 -47 50 C-46.34 50 -45.68 50 -45 50 C-44.80019531 49.4328125 -44.60039062 48.865625 -44.39453125 48.28125 C-42.45779561 45.1130326 -39.7619668 43.44518038 -36.6875 41.5 C-35.7605835 40.90844116 -35.7605835 40.90844116 -34.81494141 40.30493164 C-27.83060621 36.02784765 -20.2658427 33 -12 33 C-10.66690345 35.66619309 -10.63339354 38.17944495 -10.37890625 41.125 C-10.13206223 43.23662643 -10.13206223 43.23662643 -8 45 C-7.30251417 46.31747324 -6.63040043 47.64914193 -6 49 C-6 48.01 -6 47.02 -6 46 C-3.43166279 47.18538641 -1.2768348 48.5017881 1.0625 50.125 C3.84064436 52.26901773 3.84064436 52.26901773 7 52 C6.52949219 51.63648438 6.05898437 51.27296875 5.57421875 50.8984375 C1.55836772 47.65582487 -1.38102171 45.0474029 -3 40 C-3.22408796 36.3178273 -3.17695249 32.68323332 -3 29 C-2.01 29 -1.02 29 0 29 C0 31.64 0 34.28 0 37 C3.20211302 37.12126781 3.20211302 37.12126781 7 36 C6.01 31.545 6.01 31.545 5 27 C9.12590755 24.64233854 12.2254026 23.06583964 17 24 C19.5 26.625 19.5 26.625 21 30 C20.25 33.375 20.25 33.375 19 36 C19.66 36 20.32 36 21 36 C21.495 37.98 21.495 37.98 22 40 C23.65 39.67 25.3 39.34 27 39 C27.33 37.35 27.66 35.7 28 34 C31.43338516 35.20632452 33.50364585 36.38477184 36 39 C36.66 39 37.32 39 38 39 C37.01 34.545 37.01 34.545 36 30 C35.34 30 34.68 30 34 30 C33.401875 29.278125 32.80375 28.55625 32.1875 27.8125 C26.0925305 21.59314337 16.82533442 19.67672066 8.4375 19.375 C0.80982261 19.62820091 -7.43203248 21.43203248 -13 27 C-19.11259374 28.99302979 -25.3660428 30.21276811 -31.765625 30.73828125 C-35.19121673 31.13953063 -38.50146624 32.02260391 -41.8359375 32.890625 C-44 33 -44 33 -45.7890625 31.546875 C-46.38847656 30.78117187 -46.38847656 30.78117187 -47 30 C-45.46739776 28.69759098 -43.92345173 27.40852488 -42.375 26.125 C-41.51648438 25.40570313 -40.65796875 24.68640625 -39.7734375 23.9453125 C-36.89905187 21.92919413 -34.36562459 20.93763735 -31 20 C-31 19.34 -31 18.68 -31 18 C-19.97182192 12.50841744 -8.4013874 8.38754336 4 8 C4.69867188 7.97421875 5.39734375 7.9484375 6.1171875 7.921875 C23.70927466 7.34508526 42.54802931 8.31939092 57.24609375 19.14453125 C59.01639076 20.21701296 59.01639076 20.21701296 61.22265625 19.63671875 C61.80917969 19.42660156 62.39570313 19.21648437 63 19 C63 18.01 63 17.02 63 16 C59.9256929 13.59318338 56.43584471 11.84149646 53 10 C52.28199219 9.61328125 51.56398438 9.2265625 50.82421875 8.828125 C38.99425027 3.03567339 26.48960593 2.5717429 13.625 2.8125 C12.19532689 2.82760218 10.76563802 2.84128063 9.3359375 2.85351562 C5.89028802 2.88601887 2.44525151 2.93748148 -1 3 C-0.67 2.01 -0.34 1.02 0 0 Z M10 26 C8.63376326 28.73247348 8.871574 30.98198902 9 34 C10.17110184 35.38908639 10.17110184 35.38908639 13.4375 35.25 C14.613125 35.1675 15.78875 35.085 17 35 C19.25162602 32.24528606 19.25162602 32.24528606 18.9375 29.4375 C18.21249551 26.79118348 18.21249551 26.79118348 15.625 25.625 C12.91393731 24.7357082 12.91393731 24.7357082 10 26 Z M60 36 C56.51661823 39.30096028 54.04438179 42.66812591 52.125 47.0625 C49.83473491 51.85629374 46.67929897 54.54336804 42 57 C38.57963389 58.20346215 35.16754359 59.22250294 31.66015625 60.140625 C30.78230469 60.42421875 29.90445313 60.7078125 29 61 C28.67 61.66 28.34 62.32 28 63 C37.16844842 63.35113207 45.10891595 62.73949465 54.09765625 60.73046875 C59.74915733 59.67258016 65.3637553 59.43376965 71.09765625 59.1875 C74.34575431 59.03143523 77.52328321 58.75856217 80.75 58.375 C84.04658912 58.00933738 86.77543846 58.03263154 90 59 C89.40049704 55.31733897 88.75241109 51.65456815 88 48 C89.98 49.65 91.96 51.3 94 53 C92.59474558 48.52873593 90.44928976 46.1284256 87 43 C86.2575 42.319375 85.515 41.63875 84.75 40.9375 C77.6399826 35.92816956 67.81983328 30.50947876 60 36 Z " fill="#4F76B4" transform="translate(203,113)"/>
<path d="M0 0 C0.99 0.495 0.99 0.495 2 1 C-1.95866451 20.86708647 -9.23816599 37.06913352 -22.203125 52.80859375 C-24.02340496 54.97405947 -24.02340496 54.97405947 -25.609375 57.28515625 C-26.06828125 57.85105469 -26.5271875 58.41695313 -27 59 C-27.66 59 -28.32 59 -29 59 C-29 59.66 -29 60.32 -29 61 C-46.08074821 76.94419652 -46.08074821 76.94419652 -56 79 C-67.11968689 74.3653286 -82.52216094 58.68602556 -88 48 C-87.85668945 45.87109375 -87.85668945 45.87109375 -87 44 C-84.50177789 42.6659979 -82.10910683 41.56855667 -79.5 40.5 C-68.93108936 35.87751364 -59.40791413 29.48234866 -50.64379883 21.98413086 C-47.8479457 19.88588556 -45.35571331 18.74510332 -42.08984375 17.51953125 C-40.94370605 17.08157227 -39.79756836 16.64361328 -38.61669922 16.19238281 C-37.40256348 15.73702148 -36.18842773 15.28166016 -34.9375 14.8125 C-32.41517819 13.85223311 -29.89622196 12.88346595 -27.37890625 11.91015625 C-26.75250244 11.66816498 -26.12609863 11.42617371 -25.48071289 11.17684937 C-18.81624803 8.5780856 -12.32181944 5.63216377 -5.86694336 2.55395508 C-3.93579844 1.64842732 -1.97073928 0.81577443 0 0 Z " fill="#4C79BC" transform="translate(195,219)"/>
<path d="M0 0 C2 1 2 1 3.03515625 3.9140625 C3.37417969 5.13867188 3.71320313 6.36328125 4.0625 7.625 C4.40410156 8.83414063 4.74570313 10.04328125 5.09765625 11.2890625 C10.92845204 35.2685257 6.16023872 60.85804193 -6.546875 81.76953125 C-8 84 -8 84 -9 85 C-28.47323558 86.73411295 -46.42491922 80.76468199 -64 73 C-64 71.68 -64 70.36 -64 69 C-61.56317481 67.24947669 -59.22475127 65.77934541 -56.625 64.3125 C-49.65751766 60.18342264 -43.84725602 55.62480606 -38 50 C-36.67203114 48.86867269 -35.3388816 47.74339118 -34 46.625 C-19.23964055 33.63943327 -9.23034952 17.13882182 0 0 Z " fill="#4A79BB" transform="translate(217,233)"/>
<path d="M0 0 C4.23548286 2.11774143 5.38988385 3.62968473 7 8 C7.99 8.33 8.98 8.66 10 9 C12.87112014 16.5617292 10.9183331 24.80839343 8 32 C7.34 31.67 6.68 31.34 6 31 C6 30.34 6 29.68 6 29 C0.42309122 28.82295528 -4.33763217 29.13724985 -9.73828125 30.50390625 C-12.07247462 31.01589685 -14.30565681 31.21142283 -16.6875 31.375 C-21.13992329 31.78754971 -23.47010904 33.33105806 -27 36 C-27.66 36 -28.32 36 -29 36 C-29.2475 36.515625 -29.495 37.03125 -29.75 37.5625 C-30.75464535 39.52155843 -31.8620399 41.42775359 -33 43.3125 C-35.01328267 46.78315893 -36.04767172 50.11132619 -37 54 C-37.66 53.67 -38.32 53.34 -39 53 C-39.99 54.65 -40.98 56.3 -42 58 C-42.66 57.34 -43.32 56.68 -44 56 C-44 54.68 -44 53.36 -44 52 C-45.98 52.66 -47.96 53.32 -50 54 C-51.24451915 50.40472245 -50.70603283 47.68706033 -50 44 C-50 43.01 -50 42.02 -50 41 C-48.3203125 39.75390625 -48.3203125 39.75390625 -46.125 38.5625 C-42.86319655 36.79130565 -41.29333552 35.53284807 -40 32 C-40 31.01 -40 30.02 -40 29 C-42.97 28.01 -45.94 27.02 -49 26 C-49 25.34 -49 24.68 -49 24 C-49.81984375 23.97421875 -50.6396875 23.9484375 -51.484375 23.921875 C-52.56203125 23.86515625 -53.6396875 23.8084375 -54.75 23.75 C-55.81734375 23.70359375 -56.8846875 23.6571875 -57.984375 23.609375 C-61.56926579 22.88496702 -62.84298647 21.91831242 -65 19 C-64.75 15.75 -64.75 15.75 -64 13 C-63.34 13 -62.68 13 -62 13 C-61.67 13.66 -61.34 14.32 -61 15 C-51.21254447 15.32345324 -42.43819743 14.90950325 -32.83203125 12.73046875 C-27.20661375 11.65814146 -21.61313401 11.43211117 -15.90234375 11.19140625 C-12.64494905 11.03163414 -9.48106094 10.73018544 -6.25 10.3125 C-2.6539059 9.90747916 -0.23540902 10.16660155 3 12 C2.7834375 11.46890625 2.566875 10.9378125 2.34375 10.390625 C2.0653125 9.68421875 1.786875 8.9778125 1.5 8.25 C1.2215625 7.55390625 0.943125 6.8578125 0.65625 6.140625 C0 4 0 4 0 0 Z " fill="#537FBD" transform="translate(290,160)"/>
<path d="M0 0 C22.71357502 -0.74470738 42.33960742 2.78404878 59.8828125 18.078125 C59.2228125 18.738125 58.5628125 19.398125 57.8828125 20.078125 C57.19058594 19.40716797 57.19058594 19.40716797 56.484375 18.72265625 C42.20044388 5.48320231 22.52900988 1.80466906 3.53466797 2.11669922 C-10.37237912 2.82995961 -23.30999516 6.96931463 -35.7421875 13.078125 C-36.39324463 13.39797363 -37.04430176 13.71782227 -37.71508789 14.04736328 C-42.01431652 16.26318404 -45.49723095 18.87028658 -49.1171875 22.078125 C-30.58183064 19.38127282 -30.58183064 19.38127282 -13.4375 12.37109375 C-5.43967268 7.91439199 4.80398522 8.07838527 13.4921875 10.265625 C21.62292355 13.02901242 29.49057028 17.45026434 33.8828125 25.078125 C34.41739218 27.69657548 34.27457053 29.39178425 33.8828125 32.078125 C31.9028125 33.068125 31.9028125 33.068125 29.8828125 34.078125 C28.2328125 32.428125 26.5828125 30.778125 24.8828125 29.078125 C24.6765625 30.25375 24.4703125 31.429375 24.2578125 32.640625 C23.04411705 37.46121819 20.67278384 40.87932441 16.8828125 44.078125 C10.0371626 48.12196882 1.93435376 49.232763 -5.8515625 47.453125 C-11.8942777 45.01981686 -14.83184548 41.45172513 -18.4296875 36.140625 C-19.44035452 33.10862395 -19.2389597 30.24420219 -19.1171875 27.078125 C-36.42014546 31.75460012 -50.1094152 39.8245484 -60.1171875 55.078125 C-62.47866358 59.29197973 -64.58857815 63.49229695 -66.1171875 68.078125 C-66.7771875 68.078125 -67.4371875 68.078125 -68.1171875 68.078125 C-66.73892553 58.55398142 -60.33919954 48.38547588 -53.1171875 42.078125 C-52.4571875 42.078125 -51.7971875 42.078125 -51.1171875 42.078125 C-50.91738281 41.5109375 -50.71757812 40.94375 -50.51171875 40.359375 C-48.57498311 37.1911576 -45.8791543 35.52330538 -42.8046875 33.578125 C-41.877771 32.98656616 -41.877771 32.98656616 -40.93212891 32.38305664 C-33.94779371 28.10597265 -26.3830302 25.078125 -18.1171875 25.078125 C-16.78409095 27.74431809 -16.75058104 30.25756995 -16.49609375 33.203125 C-16.24924973 35.31475143 -16.24924973 35.31475143 -14.1171875 37.078125 C-13.41970167 38.39559824 -12.74758793 39.72726693 -12.1171875 41.078125 C-12.1171875 40.088125 -12.1171875 39.098125 -12.1171875 38.078125 C-9.54885029 39.26351141 -7.3940223 40.5799131 -5.0546875 42.203125 C-2.27654314 44.34714273 -2.27654314 44.34714273 0.8828125 44.078125 C0.41230469 43.71460938 -0.05820313 43.35109375 -0.54296875 42.9765625 C-4.55881978 39.73394987 -7.49820921 37.1255279 -9.1171875 32.078125 C-9.34127546 28.3959523 -9.29413999 24.76135832 -9.1171875 21.078125 C-8.1271875 21.078125 -7.1371875 21.078125 -6.1171875 21.078125 C-6.1171875 23.718125 -6.1171875 26.358125 -6.1171875 29.078125 C-2.91507448 29.19939281 -2.91507448 29.19939281 0.8828125 28.078125 C-0.1071875 23.623125 -0.1071875 23.623125 -1.1171875 19.078125 C3.00872005 16.72046354 6.1082151 15.14396464 10.8828125 16.078125 C13.3828125 18.703125 13.3828125 18.703125 14.8828125 22.078125 C14.1328125 25.453125 14.1328125 25.453125 12.8828125 28.078125 C13.5428125 28.078125 14.2028125 28.078125 14.8828125 28.078125 C15.3778125 30.058125 15.3778125 30.058125 15.8828125 32.078125 C17.5328125 31.748125 19.1828125 31.418125 20.8828125 31.078125 C21.2128125 29.428125 21.5428125 27.778125 21.8828125 26.078125 C25.31619766 27.28444952 27.38645835 28.46289684 29.8828125 31.078125 C30.5428125 31.078125 31.2028125 31.078125 31.8828125 31.078125 C30.8928125 26.623125 30.8928125 26.623125 29.8828125 22.078125 C29.2228125 22.078125 28.5628125 22.078125 27.8828125 22.078125 C27.2846875 21.35625 26.6865625 20.634375 26.0703125 19.890625 C19.975343 13.67126837 10.70814692 11.75484566 2.3203125 11.453125 C-5.30736489 11.70632591 -13.54921998 13.51015748 -19.1171875 19.078125 C-25.22978124 21.07115479 -31.4832303 22.29089311 -37.8828125 22.81640625 C-41.30840423 23.21765563 -44.61865374 24.10072891 -47.953125 24.96875 C-50.1171875 25.078125 -50.1171875 25.078125 -51.90625 23.625 C-52.50566406 22.85929687 -52.50566406 22.85929687 -53.1171875 22.078125 C-51.58458526 20.77571598 -50.04063923 19.48664988 -48.4921875 18.203125 C-47.63367188 17.48382813 -46.77515625 16.76453125 -45.890625 16.0234375 C-43.01623937 14.00731913 -40.48281209 13.01576235 -37.1171875 12.078125 C-37.1171875 11.418125 -37.1171875 10.758125 -37.1171875 10.078125 C-25.22077005 4.15419468 -13.2812947 0.49008468 0 0 Z M3.8828125 18.078125 C2.51657576 20.81059848 2.7543865 23.06011402 2.8828125 26.078125 C4.05391434 27.46721139 4.05391434 27.46721139 7.3203125 27.328125 C8.4959375 27.245625 9.6715625 27.163125 10.8828125 27.078125 C13.13443852 24.32341106 13.13443852 24.32341106 12.8203125 21.515625 C12.09530801 18.86930848 12.09530801 18.86930848 9.5078125 17.703125 C6.79674981 16.8138332 6.79674981 16.8138332 3.8828125 18.078125 Z " fill="#5076B0" transform="translate(209.1171875,120.921875)"/>
<path d="M0 0 C0.99 0.66 1.98 1.32 3 2 C3.1875 4.109375 3.1875 4.109375 3 6.75 C2.7183454 18.07547953 5.98899398 27.99214334 11 38 C28.09072102 73.98289643 28.09072102 73.98289643 25 83 C19.33463728 88.47696586 11.01903612 91.62761217 4 95 C3.28457031 95.38671875 2.56914062 95.7734375 1.83203125 96.171875 C0 97 0 97 -3 97 C-2.56840083 93.00770771 -1.5086424 89.58981189 -0.0625 85.875 C6.21413741 68.91666692 6.05902506 47.1840073 -0.0546875 30.04296875 C-0.72810283 28.60028699 -1.42316722 27.16732208 -2.1484375 25.75 C-5.27375377 19.32733171 -4.09419265 10.95979051 -4 4 C-3.01 3.67 -2.02 3.34 -1 3 C-0.67 2.01 -0.34 1.02 0 0 Z " fill="#4C7ABC" transform="translate(250,212)"/>
<path d="M0 0 C1.53497939 0.30647199 3.07753934 0.57701686 4.625 0.8125 C10.57759994 1.95925087 15.59528399 4.31455287 21 7 C22.30057357 7.63193802 23.60136826 8.26342108 24.90234375 8.89453125 C44.6209553 18.53137661 44.6209553 18.53137661 52 26 C53.81460666 27.52260099 55.64826672 29.02277457 57.5 30.5 C67.48979592 38.46938776 67.48979592 38.46938776 69 43 C69.66 43 70.32 43 71 43 C74 47.38461538 74 47.38461538 74 50 C74.66 50 75.32 50 76 50 C76 50.66 76 51.32 76 52 C76.66 52 77.32 52 78 52 C96.35825812 84.95071971 106.72135786 119.37913543 97 157 C96.8443457 157.639375 96.68869141 158.27875 96.52832031 158.9375 C93.00976811 173.0959855 86.40321295 186.74305411 77.32983398 198.17578125 C75.97098686 200.03979919 74.97264482 201.9124283 74 204 C73.34 204 72.68 204 72 204 C71.6596875 204.804375 71.6596875 204.804375 71.3125 205.625 C69.54429911 208.82460161 67.46329797 211.29037223 65 214 C64.34 214 63.68 214 63 214 C62.67 214.99 62.34 215.98 62 217 C60.29296875 218.71875 60.29296875 218.71875 58.1875 220.5 C57.50042969 221.0878125 56.81335938 221.675625 56.10546875 222.28125 C50.325 227 50.325 227 48 227 C48 227.66 48 228.32 48 229 C46.03533481 230.44764804 44.07303593 231.72071306 42 233 C41.37738281 233.42152344 40.75476563 233.84304688 40.11328125 234.27734375 C34.21135808 238.1024681 27.91974356 240.98133517 21.5 243.8125 C20.18310181 244.40840942 20.18310181 244.40840942 18.83959961 245.01635742 C12.87426574 247.58420165 7.48855797 248.74474389 1 249 C4.23654773 246.84230151 6.97159438 246.00438258 10.6875 244.875 C30.25388643 238.58273646 47.5154572 227.4845428 62 213 C62.86238281 212.13761719 63.72476563 211.27523437 64.61328125 210.38671875 C86.62913286 187.27521045 97.71620372 156.52828038 97.5 124.8125 C97.49790527 124.0986615 97.49581055 123.384823 97.49365234 122.64935303 C97.28930992 88.66134337 82.81942603 58.94972064 59.09765625 35.03515625 C34.79723794 11.35719557 1.97741826 -0.14049026 -31.61450195 -0.25805664 C-44.55455059 -0.08637442 -57.36284801 2.3818241 -70 5 C-70 4.34 -70 3.68 -70 3 C-50.6123887 -3.8387807 -19.5683439 -8.30852635 0 0 Z " fill="#446093" transform="translate(236,74)"/>
<path d="M0 0 C4.06633211 2.96127205 6.96087382 6.27937964 9.8125 10.375 C10.24264404 10.98641846 10.67278809 11.59783691 11.1159668 12.2277832 C34.17905597 45.54208104 43.19465423 85.98459415 36 126 C33.58243563 137.78834334 29.94026699 149.02676799 25 160 C24.71817871 160.64001953 24.43635742 161.28003906 24.14599609 161.93945312 C17.36304368 177.14585114 7.4920718 190.01000481 -4 202 C-4.81597656 202.87914062 -5.63195312 203.75828125 -6.47265625 204.6640625 C-28.80434335 228.01531116 -60.135346 242.65481991 -92 247 C-93.99954028 247.04287953 -96.00085389 247.05843658 -98 247 C-98 246.34 -98 245.68 -98 245 C-96.86046875 244.85304688 -95.7209375 244.70609375 -94.546875 244.5546875 C-72.61585521 241.52503664 -52.62839206 235.13123086 -34 223 C-33.17371094 222.47148437 -32.34742188 221.94296875 -31.49609375 221.3984375 C-20.23487661 214.07375018 -9.36193901 205.57539345 -1 195 C-0.04480469 194.06607422 -0.04480469 194.06607422 0.9296875 193.11328125 C3.72659517 190.25832455 5.84062961 187.10099058 8.0859375 183.8046875 C9.33303718 181.9773047 10.60805874 180.16857275 11.9140625 178.3828125 C20.56982916 166.20956298 26.28993015 152.42168636 30.4375 138.125 C30.67227051 137.31877197 30.90704102 136.51254395 31.14892578 135.68188477 C34.52596583 123.27232492 35.41346886 110.74614477 35.375 97.9375 C35.37368576 96.85875107 35.37368576 96.85875107 35.37234497 95.75820923 C35.29569491 76.58429017 31.56437439 59.90122908 24.74902344 42.02783203 C24.0758922 40.20546303 23.48916537 38.35173142 22.9140625 36.49609375 C22.26810884 33.84817845 22.26810884 33.84817845 20 33 C19.62875 31.7625 19.62875 31.7625 19.25 30.5 C16.71750085 23.40900239 11.72646827 17.49897895 7.1015625 11.62890625 C6 10 6 10 6 8 C5.34 8 4.68 8 4 8 C3.505 6.02 3.505 6.02 3 4 C2.34 4 1.68 4 1 4 C0.505 2.02 0.505 2.02 0 0 Z " fill="#3F5C8D" transform="translate(319,101)"/>
<path d="M0 0 C2.1875 1.375 2.1875 1.375 4.1875 3.375 C2.3621875 3.74625 2.3621875 3.74625 0.5 4.125 C-4.37750642 5.3873124 -7.38982692 7.12932709 -10.15625 11.49609375 C-12.16914242 15.0596155 -13.98925241 18.71185415 -15.8125 22.375 C-16.4725 22.375 -17.1325 22.375 -17.8125 22.375 C-17.8125 23.035 -17.8125 23.695 -17.8125 24.375 C-19.45703125 25.59375 -19.45703125 25.59375 -21.625 26.875 C-22.68654297 27.50921875 -22.68654297 27.50921875 -23.76953125 28.15625 C-24.78080078 28.75953125 -24.78080078 28.75953125 -25.8125 29.375 C-26.8025 30.035 -27.7925 30.695 -28.8125 31.375 C-31.4073949 31.97190873 -34.00503164 32.38596166 -36.6328125 32.8125 C-37.35210937 32.998125 -38.07140625 33.18375 -38.8125 33.375 C-39.1425 34.035 -39.4725 34.695 -39.8125 35.375 C-39.8125 34.055 -39.8125 32.735 -39.8125 31.375 C-40.4725 31.375 -41.1325 31.375 -41.8125 31.375 C-42.0627157 34.29134129 -42.0627157 34.29134129 -41.8125 37.375 C-40.8225 38.035 -39.8325 38.695 -38.8125 39.375 C-38.8125 40.035 -38.8125 40.695 -38.8125 41.375 C-34.8525 41.705 -30.8925 42.035 -26.8125 42.375 C-26.8125 43.035 -26.8125 43.695 -26.8125 44.375 C-25.45125 44.560625 -25.45125 44.560625 -24.0625 44.75 C-21.22279677 45.29609677 -19.28659409 45.94763803 -16.8125 47.375 C-17.63047236 51.19220435 -18.42057714 54.395815 -21.72265625 56.71875 C-23.15957344 57.49066921 -24.59707589 58.26149994 -26.03515625 59.03125 C-28.24678913 60.70334167 -28.28465369 61.72039427 -28.8125 64.375 C-30.03707301 65.85737786 -31.26484141 67.33787777 -32.53515625 68.78125 C-34.39807323 71.10562348 -35.59017565 73.67301986 -36.8125 76.375 C-37.1425 76.375 -37.4725 76.375 -37.8125 76.375 C-37.3618692 66.43859094 -33.82725942 60.90138479 -26.78515625 54.109375 C-24.60908975 52.19616009 -22.4063733 50.67193665 -19.8125 49.375 C-23.21069819 47.10953454 -25.62716426 46.72378283 -29.625 46 C-36.54748257 44.58549892 -40.78455419 43.41691871 -44.8125 37.375 C-45.25 35 -45.25 35 -44.8125 32.375 C-40.63898682 27.12445116 -34.19963623 22.50404541 -27.8125 20.375 C-27.08169734 18.39753397 -26.41828253 16.39427511 -25.8125 14.375 C-25.1525 13.385 -24.4925 12.395 -23.8125 11.375 C-22.760625 11.478125 -21.70875 11.58125 -20.625 11.6875 C-16.88205465 11.77404345 -16.88205465 11.77404345 -15.04296875 9.74609375 C-13.87561679 8.31523119 -12.71824046 6.87617969 -11.5703125 5.4296875 C-8.44479842 1.77630882 -5.00767093 -1.11281576 0 0 Z " fill="#5278B0" transform="translate(267.8125,141.625)"/>
<path d="M0 0 C0.59780273 0.34853027 1.19560547 0.69706055 1.81152344 1.05615234 C0.65136719 1.55244141 -0.50878906 2.04873047 -1.70410156 2.56005859 C-37.18381231 17.9065472 -62.25065788 41.68930407 -76.93847656 77.49365234 C-88.62678015 109.20212457 -86.45338835 144.19237462 -72.43847656 174.74365234 C-60.78729181 199.10922689 -40.66115393 220.40071182 -16.18847656 232.05615234 C-16.18847656 232.71615234 -16.18847656 233.37615234 -16.18847656 234.05615234 C-20.56421851 232.76537301 -24.01950678 231.07834071 -27.81347656 228.55615234 C-30.87756749 226.53059084 -33.86106527 224.61831727 -37.18847656 223.05615234 C-37.18847656 222.39615234 -37.18847656 221.73615234 -37.18847656 221.05615234 C-37.82785156 220.78802734 -38.46722656 220.51990234 -39.12597656 220.24365234 C-41.18847656 219.05615234 -41.18847656 219.05615234 -42.18847656 216.05615234 C-43.50250932 215.35220622 -44.84050227 214.69269576 -46.18847656 214.05615234 C-49.99525121 211.27209327 -52.83321808 208.25028831 -55.75097656 204.55615234 C-58.83465787 200.65736452 -58.83465787 200.65736452 -62.27832031 197.08740234 C-64.59916497 194.61942847 -65.7454724 192.11592556 -67.18847656 189.05615234 C-68.46987844 186.84184701 -69.7621411 184.63380186 -71.06347656 182.43115234 C-80.18847656 166.73177504 -80.18847656 166.73177504 -80.18847656 161.05615234 C-80.84847656 160.72615234 -81.50847656 160.39615234 -82.18847656 160.05615234 C-82.58952113 158.06862263 -82.90890977 156.06437383 -83.18847656 154.05615234 C-83.92721231 150.59533597 -84.69715279 147.14236959 -85.46972656 143.68896484 C-86.8345923 136.79045865 -87.38328899 130.1319978 -87.37597656 123.11865234 C-87.3751709 122.29888916 -87.37436523 121.47912598 -87.37353516 120.63452148 C-87.23308972 106.31321762 -85.75515437 91.34435098 -80.18847656 78.05615234 C-79.76566406 77.00427734 -79.34285156 75.95240234 -78.90722656 74.86865234 C-74.38114431 63.89049539 -68.69099259 54.01521627 -61.87597656 44.30615234 C-61.22677246 43.37416016 -61.22677246 43.37416016 -60.56445312 42.42333984 C-59.49155368 40.92855166 -58.34588068 39.48650917 -57.18847656 38.05615234 C-56.52847656 38.05615234 -55.86847656 38.05615234 -55.18847656 38.05615234 C-54.96160156 37.50443359 -54.73472656 36.95271484 -54.50097656 36.38427734 C-52.8012173 33.36922817 -50.6404284 31.24384865 -48.18847656 28.80615234 C-47.30160156 27.91412109 -46.41472656 27.02208984 -45.50097656 26.10302734 C-43.18847656 24.05615234 -43.18847656 24.05615234 -41.18847656 24.05615234 C-41.18847656 23.39615234 -41.18847656 22.73615234 -41.18847656 22.05615234 C-39.05481203 20.36300563 -36.92456053 18.79092615 -34.68847656 17.24365234 C-34.04789307 16.79513916 -33.40730957 16.34662598 -32.74731445 15.88452148 C-30.90085298 14.59865552 -29.04682683 13.32475817 -27.18847656 12.05615234 C-26.351875 11.48380859 -25.51527344 10.91146484 -24.65332031 10.32177734 C-21.23274011 8.08093482 -18.30373625 6.44195794 -14.18847656 6.05615234 C-14.18847656 5.39615234 -14.18847656 4.73615234 -14.18847656 4.05615234 C-12.28057625 3.16219905 -10.3617385 2.291559 -8.43847656 1.43115234 C-7.37113281 0.94388672 -6.30378906 0.45662109 -5.20410156 -0.04541016 C-2.18847656 -0.94384766 -2.18847656 -0.94384766 0 0 Z " fill="#405E91" transform="translate(163.1884765625,78.94384765625)"/>
<path d="M0 0 C4.23548286 2.11774143 5.38988385 3.62968473 7 8 C7.99 8.33 8.98 8.66 10 9 C12.87112014 16.5617292 10.9183331 24.80839343 8 32 C6 31 6 31 4.6875 28.1875 C2.79044916 24.60418175 1.39667 23.18258059 -2 21 C-5.63223195 20.37765959 -5.63223195 20.37765959 -9.5 20.375 C-14.23170139 20.25197576 -17.6727726 19.88107995 -22 18 C-25.89199116 17.81167785 -29.23331696 17.87335604 -33.07421875 18.5078125 C-38.05142931 19.13182099 -42.9280424 19.10701329 -47.9375 19.0625 C-48.90751953 19.05798828 -49.87753906 19.05347656 -50.87695312 19.04882812 C-53.2513676 19.0371315 -55.62565021 19.02074086 -58 19 C-57.505 17.515 -57.505 17.515 -57 16 C-54.07577696 15.26894424 -51.65465684 15.01279049 -48.625 15.125 C-44.60826124 15.19257131 -40.98043403 14.4225343 -37.0625 13.5625 C-30.00927442 12.02270503 -23.10329247 11.49460409 -15.90234375 11.19140625 C-12.64494905 11.03163414 -9.48106094 10.73018544 -6.25 10.3125 C-2.6539059 9.90747916 -0.23540902 10.16660155 3 12 C2.7834375 11.46890625 2.566875 10.9378125 2.34375 10.390625 C2.0653125 9.68421875 1.786875 8.9778125 1.5 8.25 C1.2215625 7.55390625 0.943125 6.8578125 0.65625 6.140625 C0 4 0 4 0 0 Z " fill="#9EC8F4" transform="translate(290,160)"/>
<path d="M0 0 C2.29060528 3.08350711 3.66759388 6.41275276 5 10 C6.65 9.67 8.3 9.34 10 9 C8.68 10.32 7.36 11.64 6 13 C4.1875 12.5 4.1875 12.5 2 11 C0.73847391 8.4136076 -0.15643045 5.74799171 -1 3 C-1.59425781 3.13277344 -2.18851562 3.26554688 -2.80078125 3.40234375 C-7.49883599 4.40332898 -12.01248053 5.10760761 -16.8125 5.375 C-21.38444045 5.71724978 -23.6830392 6.6830392 -27 10 C-27.66 10 -28.32 10 -29 10 C-30.41010136 12.7885861 -31.76643718 15.59404658 -33.0625 18.4375 C-33.40410156 19.17871094 -33.74570312 19.91992188 -34.09765625 20.68359375 C-38.77999116 32.70361366 -35.33129417 44.88839757 -30.64282227 56.3046875 C-29.16978616 59.63585095 -27.6554186 62.94483239 -26.125 66.25 C-12.66043398 95.98280248 -12.66043398 95.98280248 -13 106 C-16.08187722 109.9110117 -20.21030683 112.07477389 -24.5 114.4375 C-25.20398926 114.82929443 -25.90797852 115.22108887 -26.63330078 115.62475586 C-41.93506072 124 -41.93506072 124 -47 124 C-46.59974602 120.19758723 -45.65749221 117.08773048 -44.125 113.625 C-35.44210533 92.42479368 -38.11509598 69.1385629 -45.34277344 47.9675293 C-47.11123402 42.67331539 -47.12268564 37.71068944 -47.0625 32.1875 C-47.05573242 31.00510742 -47.05573242 31.00510742 -47.04882812 29.79882812 C-47.03711312 27.86585239 -47.01917998 25.93291607 -47 24 C-46.34 24 -45.68 24 -45 24 C-44.95101562 25.12277344 -44.90203125 26.24554688 -44.8515625 27.40234375 C-44.36812123 40.63447307 -44.36812123 40.63447307 -40.53515625 53.18359375 C-38.73126646 57.33320103 -37.97979769 61.48046365 -37.3125 65.9375 C-37.18657471 66.76580322 -37.06064941 67.59410645 -36.9309082 68.44750977 C-34.26703741 87.30381925 -37.35801174 103.37157834 -44 121 C-29.03371889 115.02983063 -29.03371889 115.02983063 -16 106 C-15.62029284 103.75154826 -15.62029284 103.75154826 -16.0625 101.3125 C-16.15660156 100.50425781 -16.25070312 99.69601562 -16.34765625 98.86328125 C-17.20811908 95.08651923 -18.59450337 91.60250755 -20 88 C-20.48012476 86.69140567 -20.95674711 85.38152045 -21.4296875 84.0703125 C-23.87538183 77.36810495 -26.41418121 70.89138246 -29.70703125 64.55078125 C-36.87077606 50.41807622 -41.59583421 36.73856655 -37.43359375 20.8359375 C-36.75 19.125 -36.75 19.125 -35 16 C-34.66097656 15.33484375 -34.32195312 14.6696875 -33.97265625 13.984375 C-31.04294405 8.65762555 -27.79262926 5.09249163 -22 3 C-17.83856877 2.16149466 -13.63810109 1.73948302 -9.4140625 1.359375 C-5.73866017 0.97249054 -3.77819977 0 0 0 Z " fill="#466296" transform="translate(291,188)"/>
<path d="M0 0 C2 1 2 1 3.03515625 3.9140625 C3.37417969 5.13867188 3.71320313 6.36328125 4.0625 7.625 C4.40410156 8.83414063 4.74570313 10.04328125 5.09765625 11.2890625 C10.92845204 35.2685257 6.16023872 60.85804193 -6.546875 81.76953125 C-8 84 -8 84 -9 85 C-28.47323558 86.73411295 -46.42491922 80.76468199 -64 73 C-64 71.68 -64 70.36 -64 69 C-61.54238673 67.22689987 -59.18580965 65.7354956 -56.5625 64.25 C-50.07347739 60.40970454 -44.37218851 56.34234302 -39 51 C-38.67 51.99 -38.34 52.98 -38 54 C-52.27603249 65.59546878 -52.27603249 65.59546878 -59.42578125 69.09765625 C-61.18808356 69.9148431 -61.18808356 69.9148431 -62 72 C-48.88533178 76.53052175 -35.8834553 80.73338145 -22 82 C-20.89140625 82.13019531 -19.7828125 82.26039063 -18.640625 82.39453125 C-13.05829811 82.93862573 -13.05829811 82.93862573 -8.28515625 80.52734375 C-6.90296993 78.41415312 -5.94734449 76.33887955 -5 74 C-4.65839844 73.32582031 -4.31679687 72.65164063 -3.96484375 71.95703125 C2.01541608 59.83734117 4.17633445 47.04301336 4.125 33.6875 C4.12886719 32.69298828 4.13273437 31.69847656 4.13671875 30.67382812 C4.12453991 21.39964113 3.60027795 13.60936033 0 5 C-0.92232422 6.64548828 -0.92232422 6.64548828 -1.86328125 8.32421875 C-2.67964917 9.77866735 -3.49605756 11.23309323 -4.3125 12.6875 C-4.71662109 13.40873047 -5.12074219 14.12996094 -5.53710938 14.87304688 C-6.32709367 16.27960428 -7.12014212 17.68444588 -7.91650391 19.08740234 C-8.84443158 20.72538913 -9.75769911 22.37166607 -10.66796875 24.01953125 C-11.10753906 24.67308594 -11.54710937 25.32664062 -12 26 C-12.66 26 -13.32 26 -14 26 C-14.24492187 26.72574219 -14.48984375 27.45148438 -14.7421875 28.19921875 C-16.1470838 31.32751268 -17.79731674 33.30233286 -20.125 35.8125 C-21.32382813 37.10800781 -21.32382813 37.10800781 -22.546875 38.4296875 C-25.97045293 42.01681214 -29.458019 45.53014078 -33 49 C-34.00113186 49.99886686 -35.00153256 50.99846978 -36 52 C-36 49 -36 49 -34.05078125 46.8984375 C-33.14714844 46.06570313 -32.24351562 45.23296875 -31.3125 44.375 C-20.42981201 33.90949962 -11.87875377 21.68176714 -4.8046875 8.390625 C-3.28374904 5.53310425 -1.69418043 2.75698927 0 0 Z " fill="#476192" transform="translate(217,233)"/>
<path d="M0 0 C0.99 0.495 0.99 0.495 2 1 C-1.95866451 20.86708647 -9.23816599 37.06913352 -22.203125 52.80859375 C-24.02340496 54.97405947 -24.02340496 54.97405947 -25.609375 57.28515625 C-26.06828125 57.85105469 -26.5271875 58.41695313 -27 59 C-27.66 59 -28.32 59 -29 59 C-29 59.66 -29 60.32 -29 61 C-47.70344631 78.45892041 -47.70344631 78.45892041 -56 79 C-59.59003435 77.02181781 -63.13604038 74.72791923 -65 71 C-64.01 71 -63.02 71 -62 71 C-62 71.66 -62 72.32 -62 73 C-59.34771188 74.07525194 -56.71631546 75.09456151 -54 76 C-43.61320446 71.23055307 -33.05434013 62.84489111 -26.2578125 53.640625 C-25.84273437 53.09921875 -25.42765625 52.5578125 -25 52 C-24.34 52 -23.68 52 -23 52 C-22.7525 51.278125 -22.505 50.55625 -22.25 49.8125 C-21 47 -21 47 -19.1640625 44.71875 C-9.784084 32.93451708 -3.63468943 17.75426079 -1 3 C-2.2375 3.65355469 -2.2375 3.65355469 -3.5 4.3203125 C-11.81322381 8.60681852 -20.18537329 12.07313074 -28.97119141 15.25732422 C-32.37319588 16.50267892 -35.7521969 17.80286791 -39.125 19.125 C-40.30320313 19.58132812 -41.48140625 20.03765625 -42.6953125 20.5078125 C-48.62795528 23.1866181 -53.59108835 27.06922142 -58.50390625 31.29296875 C-61.24191393 33.6329703 -63.76908472 35.44819078 -67 37 C-68.42039609 37.78495573 -69.83691287 38.57696158 -71.25 39.375 C-83.14354599 46 -83.14354599 46 -86 46 C-81.87447368 52.1228993 -77.94447044 57.7887965 -72.171875 62.48828125 C-71.53765625 63.00777344 -70.9034375 63.52726562 -70.25 64.0625 C-69.65703125 64.52785156 -69.0640625 64.99320312 -68.453125 65.47265625 C-66.74733664 67.26556821 -66.39430249 68.58749134 -66 71 C-84.04823176 56.02380769 -84.04823176 56.02380769 -88 48 C-87.75732422 45.9934082 -87.75732422 45.9934082 -87 44 C-84.50177789 42.6659979 -82.10910683 41.56855667 -79.5 40.5 C-68.93108936 35.87751364 -59.40791413 29.48234866 -50.64379883 21.98413086 C-47.8479457 19.88588556 -45.35571331 18.74510332 -42.08984375 17.51953125 C-40.94370605 17.08157227 -39.79756836 16.64361328 -38.61669922 16.19238281 C-37.40256348 15.73702148 -36.18842773 15.28166016 -34.9375 14.8125 C-32.41517819 13.85223311 -29.89622196 12.88346595 -27.37890625 11.91015625 C-26.75250244 11.66816498 -26.12609863 11.42617371 -25.48071289 11.17684937 C-18.81624803 8.5780856 -12.32181944 5.63216377 -5.86694336 2.55395508 C-3.93579844 1.64842732 -1.97073928 0.81577443 0 0 Z " fill="#466091" transform="translate(195,219)"/>
<path d="M0 0 C22.71357502 -0.74470738 42.33960742 2.78404878 59.8828125 18.078125 C59.2228125 18.738125 58.5628125 19.398125 57.8828125 20.078125 C57.19058594 19.40716797 57.19058594 19.40716797 56.484375 18.72265625 C42.20044388 5.48320231 22.52900988 1.80466906 3.53466797 2.11669922 C-10.37237912 2.82995961 -23.30999516 6.96931463 -35.7421875 13.078125 C-36.39324463 13.39797363 -37.04430176 13.71782227 -37.71508789 14.04736328 C-42.01431652 16.26318404 -45.49723095 18.87028658 -49.1171875 22.078125 C-30.58183064 19.38127282 -30.58183064 19.38127282 -13.4375 12.37109375 C-5.43967268 7.91439199 4.80398522 8.07838527 13.4921875 10.265625 C21.62292355 13.02901242 29.49057028 17.45026434 33.8828125 25.078125 C34.41739218 27.69657548 34.27457053 29.39178425 33.8828125 32.078125 C31.9028125 33.068125 31.9028125 33.068125 29.8828125 34.078125 C28.2328125 32.428125 26.5828125 30.778125 24.8828125 29.078125 C25.2128125 28.418125 25.5428125 27.758125 25.8828125 27.078125 C26.5015625 27.738125 27.1203125 28.398125 27.7578125 29.078125 C29.63918677 31.3065799 29.63918677 31.3065799 31.8828125 31.078125 C30.8928125 26.623125 30.8928125 26.623125 29.8828125 22.078125 C29.2228125 22.078125 28.5628125 22.078125 27.8828125 22.078125 C27.2846875 21.35625 26.6865625 20.634375 26.0703125 19.890625 C19.975343 13.67126837 10.70814692 11.75484566 2.3203125 11.453125 C-5.30736489 11.70632591 -13.54921998 13.51015748 -19.1171875 19.078125 C-25.22978124 21.07115479 -31.4832303 22.29089311 -37.8828125 22.81640625 C-41.30840423 23.21765563 -44.61865374 24.10072891 -47.953125 24.96875 C-50.1171875 25.078125 -50.1171875 25.078125 -51.90625 23.625 C-52.30585938 23.11453125 -52.70546875 22.6040625 -53.1171875 22.078125 C-51.58458526 20.77571598 -50.04063923 19.48664988 -48.4921875 18.203125 C-47.63367188 17.48382813 -46.77515625 16.76453125 -45.890625 16.0234375 C-43.01623937 14.00731913 -40.48281209 13.01576235 -37.1171875 12.078125 C-37.1171875 11.418125 -37.1171875 10.758125 -37.1171875 10.078125 C-25.22077005 4.15419468 -13.2812947 0.49008468 0 0 Z " fill="#445D92" transform="translate(209.1171875,120.921875)"/>
<path d="M0 0 C-0.5977022 3.3165183 -1.67528313 5.04177182 -3.875 7.5625 C-7.66121721 12.24463281 -10.54984873 17.27318363 -13.5 22.5 C-17.23993583 29.07593302 -20.90250836 35.36356651 -26 41 C-26.68835938 41.79148438 -27.37671875 42.58296875 -28.0859375 43.3984375 C-38.92336949 55.09998367 -53.9467522 64.42650069 -70.02734375 66.01953125 C-72.27997541 65.99722797 -73.90482856 65.85711559 -76 65 C-77.30078125 63.14453125 -77.30078125 63.14453125 -78.3125 60.8125 C-78.65925781 60.05582031 -79.00601563 59.29914063 -79.36328125 58.51953125 C-80.39075105 54.45377652 -79.72347895 51.32084689 -77.72265625 47.66796875 C-77.17480469 46.84941406 -76.62695312 46.03085938 -76.0625 45.1875 C-68.52354156 32.80987259 -64.0364547 18.53956003 -59 5 C-58.34 5 -57.68 5 -57 5 C-59.5523477 19.33961211 -66.27881757 37.75931714 -75.70703125 49.04296875 C-77.33035506 51.50002383 -77.22651623 52.68386953 -76.8125 55.5625 C-76.71582031 56.32691406 -76.61914062 57.09132812 -76.51953125 57.87890625 C-76.05892971 60.28083439 -76.05892971 60.28083439 -74 63 C-57.32708419 63.45679221 -43.12543765 54.33192133 -31.125 43.375 C-26.23102077 38.21235463 -26.23102077 38.21235463 -23 32 C-22.34 32 -21.68 32 -21 32 C-20.81824219 31.36191406 -20.63648438 30.72382813 -20.44921875 30.06640625 C-20.19785156 29.24011719 -19.94648438 28.41382813 -19.6875 27.5625 C-19.44386719 26.73878906 -19.20023438 25.91507813 -18.94921875 25.06640625 C-18.63597656 24.38449219 -18.32273438 23.70257813 -18 23 C-17.01 22.67 -16.02 22.34 -15 22 C-14.30356015 20.01017187 -13.645124 18.00705243 -13 16 C-10.49315798 10.82516183 -8.11685947 7.11685947 -4 3 C-17.365 3.495 -17.365 3.495 -31 4 C-31 3.34 -31 2.68 -31 2 C-20.60886221 0.69381882 -10.48925548 -0.33358056 0 0 Z " fill="#476292" transform="translate(174,187)"/>
<path d="M0 0 C0.66 0.33 1.32 0.66 2 1 C1.55011719 1.4640625 1.10023437 1.928125 0.63671875 2.40625 C-8.06619012 11.75446474 -15.91533637 22.56334522 -21.09765625 34.27734375 C-22 36 -22 36 -24 37 C-24.12375 37.680625 -24.2475 38.36125 -24.375 39.0625 C-24.93762391 41.70683237 -25.57959147 43.2295821 -26.84375 45.5546875 C-38.9382109 69.29175808 -41.04937838 103.30881282 -35 129 C-34.34121107 130.3372432 -33.67551111 131.67112568 -33 133 C-32.7265625 134.9375 -32.7265625 134.9375 -32.625 137 C-31.67927059 146.67796426 -27.54822958 155.43563916 -23.19873047 164.01220703 C-20.89410895 168.68232686 -20.89410895 168.68232686 -22 172 C-40.55205431 138.44841241 -45.15485697 98.80432272 -35.1875 61.8125 C-34.48257227 59.53402574 -33.75267122 57.26315136 -33 55 C-32.59136719 53.75089844 -32.18273438 52.50179687 -31.76171875 51.21484375 C-25.07841711 31.70493024 -13.96289933 15.0662347 0 0 Z " fill="#496497" transform="translate(95,98)"/>
<path d="M0 0 C4.12068156 1.37356052 5.28905223 4.20631653 7.4375 7.75 C9.59280975 11.25374131 11.69530657 14.62290932 14.28515625 17.828125 C16 20 16 20 16 22 C16.66 22 17.32 22 18 22 C18.4125 22.721875 18.825 23.44375 19.25 24.1875 C21.00001784 27.00002868 22.87069641 28.70895594 25.45703125 30.74609375 C27.80670863 32.6555784 29.86049111 34.86049111 32 37 C33.65893182 38.34294481 35.32476605 39.67744688 37 41 C37.40992188 41.43441406 37.81984375 41.86882812 38.2421875 42.31640625 C62.9326493 65.96438189 99.67317231 74.52745289 132.625 75.5625 C133.91535156 75.60568359 135.20570313 75.64886719 136.53515625 75.69335938 C139.69001933 75.79852148 142.84494895 75.90066604 146 76 C143.46997039 78.53002961 142.58453502 78.25684129 139.08203125 78.265625 C138.08244385 78.26981445 137.08285645 78.27400391 136.05297852 78.27832031 C134.98362061 78.26897461 133.9142627 78.25962891 132.8125 78.25 C131.7205835 78.24323242 130.62866699 78.23646484 129.50366211 78.22949219 C121.17111136 78.12347852 113.19975079 77.57305032 105 76 C104.36143066 75.88172852 103.72286133 75.76345703 103.06494141 75.64160156 C73.26261574 69.96290387 47.91691454 55.66776397 26 35 C25.32582031 34.37867188 24.65164062 33.75734375 23.95703125 33.1171875 C14.25577989 23.86130297 6.5551435 12.64545046 0 1 C0 0.67 0 0.34 0 0 Z " fill="#486394" transform="translate(74,271)"/>
<path d="M0 0 C1.53497939 0.30647199 3.07753934 0.57701686 4.625 0.8125 C10.57759994 1.95925087 15.59528399 4.31455287 21 7 C22.30057357 7.63193802 23.60136826 8.26342108 24.90234375 8.89453125 C44.6209553 18.53137661 44.6209553 18.53137661 52 26 C53.81460666 27.52260099 55.64826672 29.02277457 57.5 30.5 C67.48979592 38.46938776 67.48979592 38.46938776 69 43 C69.66 43 70.32 43 71 43 C70.67 43.66 70.34 44.32 70 45 C66.67563779 43.89187926 66.07314668 43.14463373 63.9375 40.5 C43.97980261 17.18144297 14.21407693 4.06582212 -15.8125 0.3125 C-34.28939797 -1.11581284 -51.92769059 1.25576356 -70 5 C-70 4.34 -70 3.68 -70 3 C-50.6123887 -3.8387807 -19.5683439 -8.30852635 0 0 Z " fill="#4C6797" transform="translate(236,74)"/>
<path d="M0 0 C4.23548286 2.11774143 5.38988385 3.62968473 7 8 C7.99 8.33 8.98 8.66 10 9 C12.87112014 16.5617292 10.9183331 24.80839343 8 32 C6 31 6 31 4.6875 28.25 C2.89220238 24.79238977 0.8520811 22.62083128 -2 20 C0 18 0 18 2 17 C1.04134491 14.66924071 1.04134491 14.66924071 -2 13 C-4.68218943 12.78306234 -4.68218943 12.78306234 -7.69921875 12.953125 C-9.39014648 13.01693359 -9.39014648 13.01693359 -11.11523438 13.08203125 C-12.29408203 13.13746094 -13.47292969 13.19289062 -14.6875 13.25 C-16.42676758 13.30994141 -16.42676758 13.30994141 -18.20117188 13.37109375 C-24.44233084 13.6336553 -29.9931635 14.3265212 -36 16 C-38.72061968 16.20992436 -41.263957 16.09771582 -44 16 C-44 15.67 -44 15.34 -44 15 C-34.58389842 12.82072758 -25.54821386 11.59717266 -15.90234375 11.19140625 C-12.64494905 11.03163414 -9.48106094 10.73018544 -6.25 10.3125 C-2.6539059 9.90747916 -0.23540902 10.16660155 3 12 C2.7834375 11.46890625 2.566875 10.9378125 2.34375 10.390625 C2.0653125 9.68421875 1.786875 8.9778125 1.5 8.25 C1.2215625 7.55390625 0.943125 6.8578125 0.65625 6.140625 C0 4 0 4 0 0 Z " fill="#98C2EE" transform="translate(290,160)"/>
<path d="M0 0 C0.268125 0.639375 0.53625 1.27875 0.8125 1.9375 C1.88667752 4.33131686 1.88667752 4.33131686 5 5 C2 7 2 7 -1 7 C-1.33 7.66 -1.66 8.32 -2 9 C-2 7.68 -2 6.36 -2 5 C-2.66 5 -3.32 5 -4 5 C-4.2502157 7.91634129 -4.2502157 7.91634129 -4 11 C-3.01 11.66 -2.02 12.32 -1 13 C-1 13.66 -1 14.32 -1 15 C2.96 15.33 6.92 15.66 11 16 C11 16.66 11 17.32 11 18 C11.9075 18.12375 12.815 18.2475 13.75 18.375 C16.58970323 18.92109677 18.52590591 19.57263803 21 21 C20.18202764 24.81720435 19.39192286 28.020815 16.08984375 30.34375 C14.65292656 31.11566921 13.21542411 31.88649994 11.77734375 32.65625 C9.56571087 34.32834167 9.52784631 35.34539427 9 38 C7.77542699 39.48237786 6.54765859 40.96287777 5.27734375 42.40625 C3.41442677 44.73062348 2.22232435 47.29801986 1 50 C0.67 50 0.34 50 0 50 C0.4506308 40.06359094 3.98524058 34.52638479 11.02734375 27.734375 C13.20341025 25.82116009 15.4061267 24.29693665 18 23 C14.60180181 20.73453454 12.18533574 20.34878283 8.1875 19.625 C1.26501743 18.21049892 -2.97205419 17.04191871 -7 11 C-7.4375 8.625 -7.4375 8.625 -7 6 C-4.82453396 3.48103932 -2.989803 1.4949015 0 0 Z " fill="#5875A8" transform="translate(230,168)"/>
<path d="M0 0 C0 0.66 0 1.32 0 2 C-0.56170898 2.03963867 -1.12341797 2.07927734 -1.70214844 2.12011719 C-22.5218255 3.64886427 -41.40961642 7.28240186 -61.04907227 14.42089844 C-63 15 -63 15 -66 15 C-66 15.66 -66 16.32 -66 17 C-67.05058594 17.50789063 -68.10117188 18.01578125 -69.18359375 18.5390625 C-79.48188248 23.5702621 -79.48188248 23.5702621 -89.10546875 29.7734375 C-91 31 -91 31 -93.67578125 31.9765625 C-94.44277344 32.31429687 -95.20976563 32.65203125 -96 33 C-96.33 33.99 -96.66 34.98 -97 36 C-98.33333333 36.33333333 -99.66666667 36.66666667 -101 37 C-101.33 37.99 -101.66 38.98 -102 40 C-103.7421875 41.82421875 -103.7421875 41.82421875 -105.875 43.6875 C-106.57367188 44.31011719 -107.27234375 44.93273437 -107.9921875 45.57421875 C-110 47 -110 47 -113 47 C-87.35693508 19.13354795 -49.89393161 1.99215265 -12.046875 0.08203125 C-8.0257789 -0.02622903 -4.02217187 -0.06934779 0 0 Z " fill="#486598" transform="translate(210,49)"/>
<path d="M0 0 C2.0625 0.4375 2.0625 0.4375 4 1 C4.04898438 1.69867188 4.09796875 2.39734375 4.1484375 3.1171875 C4.22320312 4.02726563 4.29796875 4.93734375 4.375 5.875 C4.47941406 7.23238281 4.47941406 7.23238281 4.5859375 8.6171875 C4.79568132 11.17941903 4.79568132 11.17941903 7 13 C7.69748583 14.31747324 8.36959957 15.64914193 9 17 C9 16.01 9 15.02 9 14 C11.53446685 15.16975393 13.68691721 16.47225558 16 18.0625 C18.75485923 20.07451647 18.75485923 20.07451647 21.3125 20.5625 C21.869375 20.706875 22.42625 20.85125 23 21 C23.495 22.485 23.495 22.485 24 24 C16.35152145 23.65313022 11.06938664 22.31825583 5.6875 16.5 C2.42470415 11.66622837 1.77040108 8.96957183 2 3 C-15.30295796 7.67647512 -28.9922277 15.7464234 -39 31 C-41.36147608 35.21385473 -43.47139065 39.41417195 -45 44 C-45.66 44 -46.32 44 -47 44 C-45.62173803 34.47585642 -39.22201204 24.30735088 -32 18 C-31.34 18 -30.68 18 -30 18 C-29.80019531 17.4328125 -29.60039062 16.865625 -29.39453125 16.28125 C-27.45759105 13.11269797 -24.76158748 11.44613734 -21.6875 9.5 C-20.76384644 8.90735352 -20.76384644 8.90735352 -19.8215332 8.30273438 C-14.55976723 5.06720104 -9.43670559 3.21631895 -3.44921875 1.65625 C-1.07115366 1.2378221 -1.07115366 1.2378221 0 0 Z " fill="#456292" transform="translate(188,145)"/>
<path d="M0 0 C-2.2867489 2.2867489 -3.42246399 2.52298557 -6.515625 3.26171875 C-7.88847656 3.60420654 -7.88847656 3.60420654 -9.2890625 3.95361328 C-10.26617187 4.1957959 -11.24328125 4.43797852 -12.25 4.6875 C-22.89699438 7.45122468 -32.10514733 10.98979975 -41.25 17.2109375 C-44 19 -44 19 -46 19 C-46 19.66 -46 20.32 -46 21 C-47.66666667 22 -49.33333333 23 -51 24 C-54.34834935 27.10334817 -57.16489193 30.43325114 -60 34 C-60.63164062 34.62132812 -61.26328125 35.24265625 -61.9140625 35.8828125 C-71.99427751 46.11404197 -77.21594758 60.28501334 -81.95703125 73.5859375 C-83 76 -83 76 -85 77 C-80.55411735 57.8905044 -71.59903653 42.00346885 -58 28 C-57.45085937 27.38898438 -56.90171875 26.77796875 -56.3359375 26.1484375 C-43.14459783 11.91738633 -19.73439268 -0.56383979 0 0 Z " fill="#446195" transform="translate(201,114)"/>
<path d="M0 0 C4.61995704 1.47838625 9.30374336 1.67400756 14.125 2 C11.58811548 4.57769231 9.61824649 5.2264748 6.11328125 5.36328125 C4.55459631 5.36478207 2.99580408 5.34698771 1.4375 5.3125 C0.62240967 5.303396 -0.19268066 5.29429199 -1.0324707 5.28491211 C-5.72017365 5.18767246 -10.00102066 4.79216443 -14.5234375 3.50390625 C-19.09885772 2.52345906 -23.85409697 2.53398177 -28.51953125 2.34375 C-31.64628976 2.02343015 -33.19318883 1.46579833 -35.875 0 C-32.0637841 -0.36897303 -28.2509495 -0.71744181 -24.4375 -1.0625 C-23.36822266 -1.16626953 -22.29894531 -1.27003906 -21.19726562 -1.37695312 C-13.93245465 -2.021233 -7.00017566 -2.43484371 0 0 Z " fill="#96C2F3" transform="translate(271.875,182)"/>
<path d="M0 0 C1.175625 0.391875 2.35125 0.78375 3.5625 1.1875 C4.79613281 1.59548828 4.79613281 1.59548828 6.0546875 2.01171875 C8.19007525 2.7282348 10.3195977 3.46230804 12.4453125 4.20703125 C37.67514598 12.92422841 61.73563614 13.12937101 88 10 C87 12 87 12 85.14428711 12.62402344 C76.76502882 14.21610654 68.51812108 14.30485098 60.02124023 14.26074219 C57.57054824 14.25003516 55.1205915 14.26068254 52.66992188 14.2734375 C42.12950113 14.28356983 31.86653926 14.12250944 22 10 C19.92146922 9.35920942 17.8377221 8.73517965 15.75 8.125 C10.28209625 6.4703215 5.13558998 4.49480857 0 2 C0 1.34 0 0.68 0 0 Z " fill="#476496" transform="translate(148,313)"/>
<path d="M0 0 C4.06633211 2.96127205 6.96087382 6.27937964 9.8125 10.375 C10.24264404 10.98641846 10.67278809 11.59783691 11.1159668 12.2277832 C19.76095687 24.71534599 26.39093825 37.92365047 31.25 52.3125 C31.50861816 53.07788086 31.76723633 53.84326172 32.03369141 54.63183594 C33.37104682 58.70903024 34.66166361 62.69922394 35 67 C34.34 67.66 33.68 68.32 33 69 C32.78085937 68.1028125 32.56171875 67.205625 32.3359375 66.28125 C30.16325002 57.73181307 27.47957909 49.57765774 24.26953125 41.36328125 C23 38 23 38 22.44921875 35.60546875 C22.30097656 35.07566406 22.15273438 34.54585937 22 34 C21.34 33.67 20.68 33.34 20 33 C19.7525 32.175 19.505 31.35 19.25 30.5 C16.71750085 23.40900239 11.72646827 17.49897895 7.1015625 11.62890625 C6 10 6 10 6 8 C5.34 8 4.68 8 4 8 C3.67 6.68 3.34 5.36 3 4 C2.34 4 1.68 4 1 4 C0.67 2.68 0.34 1.36 0 0 Z " fill="#486592" transform="translate(319,101)"/>
<path d="M0 0 C29.61585542 -0.62487468 29.61585542 -0.62487468 41 3 C42.17304688 3.35191406 43.34609375 3.70382813 44.5546875 4.06640625 C52.49643284 6.65387812 59.21532528 10.14723265 66 15 C66.76054687 15.52335938 67.52109375 16.04671875 68.3046875 16.5859375 C68.86414063 17.05257812 69.42359375 17.51921875 70 18 C70 18.66 70 19.32 70 20 C66.19339277 18.7684506 63.7900759 16.98133589 60.8046875 14.3671875 C47.15480322 4.02636608 30.07859987 2.50457599 13.625 2.8125 C12.19532689 2.82760218 10.76563802 2.84128063 9.3359375 2.85351562 C5.89028802 2.88601887 2.44525151 2.93748148 -1 3 C-0.67 2.01 -0.34 1.02 0 0 Z " fill="#4C6899" transform="translate(203,113)"/>
<path d="M0 0 C2.74594597 0.97948455 5.17904269 2.33739277 7.6875 3.8125 C8.32494141 4.16892578 8.96238281 4.52535156 9.61914062 4.89257812 C11.42517539 5.90835619 13.21204585 6.95285089 15 8 C15.97582031 8.54011719 16.95164062 9.08023438 17.95703125 9.63671875 C18.63121094 10.08660156 19.30539062 10.53648437 20 11 C20 11.66 20 12.32 20 13 C20.66 13 21.32 13 22 13 C23.5625 15.8125 23.5625 15.8125 25 19 C24.505 20.485 24.505 20.485 24 22 C22.71746403 20.07619605 21.48289878 18.11901274 20.3125 16.125 C14.61346757 8.42360482 4.32348659 3.58323357 -5 2 C-10.02343365 3.60749877 -13.14915906 6.65539651 -16 11 C-16.64476748 12.32388733 -17.26933068 13.65777519 -17.875 15 C-19.98123588 19.42479393 -22.82707709 22.42445403 -27 25 C-30.4375 25.875 -30.4375 25.875 -33 26 C-27.85714286 21.57142857 -27.85714286 21.57142857 -24 21 C-24 20.34 -24 19.68 -24 19 C-23.34 19 -22.68 19 -22 19 C-21.89171875 18.443125 -21.7834375 17.88625 -21.671875 17.3125 C-19.80193841 10.87643918 -15.6550835 4.61297001 -10 1 C-6.77624905 -0.61187547 -3.49771219 -0.43380666 0 0 Z " fill="#4E6594" transform="translate(274,145)"/>
<path d="M0 0 C0.99 0.33 1.98 0.66 3 1 C-14.12423206 15.53758897 -42.5350492 25.5462602 -65 25 C-65 24.34 -65 23.68 -65 23 C-63.29070312 22.77957031 -63.29070312 22.77957031 -61.546875 22.5546875 C-41.75784666 19.82094109 -14.77730588 14.77730588 0 0 Z " fill="#486291" transform="translate(286,323)"/>
<path d="M0 0 C2.64 0 5.28 0 8 0 C6.74324468 5.86485814 3.89056987 8.82507359 -1 12 C-4.98979755 13.48772112 -7.73838483 14 -12 14 C-10.7500773 10.2502319 -9.23946038 9.18475235 -6 7 C-4.68 7 -3.36 7 -2 7 C-1.855625 6.21625 -1.71125 5.4325 -1.5625 4.625 C-1 2 -1 2 0 0 Z " fill="#92BCEA" transform="translate(244,155)"/>
<path d="M0 0 C18.95700563 -1.47844931 38.83323245 4.22706448 56 12 C57.72753906 13.60302734 57.72753906 13.60302734 59 15 C55.07159262 14.38618635 51.62033141 13.12910594 47.9375 11.69921875 C45.65712505 10.87626085 43.39334935 10.37396084 41 10 C41 9.34 41 8.68 41 8 C39.88238281 7.87625 38.76476562 7.7525 37.61328125 7.625 C32.74471314 7.01683051 27.98468463 6.01519468 23.1875 5 C16.75450247 3.66230553 10.48176892 2.54341639 3.8984375 2.2734375 C2 2 2 2 0 0 Z " fill="#48669A" transform="translate(211,50)"/>
<path d="M0 0 C1.32087692 2.17556199 2.07112439 3.43100487 1.75 6 C0.96713323 8.08764473 0.05252193 10.03529239 -1 12 C-1.33 11.01 -1.66 10.02 -2 9 C-3.98 9.99 -5.96 10.98 -8 12 C-8.66 11.01 -9.32 10.02 -10 9 C-12.05003955 7.80767387 -12.05003955 7.80767387 -14 7 C-13.0078043 4.40420153 -12.46306676 3.23548746 -9.94140625 1.953125 C-9.15636719 1.72109375 -8.37132812 1.4890625 -7.5625 1.25 C-6.78003906 1.00765625 -5.99757812 0.7653125 -5.19140625 0.515625 C-3 0 -3 0 0 0 Z " fill="#4F7AB9" transform="translate(205,133)"/>
<path d="M0 0 C2.4375 0.75 2.4375 0.75 5 2 C6.52862783 5.05725567 5.95913727 8.41090109 5.90234375 11.76171875 C6.0703169 15.61166333 7.03596607 19.2815834 8 23 C4.17911348 21.24318001 2.7532122 19.92385587 1 16 C0.6154272 13.66017811 0.3778787 11.35328154 0.2109375 8.98828125 C0.10971249 6.92746053 0.10971249 6.92746053 -1 5 C-1.99 4.67 -2.98 4.34 -4 4 C-3.34 3.01 -2.68 2.02 -2 1 C-1.67 1.33 -1.34 1.66 -1 2 C-0.67 1.34 -0.34 0.68 0 0 Z " fill="#4C74AE" transform="translate(191,140)"/>
<path d="M0 0 C0 0.99 0 1.98 0 3 C-4.57281917 4.11347606 -9.05823104 5.06630707 -13.75 5.5 C-17.13678513 5.82622274 -19.90584075 6.50282617 -23 8 C-23.99 5.69 -24.98 3.38 -26 1 C-22.60426181 0.83135681 -19.20839586 0.66543535 -15.8125 0.5 C-14.37293945 0.42845703 -14.37293945 0.42845703 -12.90429688 0.35546875 C-11.50727539 0.28779297 -11.50727539 0.28779297 -10.08203125 0.21875 C-9.22843018 0.17685547 -8.3748291 0.13496094 -7.49536133 0.09179688 C-4.99442835 -0.00020496 -2.50237795 -0.0156766 0 0 Z " fill="#4F7EB9" transform="translate(287,186)"/>
<path d="M0 0 C3.57104439 1.87949705 5.54744301 3.17053157 7 7 C6.34 7 5.68 7 5 7 C4.67 8.98 4.34 10.96 4 13 C3.19820313 12.98839844 2.39640625 12.97679687 1.5703125 12.96484375 C-5.42495407 12.90932576 -12.38858972 13.03215782 -19.375 13.375 C-20.11089355 13.40585693 -20.84678711 13.43671387 -21.60498047 13.46850586 C-25.28577095 13.66783712 -28.68737869 14.09502876 -32.2578125 15.03125 C-36.46515363 16.12041555 -39.70090345 16.15353916 -44 16 C-44 15.67 -44 15.34 -44 15 C-34.58389842 12.82072758 -25.54821386 11.59717266 -15.90234375 11.19140625 C-12.64494905 11.03163414 -9.48106094 10.73018544 -6.25 10.3125 C-2.6539059 9.90747916 -0.23540902 10.16660155 3 12 C2.7834375 11.46890625 2.566875 10.9378125 2.34375 10.390625 C2.0653125 9.68421875 1.786875 8.9778125 1.5 8.25 C1.2215625 7.55390625 0.943125 6.8578125 0.65625 6.140625 C0 4 0 4 0 0 Z " fill="#95ABCA" transform="translate(290,160)"/>
<path d="M0 0 C2.29060528 3.08350711 3.66759388 6.41275276 5 10 C6.65 9.67 8.3 9.34 10 9 C8.68 10.32 7.36 11.64 6 13 C4.1875 12.5 4.1875 12.5 2 11 C0.73847391 8.4136076 -0.15643045 5.74799171 -1 3 C-1.59425781 3.13277344 -2.18851562 3.26554688 -2.80078125 3.40234375 C-8.40643238 4.59670488 -13.82685462 5.29975582 -19.5546875 5.55859375 C-22.41495057 6.07490322 -23.77208475 7.19162723 -26 9 C-26.66 9 -27.32 9 -28 9 C-27.10329677 6.75824192 -26.45372931 5.30812961 -24.4296875 3.93359375 C-20.99702618 2.61461295 -17.50573661 2.31096575 -13.875 1.9375 C-9.12935541 1.42933806 -4.66258973 0 0 0 Z " fill="#526999" transform="translate(291,188)"/>
<path d="M0 0 C-0.66666667 1.33333333 -1.33333333 2.66666667 -2 4 C-2.43957031 4.89976562 -2.87914062 5.79953125 -3.33203125 6.7265625 C-4.06486328 8.16128906 -4.06486328 8.16128906 -4.8125 9.625 C-5.29332031 10.58664063 -5.77414063 11.54828125 -6.26953125 12.5390625 C-8.26840519 15.3817049 -9.71075311 16.05064181 -13 17 C-12.41196203 13.97580475 -11.77321882 10.98241547 -11 8 C-11.99 7.67 -12.98 7.34 -14 7 C-12.04480616 5.82807953 -10.0857461 4.6626071 -8.125 3.5 C-7.03445312 2.8503125 -5.94390625 2.200625 -4.8203125 1.53125 C-2 0 -2 0 0 0 Z " fill="#9BC5F3" transform="translate(254,194)"/>
<path d="M0 0 C-0.66 0.66 -1.32 1.32 -2 2 C-1.34 2.66 -0.68 3.32 0 4 C-0.33 4.99 -0.66 5.98 -1 7 C-1 7.99 -1 8.98 -1 10 C-1.33 10.66 -1.66 11.32 -2 12 C-3.98 12 -5.96 12 -8 12 C-8 8.23312136 -7.76462683 7.08809695 -6 4 C-7.65 4.66 -9.3 5.32 -11 6 C-11 5.01 -11 4.02 -11 3 C-7.43047703 -0.31455704 -4.66664121 -1.55554707 0 0 Z " fill="#4D7AB8" transform="translate(260,190)"/>
<path d="M0 0 C-0.99 0.495 -0.99 0.495 -2 1 C-1.67 1.66 -1.34 2.32 -1 3 C-7.00860549 4.05838127 -12.84627561 4.11662571 -18.9375 4.0625 C-19.90751953 4.05798828 -20.87753906 4.05347656 -21.87695312 4.04882812 C-24.2513676 4.0371315 -26.62565021 4.02074086 -29 4 C-28.67 3.01 -28.34 2.02 -28 1 C-23.61381061 -0.10084753 -19.36308673 -0.08175021 -14.875 0 C-9.79011469 0.09161956 -4.76265139 -1.47806422 0 0 Z " fill="#97BEE9" transform="translate(261,175)"/>
<path d="M0 0 C0 0.33 0 0.66 0 1 C-6.27 1.33 -12.54 1.66 -19 2 C-19 2.33 -19 2.66 -19 3 C-19.58378418 3.08040527 -20.16756836 3.16081055 -20.76904297 3.24365234 C-23.47146759 3.61767005 -26.17322565 3.99631465 -28.875 4.375 C-30.25171875 4.56449219 -30.25171875 4.56449219 -31.65625 4.7578125 C-37.82127145 5.62612538 -43.90923856 6.71032803 -50 8 C-50 7.34 -50 6.68 -50 6 C-33.42334317 0.15275461 -17.40209347 -0.32996968 0 0 Z " fill="#4861A3" transform="translate(216,71)"/>
<path d="M0 0 C0.268125 0.639375 0.53625 1.27875 0.8125 1.9375 C1.88667752 4.33131686 1.88667752 4.33131686 5 5 C2 7 2 7 -1 7 C-1.33 7.66 -1.66 8.32 -2 9 C-2 7.68 -2 6.36 -2 5 C-2.66 5 -3.32 5 -4 5 C-4.2502157 7.91634129 -4.2502157 7.91634129 -4 11 C-3.01 11.66 -2.02 12.32 -1 13 C-1 13.66 -1 14.32 -1 15 C1.64 15.66 4.28 16.32 7 17 C6.67 17.66 6.34 18.32 6 19 C1.49859956 17.81693963 -2.10096508 16.83325187 -5.5625 13.625 C-7.20204705 10.63104452 -7.75107162 9.33809607 -7 6 C-4.82453396 3.48103932 -2.989803 1.4949015 0 0 Z " fill="#516595" transform="translate(230,168)"/>
<path d="M0 0 C0.66 0 1.32 0 2 0 C2.33 0.66 2.66 1.32 3 2 C5.02463255 2.65213292 5.02463255 2.65213292 7 3 C7 3.66 7 4.32 7 5 C10.31544299 6.10514766 13.20410111 6.32107631 16.6875 6.5625 C18.45673828 6.68818359 18.45673828 6.68818359 20.26171875 6.81640625 C21.61716797 6.90728516 21.61716797 6.90728516 23 7 C23 7.33 23 7.66 23 8 C18.38 8.33 13.76 8.66 9 9 C9 9.33 9 9.66 9 10 C5.44069018 10.32357362 3.58208265 10.3880551 0.5625 8.375 C-1 6 -1 6 -0.75 2.75 C-0.5025 1.8425 -0.255 0.935 0 0 Z " fill="#5C7DB8" transform="translate(226,173)"/>
<path d="M0 0 C2.62287093 2.89188333 3.94177549 4.74817298 4.125 8.6875 C3 11 3 11 0.3125 13 C-3 14 -3 14 -6.1875 13.1875 C-10.04621509 10.18627715 -10.62977675 7.64353436 -12 3 C-7.87409245 0.64233854 -4.7745974 -0.93416036 0 0 Z M-7 2 C-8.36623674 4.73247348 -8.128426 6.98198902 -8 10 C-6.82889816 11.38908639 -6.82889816 11.38908639 -3.5625 11.25 C-2.386875 11.1675 -1.21125 11.085 0 11 C2.25162602 8.24528606 2.25162602 8.24528606 1.9375 5.4375 C1.21249551 2.79118348 1.21249551 2.79118348 -1.375 1.625 C-4.08606269 0.7357082 -4.08606269 0.7357082 -7 2 Z " fill="#4B6592" transform="translate(220,137)"/>
<path d="M0 0 C-0.7421875 3.78125 -0.7421875 3.78125 -3.0625 5.75 C-3.701875 6.1625 -4.34125 6.575 -5 7 C-4.67 5.68 -4.34 4.36 -4 3 C-17.365 3.495 -17.365 3.495 -31 4 C-31 3.34 -31 2.68 -31 2 C-20.60886221 0.69381882 -10.48925548 -0.33358056 0 0 Z " fill="#48659A" transform="translate(174,187)"/>
<path d="M0 0 C13.59362855 1.02593423 23.9196274 7.21198287 34 16 C33.34 16.66 32.68 17.32 32 18 C31.53851563 17.55269531 31.07703125 17.10539062 30.6015625 16.64453125 C22.54397431 9.17613429 14.11101734 5.77956718 3.58984375 2.89453125 C1 2 1 2 0 0 Z " fill="#455D9F" transform="translate(235,123)"/>
<path d="M0 0 C1.0828125 1.11375 1.0828125 1.11375 2.1875 2.25 C6.19580326 6.16922986 9.79540579 8.95329361 14.875 11.3125 C19.78036451 13.68819223 23.75754451 16.56765258 27 21 C27.68359375 23.21484375 27.68359375 23.21484375 28 25 C25.37930161 22.97831839 22.99144346 20.99082492 20.73046875 18.56640625 C17.80407017 15.81584278 15.10976355 14.35397553 11.5 12.625 C5.94250354 9.74869662 2.92479236 7.52460778 0 2 C0 1.34 0 0.68 0 0 Z " fill="#4D6597" transform="translate(274,134)"/>
<path d="M0 0 C0.33 0.99 0.66 1.98 1 3 C-13.95744681 15.14893617 -13.95744681 15.14893617 -22 19 C-22 19.99 -22 20.98 -22 22 C-23.32 21.67 -24.64 21.34 -26 21 C-24.55921752 16.67765257 -21.25032702 15.50467546 -17.5 13.3125 C-11.06139189 9.438155 -5.35166113 5.32192968 0 0 Z " fill="#466392" transform="translate(178,284)"/>
<path d="M0 0 C0.68707031 0.06960937 1.37414062 0.13921875 2.08203125 0.2109375 C2.74203125 1.2009375 3.40203125 2.1909375 4.08203125 3.2109375 C-2.51796875 3.8709375 -9.11796875 4.5309375 -15.91796875 5.2109375 C-15.91796875 5.5409375 -15.91796875 5.8709375 -15.91796875 6.2109375 C-17.56796875 6.2109375 -19.21796875 6.2109375 -20.91796875 6.2109375 C-21.24796875 5.2209375 -21.57796875 4.2309375 -21.91796875 3.2109375 C-18.94959513 0.24256388 -15.59584882 0.74595274 -11.60546875 0.5859375 C-10.84556641 0.54726562 -10.08566406 0.50859375 -9.30273438 0.46875 C-7.83037255 0.39711467 -6.35749689 0.33522036 -4.88427734 0.28417969 C-3.2545617 0.22347511 -1.62660129 0.11758564 0 0 Z " fill="#6792CA" transform="translate(255.91796875,177.7890625)"/>
<path d="M0 0 C1.1446875 0.3403125 1.1446875 0.3403125 2.3125 0.6875 C2.6425 2.3375 2.9725 3.9875 3.3125 5.6875 C0.33838876 6.92671302 -2.54012818 7.98808404 -5.6875 8.6875 C-6.04825949 3.27610759 -6.04825949 3.27610759 -4.5 0.75 C-2.6875 -0.3125 -2.6875 -0.3125 0 0 Z " fill="#405383" transform="translate(267.6875,153.3125)"/>
<path d="M0 0 C4.62 0 9.24 0 14 0 C13.01 0.66 12.02 1.32 11 2 C13.31 2.66 15.62 3.32 18 4 C15.4345406 6.5654594 13.52313332 6.54046087 10 7 C9.67 6.34 9.34 5.68 9 5 C6.88672575 4.09274566 6.88672575 4.09274566 4.4375 3.375 C3.61121094 3.11460937 2.78492188 2.85421875 1.93359375 2.5859375 C1.29550781 2.39257812 0.65742188 2.19921875 0 2 C0 1.34 0 0.68 0 0 Z " fill="#6088BE" transform="translate(241,184)"/>
<path d="M0 0 C1.32 0.33 2.64 0.66 4 1 C3.60799155 3.3825968 3.27060945 4.71671738 1.58203125 6.484375 C-2.40301118 9.33460402 -4.91844856 10.61970139 -10 10 C-8.6875 8.5 -8.6875 8.5 -7 7 C-6.01 7 -5.02 7 -4 7 C-3.71125 6.401875 -3.4225 5.80375 -3.125 5.1875 C-2 3 -2 3 0 0 Z " fill="#98C1F5" transform="translate(245,158)"/>
<path d="M0 0 C0.33 0.99 0.66 1.98 1 3 C0.34 3 -0.32 3 -1 3 C-0.7525 3.70125 -0.505 4.4025 -0.25 5.125 C0.10218341 9.17510918 -1.62184813 10.80648178 -4 14 C-4.69429379 15.3191582 -5.37530495 16.64649406 -6 18 C-6.33 18 -6.66 18 -7 18 C-6.66844098 10.68912368 -5.34193948 5.34193948 0 0 Z " fill="#576792" transform="translate(237,200)"/>
<path d="M0 0 C0.66 0.66 1.32 1.32 2 2 C1.46375 2.598125 0.9275 3.19625 0.375 3.8125 C-2.41283995 7.55407467 -4.38143452 11.49269842 -6.4375 15.671875 C-8 18 -8 18 -10.1875 18.828125 C-10.785625 18.88484375 -11.38375 18.9415625 -12 19 C-11.505 17.515 -11.505 17.515 -11 16 C-10.34 16 -9.68 16 -9 16 C-8.6596875 14.7934375 -8.6596875 14.7934375 -8.3125 13.5625 C-4.06451613 2.03225806 -4.06451613 2.03225806 0 0 Z " fill="#43619D" transform="translate(168,193)"/>
<path d="M0 0 C1.13013378 3.39040133 0.99031591 3.76576546 -0.5 6.8125 C-2.84173161 11.18911562 -5.76599031 14.38675101 -10 17 C-13.4375 17.875 -13.4375 17.875 -16 18 C-10.85714286 13.57142857 -10.85714286 13.57142857 -7 13 C-7 12.34 -7 11.68 -7 11 C-6.34 11 -5.68 11 -5 11 C-4.9175 10.484375 -4.835 9.96875 -4.75 9.4375 C-3.67859775 5.95544268 -1.86476395 3.12799115 0 0 Z " fill="#3D5883" transform="translate(257,153)"/>
<path d="M0 0 C10.395 3.465 10.395 3.465 21 7 C21 7.66 21 8.32 21 9 C15.5632024 8.44147333 11.0816633 7.06042383 6.0625 4.9375 C5.37865234 4.65583984 4.69480469 4.37417969 3.99023438 4.08398438 C2.32386054 3.3964595 0.66149273 2.69923825 -1 2 C-0.67 1.34 -0.34 0.68 0 0 Z " fill="#476196" transform="translate(156,305)"/>
<path d="M0 0 C0.86625 0.3403125 0.86625 0.3403125 1.75 0.6875 C1.9375 3.0625 1.9375 3.0625 1.75 5.6875 C0.76 6.3475 -0.23 7.0075 -1.25 7.6875 C-1.25 6.6975 -1.25 5.7075 -1.25 4.6875 C-3.23 5.6775 -5.21 6.6675 -7.25 7.6875 C-6.91753345 4.61218444 -6.61895244 3.06917494 -4.4375 0.8125 C-2.25 -0.3125 -2.25 -0.3125 0 0 Z " fill="#5B7CAF" transform="translate(204.25,137.3125)"/>
<path d="M0 0 C-1 2 -1 2 -3.37109375 2.81640625 C-9.91404626 4.40838578 -16.27625837 5.5686095 -23 6 C-23 5.34 -23 4.68 -23 4 C-20.10555905 3.3267344 -17.20969987 2.66119596 -14.3125 2 C-13.49587891 1.80921875 -12.67925781 1.6184375 -11.83789062 1.421875 C-7.82760674 0.51266084 -4.14282748 -0.27000098 0 0 Z " fill="#45679B" transform="translate(191,138)"/>
<path d="M0 0 C1.32 0 2.64 0 4 0 C3.41196203 3.02419525 2.77321882 6.01758453 2 9 C4.49552484 8.21869929 4.49552484 8.21869929 7 7 C7.33 6.01 7.66 5.02 8 4 C8 5.32 8 6.64 8 8 C5.6875 10.3125 5.6875 10.3125 3 12 C2.01 11.67 1.02 11.34 0 11 C0.08378906 10.37351563 0.16757813 9.74703125 0.25390625 9.1015625 C0.35574219 8.28429687 0.45757812 7.46703125 0.5625 6.625 C0.66691406 5.81289062 0.77132812 5.00078125 0.87890625 4.1640625 C1.18237328 1.95100814 1.18237328 1.95100814 0 0 Z " fill="#7697BF" transform="translate(239,202)"/>
<path d="M0 0 C0.99 0.66 1.98 1.32 3 2 C2.67 3.98 2.34 5.96 2 8 C0.68 8 -0.64 8 -2 8 C-2.99 9.485 -2.99 9.485 -4 11 C-4.99 10.67 -5.98 10.34 -7 10 C-6.25 8.0625 -6.25 8.0625 -5 6 C-2.875 5.25 -2.875 5.25 -1 5 C-0.67 3.35 -0.34 1.7 0 0 Z " fill="#4C72A1" transform="translate(231,147)"/>
<path d="M0 0 C4.13573846 0.58797246 6.78849465 2.83366819 10.0625 5.3125 C11.10535156 6.09238281 12.14820313 6.87226562 13.22265625 7.67578125 C15.60571024 9.67003881 17.29854167 11.42720661 19 14 C16.12813419 12.65639981 13.69526708 11.1232306 11.1875 9.1875 C8.49565576 7.12695131 5.78007449 5.12734913 3 3.1875 C2.01 2.465625 1.02 1.74375 0 1 C0 0.67 0 0.34 0 0 Z " fill="#4C6797" transform="translate(289,76)"/>
<path d="M0 0 C6.6 0.33 13.2 0.66 20 1 C20 1.33 20 1.66 20 2 C15.38 2.33 10.76 2.66 6 3 C6 3.33 6 3.66 6 4 C4.02 4 2.04 4 0 4 C0 2.68 0 1.36 0 0 Z " fill="#4F7AB7" transform="translate(229,179)"/>
<path d="M0 0 C0.99 0.66 1.98 1.32 3 2 C2.01 2 1.02 2 0 2 C0 2.66 0 3.32 0 4 C-4.29 3.67 -8.58 3.34 -13 3 C-8.61312375 0.07541584 -5.26066721 -0.6146126 0 0 Z " fill="#5D87BE" transform="translate(268,177)"/>
<path d="M0 0 C0.99 0 1.98 0 3 0 C5.23083941 3.12317517 6.66786942 6.4134946 8 10 C9.65 9.67 11.3 9.34 13 9 C11.68 10.32 10.36 11.64 9 13 C7.1015625 12.31640625 7.1015625 12.31640625 5 11 C4.0234375 8.65234375 4.0234375 8.65234375 3.375 5.9375 C2.97016976 4.27769601 2.52215443 2.62671188 2 1 C1.34 0.67 0.68 0.34 0 0 Z " fill="#4A608D" transform="translate(288,188)"/>
<path d="M0 0 C0 2.64 0 5.28 0 8 C2.31 8.66 4.62 9.32 7 10 C6.01 10.66 5.02 11.32 4 12 C0.85958606 10.88340838 -1.43796091 10.04378688 -3.06640625 7.01953125 C-3.79140412 5.04067232 -4.40354415 3.02132259 -5 1 C-2 0 -2 0 0 0 Z " fill="#425C9D" transform="translate(213,139)"/>
<path d="M0 0 C0.33 0.66 0.66 1.32 1 2 C1.66 2 2.32 2 3 2 C3.33 1.34 3.66 0.68 4 0 C6.9375 0.8125 6.9375 0.8125 10 2 C10.33 2.99 10.66 3.98 11 5 C9.58249437 4.88490339 8.16598831 4.75746342 6.75 4.625 C5.96109375 4.55539063 5.1721875 4.48578125 4.359375 4.4140625 C1.914123 3.98492887 0.15163097 3.21399362 -2 2 C-1.34 1.34 -0.68 0.68 0 0 Z " fill="#535E87" transform="translate(201,164)"/>
<path d="M0 0 C0.75 1.625 0.75 1.625 1 4 C-0.453125 7.2265625 -0.453125 7.2265625 -3 10 C-5.89594351 10.46211865 -7.90497024 10.584747 -10.75 10.375 C-11.44738281 10.34792969 -12.14476562 10.32085937 -12.86328125 10.29296875 C-14.57685705 10.22254783 -16.28883302 10.11492913 -18 10 C-18 9.67 -18 9.34 -18 9 C-17.11957031 9.020625 -16.23914063 9.04125 -15.33203125 9.0625 C-8.63162923 9.20235886 -8.63162923 9.20235886 -3.0234375 6.15234375 C-1.80792154 4.13714625 -0.81847983 2.20437207 0 0 Z " fill="#3E5A8C" transform="translate(212,307)"/>
<path d="M0 0 C2.94545056 2.43319829 3.32286717 4.32413607 4 8 C4.66 8.33 5.32 8.66 6 9 C6.625 11.0625 6.625 11.0625 7 13 C3.16031141 11.5435664 1.68993538 9.71785783 0 6 C-0.1875 2.6875 -0.1875 2.6875 0 0 Z " fill="#557ABA" transform="translate(192,150)"/>
<path d="M0 0 C1.32 0.66 2.64 1.32 4 2 C4 4.31 4 6.62 4 9 C2.02 9.99 2.02 9.99 0 11 C-1.65 9.35 -3.3 7.7 -5 6 C-4.67 5.34 -4.34 4.68 -4 4 C-3.38125 4.66 -2.7625 5.32 -2.125 6 C-0.24362573 8.2284549 -0.24362573 8.2284549 2 8 C1.34 5.36 0.68 2.72 0 0 Z " fill="#4A608A" transform="translate(239,144)"/>
<path d="M0 0 C0.268125 0.639375 0.53625 1.27875 0.8125 1.9375 C1.88667752 4.33131686 1.88667752 4.33131686 5 5 C2 7 2 7 -1 7 C-1.33 7.66 -1.66 8.32 -2 9 C-2.79953138 5.71303767 -3.09658936 4.28976808 -2 1 C-1.34 0.67 -0.68 0.34 0 0 Z " fill="#506EA6" transform="translate(230,168)"/>
<path d="M0 0 C0.66 0.33 1.32 0.66 2 1 C0.60306939 5.88925715 -1.93987562 8.05441957 -6 11 C-8.875 12.3125 -8.875 12.3125 -11 13 C-11.33 12.34 -11.66 11.68 -12 11 C-9.0173094 9.47551369 -6.181798 8.06059933 -3 7 C-3 6.34 -3 5.68 -3 5 C-2.34 5 -1.68 5 -1 5 C-0.67 3.35 -0.34 1.7 0 0 Z " fill="#435C86" transform="translate(230,155)"/>
<path d="M0 0 C-0.5775 0.32613281 -1.155 0.65226562 -1.75 0.98828125 C-2.86375 1.64376953 -2.86375 1.64376953 -4 2.3125 C-4.7425 2.74175781 -5.485 3.17101562 -6.25 3.61328125 C-6.8275 4.07089844 -7.405 4.52851563 -8 5 C-8 5.99 -8 6.98 -8 8 C-9.32 7.67 -10.64 7.34 -12 7 C-10.84625061 3.53875184 -10.12298029 3.11687417 -7.125 1.25 C-6.42632812 0.80140625 -5.72765625 0.3528125 -5.0078125 -0.109375 C-3 -1 -3 -1 0 0 Z " fill="#3D5389" transform="translate(164,298)"/>
<path d="M0 0 C1.32 0.33 2.64 0.66 4 1 C4 1.66 4 2.32 4 3 C4.66 3 5.32 3 6 3 C7.5625 5.8125 7.5625 5.8125 9 9 C8.67 9.99 8.34 10.98 8 12 C6.64737514 9.97106271 5.3144712 7.92886125 4 5.875 C2.30925867 2.95510761 2.30925867 2.95510761 0 2 C0 1.34 0 0.68 0 0 Z " fill="#556C9D" transform="translate(290,155)"/>
<path d="M0 0 C0.66 0.33 1.32 0.66 2 1 C0.42353449 2.32074115 -1.16145531 3.63131224 -2.75 4.9375 C-3.63171875 5.66839844 -4.5134375 6.39929688 -5.421875 7.15234375 C-7.76330955 8.83037185 -9.19661127 9.58735166 -12 10 C-8.40945767 6.11024581 -4.26101118 3.10267805 0 0 Z " fill="#445C8C" transform="translate(159,283)"/>
<path d="M0 0 C1.32 0.33 2.64 0.66 4 1 C3.01 1 2.02 1 1 1 C1 2.65 1 4.3 1 6 C1.99 5.67 2.98 5.34 4 5 C4.33 5.66 4.66 6.32 5 7 C2.69 7.33 0.38 7.66 -2 8 C-2 4.23312136 -1.76462683 3.08809695 0 0 Z " fill="#5873A6" transform="translate(214,161)"/>
<path d="M0 0 C3.85103301 0.53675903 5.31797587 2.11600923 7.75 5.0625 C8.36359375 5.79597656 8.9771875 6.52945313 9.609375 7.28515625 C10.06828125 7.85105469 10.5271875 8.41695312 11 9 C10.67 9.66 10.34 10.32 10 11 C9.61328125 10.54109375 9.2265625 10.0821875 8.828125 9.609375 C5.99804049 6.274919 3.15638645 3.03498697 0 0 Z " fill="#496087" transform="translate(291,148)"/>
<path d="M0 0 C3.68266103 0.59950296 7.34543185 1.24758891 11 2 C8.38372835 4.61627165 6.64734979 4.77669287 3 5 C1.125 3.6875 1.125 3.6875 0 2 C0 1.34 0 0.68 0 0 Z " fill="#759FD9" transform="translate(248,186)"/>
<path d="M0 0 C0.99 1.32 1.98 2.64 3 4 C2.01 5.485 2.01 5.485 1 7 C1 6.01 1 5.02 1 4 C-0.65 4.66 -2.3 5.32 -4 6 C-4 5.01 -4 4.02 -4 3 C-2 1.3125 -2 1.3125 0 0 Z " fill="#5581BD" transform="translate(253,190)"/>
<path d="M0 0 C3.63 0 7.26 0 11 0 C9.92643531 4.29425875 9.4915227 4.74740471 6 7 C6.66 5.35 7.32 3.7 8 2 C5.36 1.67 2.72 1.34 0 1 C0 0.67 0 0.34 0 0 Z " fill="#596D94" transform="translate(163,187)"/>
<path d="M0 0 C1.65 0.33 3.3 0.66 5 1 C4.01 1.495 4.01 1.495 3 2 C1.86649466 4.01669827 1.86649466 4.01669827 1 6 C0.01 5.67 -0.98 5.34 -2 5 C-1.34 3.35 -0.68 1.7 0 0 Z " fill="#5171AD" transform="translate(265,155)"/>
<path d="M0 0 C-0.99 0.66 -1.98 1.32 -3 2 C-4.40133435 3.03425441 -5.79690305 4.07635312 -7.1875 5.125 C-7.90292969 5.66382813 -8.61835938 6.20265625 -9.35546875 6.7578125 C-9.89816406 7.16773438 -10.44085938 7.57765625 -11 8 C-10.40642971 4.92891893 -10.06501562 4.06501562 -7.75 1.75 C-4.79010327 -0.13357065 -3.42491198 -0.39141851 0 0 Z " fill="#44608F" transform="translate(269,146)"/>
<path d="M0 0 C4.67248931 2.82522609 7.65996398 5.67760044 11 10 C8 10 8 10 6.3125 8.625 C5 7 5 7 5 5 C4.360625 4.731875 3.72125 4.46375 3.0625 4.1875 C1 3 1 3 0 0 Z " fill="#4F6895" transform="translate(308,90)"/>
<path d="M0 0 C5.28137429 0.51525603 8.57221156 2.25477117 13 5 C10.34501768 6.0169313 9.30844625 6.13022151 6.640625 5.00390625 C5.85171875 4.52824219 5.0628125 4.05257812 4.25 3.5625 C3.45078125 3.08941406 2.6515625 2.61632812 1.828125 2.12890625 C1.22484375 1.75636719 0.6215625 1.38382812 0 1 C0 0.67 0 0.34 0 0 Z " fill="#465E9E" transform="translate(262,85)"/>
<path d="M0 0 C0.66 0.33 1.32 0.66 2 1 C2 1.66 2 2.32 2 3 C5.465 2.505 5.465 2.505 9 2 C5.71536341 4.18975773 2.79303725 4.99806563 -1 6 C-0.67 4.02 -0.34 2.04 0 0 Z " fill="#415783" transform="translate(245,306)"/>
<path d="M0 0 C0.33 0.99 0.66 1.98 1 3 C0.34 3 -0.32 3 -1 3 C-0.67 4.65 -0.34 6.3 0 8 C-0.99 8.495 -0.99 8.495 -2 9 C-2.99 8.67 -3.98 8.34 -5 8 C-3.62845496 5.04590299 -2.01136276 2.55991624 0 0 Z " fill="#5770A3" transform="translate(237,200)"/>
<path d="M0 0 C-3.07999946 3.67230705 -5.2482602 4.56802365 -10 5 C-10 4.34 -10 3.68 -10 3 C-6.58168085 0.4606772 -4.24223102 -0.3636198 0 0 Z " fill="#658FC7" transform="translate(225,162)"/>
<path d="M0 0 C0.66 0.66 1.32 1.32 2 2 C1.319375 2.61875 1.319375 2.61875 0.625 3.25 C-1.05950374 5.06408095 -1.99265971 6.75285627 -3 9 C-3.66 8.67 -4.32 8.34 -5 8 C-5 7.01 -5 6.02 -5 5 C-4.34 5 -3.68 5 -3 5 C-3 4.01 -3 3.02 -3 2 C-2.01 1.34 -1.02 0.68 0 0 Z " fill="#6384B5" transform="translate(241,198)"/>
<path d="M0 0 C3.39192363 0.59283621 5.2107757 1.76743189 7.75 4.0625 C8.67039062 4.88427734 8.67039062 4.88427734 9.609375 5.72265625 C10.29773438 6.35494141 10.29773438 6.35494141 11 7 C10.34 7.66 9.68 8.32 9 9 C7.49704815 7.69088122 5.99770689 6.37761608 4.5 5.0625 C3.6646875 4.33160156 2.829375 3.60070312 1.96875 2.84765625 C1.3190625 2.23792969 0.669375 1.62820312 0 1 C0 0.67 0 0.34 0 0 Z " fill="#4F6793" transform="translate(258,132)"/>
<path d="M0 0 C1.21236328 0.01353516 1.21236328 0.01353516 2.44921875 0.02734375 C3.37154297 0.04474609 3.37154297 0.04474609 4.3125 0.0625 C4.3125 0.7225 4.3125 1.3825 4.3125 2.0625 C-4.25892857 3.49107143 -4.25892857 3.49107143 -7.6875 1.0625 C-4.80538698 0.10179566 -2.98899956 -0.04331883 0 0 Z " fill="#435E8E" transform="translate(205.6875,48.9375)"/>
<path d="M0 0 C6.0546875 -0.1953125 6.0546875 -0.1953125 8 0 C8.66 0.66 9.32 1.32 10 2 C9.67 2.33 9.34 2.66 9 3 C2.4 2.4 2.4 2.4 0 0 Z " fill="#4C79B6" transform="translate(250,185)"/>
<path d="M0 0 C-2.55068845 2.35448165 -3.71017358 2.98327924 -7.25 3.1875 C-8.1575 3.125625 -9.065 3.06375 -10 3 C-7.30922307 -0.25725628 -4.0224365 -2.01121825 0 0 Z " fill="#8FBDF0" transform="translate(245,165)"/>
<path d="M0 0 C0 0.66 0 1.32 0 2 C-3.3 2.66 -6.6 3.32 -10 4 C-10 3.34 -10 2.68 -10 2 C-6.38026598 0.68373308 -3.90432869 0 0 0 Z " fill="#4A649A" transform="translate(176,75)"/>
<path d="M0 0 C-1.29299694 2.88437779 -2.65941363 4.87219421 -5 7 C-5.33 5.35 -5.66 3.7 -6 2 C-2.25 0 -2.25 0 0 0 Z " fill="#8CB7EE" transform="translate(254,194)"/>
<path d="M0 0 C0.66 0 1.32 0 2 0 C1.67 4.62 1.34 9.24 1 14 C0.67 14 0.34 14 0 14 C-0.19393875 11.85473901 -0.37998676 9.70876323 -0.5625 7.5625 C-0.71912109 5.77005859 -0.71912109 5.77005859 -0.87890625 3.94140625 C-0.91886719 2.97074219 -0.95882813 2.00007812 -1 1 C-0.67 0.67 -0.34 0.34 0 0 Z " fill="#547EBD" transform="translate(301,169)"/>
<path d="M0 0 C2.86697492 1.28519565 4.97607712 2.57129254 7 5 C7 5.66 7 6.32 7 7 C5.35 6.67 3.7 6.34 2 6 C1.34 4.02 0.68 2.04 0 0 Z " fill="#566F9D" transform="translate(197,159)"/>
<path d="M0 0 C1.08667969 0.29197266 1.08667969 0.29197266 2.1953125 0.58984375 C2.74960938 0.74582031 3.30390625 0.90179688 3.875 1.0625 C3.875 1.7225 3.875 2.3825 3.875 3.0625 C-2.75 2.3125 -2.75 2.3125 -6.125 0.0625 C-3.57797384 -1.21101308 -2.6967055 -0.73941925 0 0 Z " fill="#50689A" transform="translate(173.125,310.9375)"/>
<path d="M0 0 C0.66 0.33 1.32 0.66 2 1 C-1.44615385 5.8 -1.44615385 5.8 -4.25 6.8125 C-5.11625 6.9053125 -5.11625 6.9053125 -6 7 C-4.77065985 3.31197956 -3.06140622 2.27643027 0 0 Z " fill="#82A0C8" transform="translate(238,162)"/>
<path d="M0 0 C1 3 1 3 0.22265625 5.04296875 C-0.16019531 5.75066406 -0.54304688 6.45835937 -0.9375 7.1875 C-1.31777344 7.90292969 -1.69804687 8.61835938 -2.08984375 9.35546875 C-2.54037109 10.16951172 -2.54037109 10.16951172 -3 11 C-3.66 10.67 -4.32 10.34 -5 10 C-3.33333333 6.66666667 -1.66666667 3.33333333 0 0 Z " fill="#3A549A" transform="translate(257,153)"/>
<path d="M0 0 C5.875 4.625 5.875 4.625 7 8 C6.34 8 5.68 8 5 8 C5 7.34 5 6.68 5 6 C4.360625 5.7525 3.72125 5.505 3.0625 5.25 C1 4 1 4 0.25 1.875 C0.1675 1.25625 0.085 0.6375 0 0 Z " fill="#486498" transform="translate(121,294)"/>
<path d="M0 0 C0 3 0 3 -1.25 4.75 C-1.8275 5.1625 -2.405 5.575 -3 6 C-4.32 5.67 -5.64 5.34 -7 5 C-4.69 3.35 -2.38 1.7 0 0 Z " fill="#49628B" transform="translate(280,302)"/>
<path d="M0 0 C0.66 0.33 1.32 0.66 2 1 C-0.88087546 3.40072955 -3.56404834 5.47291037 -7 7 C-5.66667905 3.00003714 -3.5042173 2.16217663 0 0 Z " fill="#3B5A89" transform="translate(135,237)"/>
<path d="M0 0 C0.86625 0.3403125 0.86625 0.3403125 1.75 0.6875 C-0.87198774 2.84127564 -2.89404172 4.08822174 -6.25 4.6875 C-6.25 4.0275 -6.25 3.3675 -6.25 2.6875 C-3.02697842 -0.42041367 -3.02697842 -0.42041367 0 0 Z " fill="#7198D1" transform="translate(204.25,137.3125)"/>
<path d="M0 0 C0 0.66 0 1.32 0 2 C-2.64 2.33 -5.28 2.66 -8 3 C-5.53387212 -0.1151089 -3.89156016 -0.31553191 0 0 Z " fill="#395B9D" transform="translate(188,126)"/>
</svg>
